<?xml version="1.0" encoding="UTF-8"?>
<svg id="Layer_2" data-name="Layer 2" xmlns="http://www.w3.org/2000/svg" viewBox="0 0 70.24 67.53">
  <defs>
    <style>
      .cls-1 {
        fill: #1b1304;
      }

      .cls-2 {
        opacity: .76;
      }

      .cls-3 {
        fill: #4c473d;
      }
    </style>
  </defs>
  <g id="Layer_1-2" data-name="Layer 1">
    <g>
      <g>
        <g>
          <g class="cls-2">
            <path class="cls-3" d="M44.47,31.44c-.22.34-.57.57-.79.91-.58.89-.12,2.07.19,3.1s.19,2.5-.8,2.74c-.78-1.1-1.71-2.08-2.74-2.91-.06,1.62-1.68,2.55-3.02,3.35s-2.74,2.33-2.09,3.8c-.7,1.09-2,1.51-3.08,2.16s-2.1,1.96-1.62,3.17c-2.03-.27-3.59-2.57-3.19-4.69.18-.93.67-1.83.54-2.77-.21-1.45-1.74-2.18-3.08-2.59-4.63-1.43-9.99-2.54-12.49-6.9.79-1.2,2.49-1.62,3.7-.9-1.11-1.81-2.27-4.04-1.44-6.02.6-1.43,2.11-2.22,3.58-2.41.74-.09,1.57-.11,2.08-.68.27-.3.39-.71.55-1.08.94-2.18,3.18-3.31,5.09-4.58s3.84-3.32,3.48-5.68c2.01.92,5.57-.49,5.18,1.79s8.56-8.57,6.45-2.41c2.33-2.43-6.77,8.75-3.76,7.41-.3-1.59,3.25-1.93,2.26-3.18,1.97-.76,2.87-2.69,4.84-3.45.68,2.21-.56,4.24-.91,6.36-.33,2.01.43,3.79-.16,5.71s-1.74,2.83-.86,4.93c.59,1.4,3.32,2.94,2.08,4.82Z"/>
            <path class="cls-3" d="M18.63,15.6c.32.83-.13,1.89-.93,2.19-.11-.44-.79-.16-1.16-.41-.25-.17-.28-.54-.28-.86.01-1.28.02-2.56.03-3.84.33-.66,1.46-.52,1.63.21.1.4-.06.83.06,1.22.13.42.54.67.77,1.04s.08,1.06-.33.99"/>
            <path class="cls-3" d="M44.66,41.18c.6-.02.94.89.59,1.42s-1.1.59-1.64.31-.91-.84-1.19-1.41-.52-1.17-.89-1.67c.26-.16.52-.31.78-.47.28,1.04,1.36,1.75,2.37,1.57v.25Z"/>
            <path class="cls-3" d="M23.15,39.54c.87.27,1.54,1.17,1.57,2.13s-.58,1.91-1.43,2.24c-.38-1.01-.94-1.94-1.65-2.72.49-.55,1.09-1,1.74-1.3l-.22-.35Z"/>
            <path class="cls-3" d="M24.48,12.82c.51-.39.95-.89,1.29-1.46.07-.12.14-.25.16-.4.06-.43-.3-.87-.7-.97s-.78.04-1.11.24-.64.45-1.01.56c-.09-.54-.37-1.06-.77-1.4-.73.29-.99,1.24-1.16,2.09-.02.1-.04.21-.02.31.03.15.14.27.23.38.38.45.69.97.91,1.53.54-.16,1.07-.32,1.61-.48.25-.07.54-.22.52-.51l.05.11Z"/>
            <path class="cls-3" d="M35.16,45.64c1.02.66,2.08,1.41,2.57,2.57s.11,2.81-1.04,3.17c-1.35-1.23-1.95-3.32-1.48-5.14l-.06-.6Z"/>
            <path class="cls-3" d="M40.63,45.56c.37.53.4,1.3.07,1.86-.18-.43-.19-.94-.02-1.37l-.05-.49Z"/>
            <path class="cls-3" d="M49.86,19.13l.79-.21c.37.37.28,1.11-.16,1.38s-1.09-.01-1.22-.53c.23-.15.46-.31.69-.46l-.1-.18Z"/>
            <path class="cls-3" d="M35.74,6.88c.5-.35.14-1.37-.45-1.29s-.7,1.16-.13,1.37c.26-.08.51-.15.77-.23l-.19.15Z"/>
            <path class="cls-3" d="M43.73,6.34c.23.25.23.69,0,.94s-.64.27-.88.04c-.14-.3-.28-.62-.26-.95s.29-.67.61-.63c.41.11.7.56.67,1l-.13-.4Z"/>
            <path class="cls-3" d="M12.65,32.2l-.17.11"/>
            <path class="cls-3" d="M41.52,4.08l-.33-2.29c-.02-.16-.05-.33-.15-.45-.25-.3-.77-.04-.87.35s.09.79.28,1.14.41.71.39,1.11l.69.14Z"/>
            <path class="cls-3" d="M28.29,7.18c.46-.03.41-.77.17-1.19s-.46-1.07-.04-1.28c.36.42.72.88.79,1.44s-.27,1.22-.8,1.24l-.11-.22Z"/>
            <path class="cls-3" d="M29.58,54.19c-.1-.97-.34-1.93-.72-2.82.42-.29.91-.46,1.4-.51-.32.82-.33,1.78-.03,2.61-.44.18-.88.36-1.32.54l.66.18Z"/>
            <path class="cls-3" d="M11.01,30.56c-.28-.98-.67-1.92-1.15-2.8-.15-.28-.4-.6-.7-.51-.14.04-.24.15-.32.27-.43.63-.45,1.55-.05,2.2s1.2,1.01,1.92.86l.3-.02Z"/>
            <path class="cls-3" d="M46.68,37.12c.46-.13.99-.23,1.38.07s.33,1.12-.15,1.15c-.41-.39-.81-.78-1.22-1.17l-.02-.05Z"/>
            <path class="cls-3" d="M49.73,31.55l.58,1.08c-.28.4-.96.42-1.19-.02s.29-1.08.7-.83l-.09-.23Z"/>
            <path class="cls-3" d="M48.35,26.28c.29.22.18.78-.16.89s-.72-.23-.72-.61.33-.7.69-.72c.28-.02.6.35.37.53l-.18-.09Z"/>
          </g>
          <g class="cls-2">
            <path class="cls-3" d="M27.57,54.24c-.3,0-.59-.13-.89-.13-.78,0-1.28.84-1.76,1.49s-1.4,1.23-1.98.67c.31-1,.48-2.05.52-3.1-.99.67-2.26,0-3.31-.53s-2.59-.79-3.17.28c-.95.02-1.77-.66-2.64-1.09s-2.08-.53-2.6.32c-.73-1.46-.06-3.52,1.38-4.18.63-.29,1.38-.36,1.88-.86.77-.78.53-2.12.18-3.19-1.19-3.7-2.89-7.75-1.41-11.34,1.06,0,2.05.94,2.16,2.06.58-1.54,1.4-3.29,2.94-3.6,1.11-.23,2.25.42,3,1.32.38.45.76,1,1.32,1.08.3.04.59-.05.88-.11,1.71-.33,3.36.65,4.96,1.37s3.66,1.09,4.9-.19c.34,1.74,2.74,3.48,1.22,4.23s8.85,1.91,4.27,3.23c2.47.48-8.18-.64-6.05.77.82-.9,2.58,1.31,2.88.1,1.32.97,2.86.72,4.18,1.69-1.01,1.42-2.76,1.5-4.17,2.2-1.34.66-2.06,1.95-3.46,2.41s-2.45.09-3.3,1.6c-.57,1-.28,3.5-1.94,3.51Z"/>
            <path class="cls-3" d="M25.59,30.11c-.35.58-1.18.75-1.71.35.21-.27-.25-.6-.27-.95-.01-.24.2-.42.39-.56.76-.56,1.53-1.11,2.29-1.67.54-.07.95.74.6,1.18-.19.24-.52.33-.7.58-.19.27-.16.65-.27.97s-.59.52-.73.22"/>
            <path class="cls-3" d="M21.88,58.66c.28.39-.12,1.02-.58,1.02s-.84-.47-.9-.95.1-.97.31-1.41.47-.86.59-1.33c.21.1.41.21.62.31-.49.64-.44,1.68.11,2.26l-.15.1Z"/>
            <path class="cls-3" d="M13.38,43.65c.23.7-.02,1.54-.58,1.98s-1.39.46-1.96.03c.43-.69.74-1.48.88-2.3.54.08,1.07.28,1.54.58l.11-.3Z"/>
            <path class="cls-3" d="M29.82,32.77c.46.17.94.24,1.43.21.1,0,.21-.02.31-.07.28-.14.38-.58.27-.89s-.37-.5-.63-.63-.55-.23-.78-.42c.28-.29.46-.71.49-1.13-.49-.36-1.17-.11-1.75.15-.07.03-.14.06-.2.12-.07.09-.1.21-.12.32-.1.45-.27.89-.5,1.28.33.29.66.57.99.86.15.13.37.26.53.12l-.04.08Z"/>
            <path class="cls-3" d="M15.05,54.31c.06.97.08,2.01-.39,2.84s-1.62,1.31-2.34.71c.14-1.44,1.11-2.76,2.4-3.25l.33-.3Z"/>
            <path class="cls-3" d="M17.5,57.91c-.15.48-.6.84-1.07.87.17-.31.47-.54.8-.61l.27-.25Z"/>
            <path class="cls-3" d="M37.24,52.4l.47.43c-.06.41-.54.68-.89.5s-.47-.73-.22-1.04c.19.08.39.17.58.25l.06-.14Z"/>
            <path class="cls-3" d="M38.29,37.63c.43.18.87-.51.57-.87s-1,.05-.87.52c.16.14.32.28.48.41l-.17-.06Z"/>
            <path class="cls-3" d="M42.13,42.7c-.05.26-.31.45-.55.41s-.44-.31-.41-.57c.12-.22.24-.46.45-.59s.53-.1.64.13c.11.32-.02.71-.3.88l.18-.26Z"/>
            <path class="cls-3" d="M13.11,33.44l-.14-.07"/>
            <path class="cls-3" d="M42.5,40.23l1.21-1.23c.08-.09.17-.18.2-.3.07-.3-.32-.53-.59-.43s-.43.4-.55.69-.24.59-.49.75l.22.52Z"/>
            <path class="cls-3" d="M34.83,32.81c.22.29.64-.07.78-.41s.43-.77.74-.59c-.09.42-.21.87-.51,1.16s-.84.36-1.09.01l.08-.17Z"/>
            <path class="cls-3" d="M7.52,54.37c.53-.49.99-1.08,1.36-1.72.35.15.67.4.92.71-.63.15-1.2.56-1.56,1.13-.3-.21-.6-.42-.9-.64l.19.52Z"/>
            <path class="cls-3" d="M13.36,31.63c.45-.62.84-1.29,1.15-2,.1-.23.18-.53,0-.69-.08-.07-.2-.09-.3-.09-.57,0-1.12.38-1.33.94s-.07,1.24.34,1.65l.15.19Z"/>
            <path class="cls-3" d="M25.17,58.21c.28.25.57.56.57.95s-.52.71-.75.41c.05-.44.1-.88.15-1.32l.02-.03Z"/>
            <path class="cls-3" d="M29.82,57.79l-.39.86c-.36,0-.67-.46-.52-.8s.76-.28.8.1l.1-.16Z"/>
            <path class="cls-3" d="M32.34,54.55c0,.29-.39.46-.6.29s-.18-.58.04-.75.56-.09.73.14c.13.18.05.55-.15.48l-.02-.16Z"/>
          </g>
          <g class="cls-2">
            <path class="cls-3" d="M39.14,31.98c-.14.21-.36.36-.5.57-.37.56-.07,1.3.12,1.95s.12,1.57-.5,1.72c-.49-.69-1.07-1.31-1.72-1.83-.04,1.01-1.06,1.6-1.89,2.1s-1.72,1.46-1.31,2.38c-.44.68-1.25.95-1.93,1.36s-1.32,1.23-1.02,1.99c-1.27-.17-2.26-1.61-2-2.95.11-.59.42-1.15.34-1.74-.13-.91-1.09-1.37-1.93-1.63-2.91-.9-6.27-1.6-7.85-4.34.5-.76,1.56-1.02,2.32-.57-.7-1.14-1.43-2.54-.9-3.78.38-.9,1.33-1.39,2.25-1.51.46-.06.99-.07,1.31-.43.17-.19.24-.44.35-.68.59-1.37,2-2.08,3.2-2.88s2.41-2.08,2.19-3.57c1.26.58,3.5-.31,3.25,1.12s5.38-5.38,4.05-1.51c1.46-1.53-4.25,5.5-2.36,4.66-.19-1,2.04-1.21,1.42-1.99,1.24-.48,1.8-1.69,3.04-2.17.43,1.39-.35,2.67-.57,4-.21,1.26.27,2.38-.1,3.59s-1.1,1.78-.54,3.1c.37.88,2.09,1.85,1.31,3.03Z"/>
            <path class="cls-3" d="M22.91,22.03c.2.52-.08,1.19-.58,1.38-.07-.28-.5-.1-.73-.26-.16-.11-.17-.34-.17-.54,0-.8.01-1.61.02-2.41.21-.41.92-.32,1.03.13.06.25-.04.52.04.77.08.26.34.42.49.65s.05.67-.21.62"/>
            <path class="cls-3" d="M39.26,38.1c.38-.01.59.56.37.89s-.69.37-1.03.19-.57-.53-.75-.88-.32-.73-.56-1.05c.16-.1.32-.2.49-.3.18.65.86,1.1,1.49.99v.16Z"/>
            <path class="cls-3" d="M25.75,37.07c.55.17.97.74.99,1.34s-.36,1.2-.9,1.41c-.24-.63-.59-1.22-1.04-1.71.31-.35.68-.63,1.09-.82l-.14-.22Z"/>
            <path class="cls-3" d="M26.58,20.28c.32-.24.6-.56.81-.92.05-.08.09-.16.1-.25.04-.27-.19-.55-.44-.61s-.49.03-.7.15-.4.28-.64.35c-.05-.34-.23-.66-.49-.88-.46.18-.62.78-.73,1.31-.01.06-.03.13-.01.2.02.09.09.17.15.24.24.28.44.61.57.96.34-.1.68-.2,1.01-.3.15-.05.34-.14.33-.32l.03.07Z"/>
            <path class="cls-3" d="M33.29,40.91c.64.42,1.31.89,1.62,1.62s.07,1.77-.65,1.99c-.85-.77-1.23-2.08-.93-3.23l-.04-.38Z"/>
            <path class="cls-3" d="M36.72,40.85c.23.33.25.82.04,1.17-.12-.27-.12-.59-.01-.86l-.03-.31Z"/>
            <path class="cls-3" d="M42.52,24.25l.49-.13c.23.23.18.7-.1.87s-.68,0-.76-.34c.14-.1.29-.19.43-.29l-.06-.11Z"/>
            <path class="cls-3" d="M33.65,16.55c.31-.22.09-.86-.28-.81s-.44.73-.08.86c.16-.05.32-.1.49-.14l-.12.09Z"/>
            <path class="cls-3" d="M38.68,16.22c.14.16.14.43,0,.59s-.4.17-.56.02c-.09-.19-.18-.39-.16-.6s.18-.42.38-.39c.25.07.44.35.42.63l-.08-.25Z"/>
            <path class="cls-3" d="M19.15,32.46l-.11.07"/>
            <path class="cls-3" d="M37.28,14.79l-.21-1.44c-.01-.1-.03-.21-.1-.28-.16-.19-.49-.03-.55.22s.05.5.17.71.26.45.25.7l.43.09Z"/>
            <path class="cls-3" d="M28.97,16.74c.29-.02.25-.49.11-.75s-.29-.67-.03-.8c.23.26.45.55.5.91s-.17.76-.5.78l-.07-.14Z"/>
            <path class="cls-3" d="M29.79,46.28c-.06-.61-.22-1.21-.45-1.77.26-.18.57-.29.88-.32-.2.52-.21,1.12-.02,1.64-.28.11-.55.23-.83.34l.42.11Z"/>
            <path class="cls-3" d="M18.12,31.43c-.18-.61-.42-1.2-.72-1.76-.1-.18-.25-.37-.44-.32-.08.02-.15.1-.2.17-.27.4-.28.97-.03,1.38s.75.64,1.21.54l.19-.02Z"/>
            <path class="cls-3" d="M40.53,35.55c.29-.08.62-.14.87.04s.21.7-.09.72c-.26-.24-.51-.49-.77-.73v-.03Z"/>
            <path class="cls-3" d="M42.44,32.05l.37.68c-.18.25-.61.26-.75-.01s.18-.68.44-.52l-.06-.15Z"/>
            <path class="cls-3" d="M41.58,28.74c.18.14.11.49-.1.56s-.45-.14-.45-.38.21-.44.43-.46c.17-.01.37.22.23.33l-.11-.06Z"/>
          </g>
          <g class="cls-2">
            <path class="cls-3" d="M48.55,30.3c.04.33-.05.66,0,.99.11.86.99,1.3,1.7,1.73s1.39,1.37.93,2.08c-1.03-.2-2.08-.25-3.12-.15.79.99.31,2.48-.07,3.71s-.43,2.95.7,3.45c.14,1.05-.41,2.04-.72,3.05s-.24,2.36.67,2.81c-1.34,1-3.44.54-4.29-.95-.37-.65-.54-1.47-1.1-1.95-.87-.74-2.15-.29-3.15.23-3.47,1.81-7.22,4.22-10.93,3.07-.15-1.17.65-2.38,1.73-2.65-1.59-.43-3.41-1.09-3.93-2.74-.38-1.19.11-2.53.89-3.48.39-.48.88-.96.88-1.6,0-.33-.13-.64-.23-.96-.56-1.83.19-3.78.67-5.64s.58-4.17-.85-5.36c1.66-.6,3.05-3.48,3.98-1.91s.68-9.98,2.59-5.13c.13-2.78.47,9.07,1.57,6.54-.99-.78.94-3.01-.29-3.18.78-1.58.32-3.24,1.1-4.82,1.53.92,1.84,2.83,2.72,4.29.83,1.38,2.19,2,2.83,3.47s.41,2.68,2.01,3.41c1.06.49,3.47-.16,3.71,1.66Z"/>
            <path class="cls-3" d="M25.13,35.74c.61.31.89,1.2.57,1.83-.29-.2-.55.36-.89.42-.24.04-.44-.16-.6-.35-.65-.77-1.3-1.53-1.95-2.3-.14-.58.6-1.14,1.07-.81.26.18.39.53.66.69.29.17.66.08.99.17s.59.58.31.77"/>
            <path class="cls-3" d="M53.64,35.97c.35-.36,1.02-.01,1.08.5s-.35.98-.81,1.12-.97.02-1.43-.15-.9-.4-1.38-.47c.07-.24.15-.48.22-.72.7.45,1.7.26,2.21-.43l.12.16Z"/>
            <path class="cls-3" d="M40.06,47.33c.66-.34,1.51-.19,2.02.37s.64,1.46.3,2.15c-.74-.38-1.55-.61-2.37-.66,0-.61.13-1.21.37-1.77l-.31-.08Z"/>
            <path class="cls-3" d="M27.17,30.73c.1-.52.11-1.07.02-1.6-.02-.11-.04-.23-.11-.33-.18-.29-.62-.34-.91-.18s-.44.47-.54.78-.15.63-.31.91c-.33-.27-.76-.41-1.18-.39-.28.59.05,1.3.38,1.91.04.07.08.15.15.2.09.07.22.08.33.09.46.05.91.18,1.32.38.24-.4.47-.8.71-1.21.11-.18.21-.44.05-.6l.08.04Z"/>
            <path class="cls-3" d="M50.3,44.06c.94-.19,1.96-.36,2.84.05s1.51,1.6,1.01,2.47c-1.43.05-2.86-.85-3.51-2.2l-.34-.32Z"/>
            <path class="cls-3" d="M53.5,40.88c.49.1.9.54.99,1.06-.33-.15-.59-.45-.71-.8l-.28-.26Z"/>
            <path class="cls-3" d="M45.43,19.93l.36-.57c.41.01.74.5.62.91s-.65.62-.99.38c.06-.22.11-.45.17-.67l-.15-.05Z"/>
            <path class="cls-3" d="M30.8,20.77c.12-.49-.62-.89-.93-.51s.18,1.09.62.89c.11-.19.23-.39.34-.58l-.03.2Z"/>
            <path class="cls-3" d="M35.26,15.86c.26.02.49.28.48.55s-.24.53-.51.53c-.24-.1-.48-.2-.64-.41s-.17-.56.04-.72c.3-.17.7-.07.91.21l-.28-.16Z"/>
            <path class="cls-3" d="M30.08,49.01l-.05.16"/>
            <path class="cls-3" d="M32.79,15.79l-1.37-1.17c-.1-.08-.2-.17-.32-.18-.3-.03-.48.42-.34.7s.46.42.75.51.61.19.8.44l.48-.31Z"/>
            <path class="cls-3" d="M26.54,25.22c.26-.28-.16-.69-.51-.8s-.82-.37-.68-.73c.43.04.88.11,1.21.4s.46.87.16,1.2l-.18-.06Z"/>
            <path class="cls-3" d="M51.38,52.33c-.56-.52-1.19-.95-1.87-1.26.1-.41.3-.79.57-1.1.23.67.71,1.24,1.32,1.56-.17.36-.34.72-.5,1.08l.48-.27Z"/>
            <path class="cls-3" d="M28.27,48.97c-.67-.42-1.38-.75-2.11-1-.23-.08-.54-.12-.68.1-.06.1-.06.23-.05.34.07.62.53,1.18,1.1,1.34s1.23-.09,1.58-.59l.17-.19Z"/>
            <path class="cls-3" d="M52.76,32.41c.21-.34.47-.71.85-.75s.77.47.5.77c-.44,0-.88,0-1.32,0l-.03-.02Z"/>
            <path class="cls-3" d="M51.72,27.36l.9.31c.04.4-.36.8-.72.67s-.38-.8-.01-.9l-.17-.08Z"/>
            <path class="cls-3" d="M48.21,25.03c.28-.04.51.36.36.62s-.55.28-.74.05-.16-.61.04-.82c.16-.17.53-.13.49.1l-.15.05Z"/>
          </g>
          <g class="cls-2">
            <path class="cls-1" d="M26.44,45.35c-.38.07-.78-.03-1.17.05-1,.19-1.47,1.38-1.95,2.33s-1.54,1.91-2.4,1.33c.18-1.36.19-2.75.01-4.11-1.12,1.09-2.9.54-4.37.1s-3.49-.41-4.02,1.11c-1.22.24-2.42-.43-3.62-.78s-2.79-.19-3.27,1.02c-1.25-1.71-.81-4.51.89-5.7.75-.52,1.7-.79,2.23-1.55.83-1.18.23-2.85-.43-4.14-2.31-4.48-5.34-9.28-4.19-14.24,1.37-.26,2.84.72,3.21,2.14.43-2.11,1.1-4.55,3.01-5.32,1.38-.56,2.98.02,4.14.98.58.49,1.18,1.1,1.92,1.08.39-.01.75-.21,1.11-.35,2.12-.83,4.46.05,6.66.59s4.93.54,6.26-1.4c.8,2.16,4.26,3.83,2.46,5.14s11.77.37,6.17,3.14c3.27.03-10.64,1.1-7.61,2.41.86-1.35,3.59,1.07,3.72-.54,1.9.94,3.83.25,5.72,1.19-1,2.07-3.24,2.58-4.9,3.81-1.58,1.17-2.24,3-3.93,3.91s-3.13.69-3.91,2.83c-.52,1.42.37,4.56-1.76,4.97Z"/>
            <path class="cls-1" d="M18.81,14.8c-.33.83-1.36,1.24-2.12.85.22-.39-.45-.71-.54-1.15-.06-.31.17-.59.38-.81.87-.9,1.73-1.79,2.6-2.69.68-.22,1.37.73,1.02,1.37-.2.35-.6.54-.77.91-.19.4-.06.88-.15,1.31s-.65.81-.89.45"/>
            <path class="cls-1" d="M20.05,52.36c.44.44.07,1.34-.53,1.44s-1.17-.41-1.36-1.01-.08-1.27.1-1.88.42-1.21.48-1.85c.29.08.58.17.86.25-.49.94-.21,2.26.62,2.88l-.18.17Z"/>
            <path class="cls-1" d="M5.97,35.08c.44.84.3,1.98-.32,2.68s-1.69.92-2.51.51c.41-.99.63-2.07.65-3.16.72-.02,1.44.11,2.1.39l.08-.42Z"/>
            <path class="cls-1" d="M24.8,17.22c.62.11,1.26.09,1.89-.06.13-.03.27-.07.38-.16.33-.25.37-.84.16-1.21s-.58-.55-.95-.66-.75-.17-1.09-.36c.3-.45.44-1.02.39-1.57-.71-.34-1.53.14-2.22.6-.08.06-.17.11-.22.21-.08.13-.08.29-.09.44-.03.6-.16,1.2-.38,1.76.49.29.97.58,1.46.87.22.13.53.25.71.03l-.04.11Z"/>
            <path class="cls-1" d="M10.36,48.39c.28,1.23.52,2.56.09,3.74s-1.8,2.07-2.86,1.46c-.13-1.88.84-3.81,2.4-4.74l.36-.47Z"/>
            <path class="cls-1" d="M14.27,52.43c-.09.65-.59,1.22-1.2,1.36.16-.44.49-.8.9-.98l.29-.39Z"/>
            <path class="cls-1" d="M38.48,40.7l.69.44c0,.54-.55,1-1.04.86s-.76-.83-.5-1.29c.27.06.53.13.8.19l.05-.2Z"/>
            <path class="cls-1" d="M36.72,21.47c.59.13,1.02-.86.55-1.25s-1.27.3-1.01.87c.23.14.46.28.7.42l-.23-.04Z"/>
            <path class="cls-1" d="M42.72,27.09c0,.34-.3.66-.63.66s-.63-.29-.65-.64c.1-.32.21-.65.45-.86s.65-.25.85.01c.21.38.12.92-.2,1.21l.18-.38Z"/>
            <path class="cls-1" d="M3.47,22.02l-.2-.05"/>
            <path class="cls-1" d="M42.68,23.82l1.3-1.86c.09-.13.19-.27.19-.43.02-.4-.52-.61-.85-.41s-.47.62-.56,1.01-.19.81-.47,1.08l.39.61Z"/>
            <path class="cls-1" d="M31.26,16.09c.34.32.8-.24.92-.71s.39-1.1.83-.94c-.03.56-.08,1.16-.41,1.61s-1,.65-1.4.28l.07-.24Z"/>
            <path class="cls-1" d="M.69,50.24c.58-.76,1.05-1.62,1.38-2.53.49.11.95.35,1.33.7-.78.34-1.42,1.01-1.77,1.82-.43-.2-.86-.4-1.29-.61l.35.62Z"/>
            <path class="cls-1" d="M3.42,19.64c.45-.9.81-1.85,1.06-2.84.08-.31.11-.72-.15-.89-.12-.07-.27-.07-.41-.05-.73.12-1.36.75-1.51,1.52s.17,1.61.78,2.05l.23.21Z"/>
            <path class="cls-1" d="M24.19,51.01c.41.25.85.58.93,1.08s-.52,1.04-.87.7c-.03-.58-.05-1.16-.08-1.74l.02-.05Z"/>
            <path class="cls-1" d="M30.07,49.37l-.31,1.2c-.47.07-.96-.43-.83-.91s.92-.54,1.06-.06l.09-.23Z"/>
            <path class="cls-1" d="M32.63,44.62c.06.37-.4.69-.71.51s-.36-.7-.1-.97.7-.25.97,0c.21.2.18.7-.09.65l-.06-.2Z"/>
          </g>
          <g class="cls-2">
            <path class="cls-1" d="M40.18,37.41c-.2.18-.48.27-.68.46-.54.48-.43,1.36-.4,2.11s-.29,1.71-.99,1.68c-.34-.88-.79-1.71-1.34-2.46-.31,1.07-1.55,1.39-2.57,1.67s-2.22,1.04-2.03,2.14c-.65.6-1.58.63-2.42.87s-1.73.91-1.61,1.81c-1.31-.56-1.97-2.39-1.34-3.73.27-.59.75-1.09.82-1.75.11-1.01-.8-1.78-1.62-2.31-2.85-1.82-6.24-3.57-7.18-6.95.73-.66,1.93-.61,2.62.09-.44-1.42-.84-3.12.05-4.28.64-.84,1.78-1.09,2.79-.94.51.08,1.07.22,1.5-.06.23-.15.38-.4.55-.62.99-1.28,2.67-1.61,4.17-2.1s3.12-1.49,3.28-3.14c1.19.99,3.8.71,3.16,2.16s7.15-4.11,4.71-.4c1.96-1.19-5.99,4.57-3.75,4.24.07-1.12,2.49-.68,2.04-1.7,1.44-.14,2.37-1.26,3.81-1.4.09,1.6-1.08,2.73-1.67,4.08-.56,1.28-.35,2.61-1.06,3.78s-1.64,1.56-1.4,3.13c.16,1.04,1.72,2.58.58,3.61Z"/>
            <path class="cls-1" d="M25.58,22c.08.61-.4,1.24-.99,1.29,0-.32-.5-.26-.7-.49-.14-.16-.09-.42-.04-.63.22-.85.44-1.71.67-2.56.33-.38,1.06-.07,1.06.44,0,.28-.18.54-.16.83.02.31.25.55.34.84s-.12.72-.38.6"/>
            <path class="cls-1" d="M38.67,43.95c.41.1.48.77.16,1.06s-.83.19-1.15-.1-.46-.73-.56-1.16-.15-.88-.32-1.28c.2-.06.4-.11.6-.17.02.74.62,1.42,1.32,1.49l-.05.17Z"/>
            <path class="cls-1" d="M24.59,38.82c.54.34.83,1.07.69,1.72s-.7,1.17-1.33,1.23c-.08-.74-.3-1.47-.65-2.12.42-.28.89-.46,1.38-.54l-.09-.28Z"/>
            <path class="cls-1" d="M29.95,21.24c.41-.16.78-.41,1.11-.73.07-.07.14-.14.18-.23.11-.27-.06-.64-.3-.78s-.53-.12-.78-.05-.5.18-.77.19c.03-.38-.07-.77-.28-1.08-.53.06-.87.64-1.13,1.18-.03.06-.06.13-.07.21,0,.1.05.2.09.3.18.37.3.78.35,1.19.39,0,.77-.01,1.16-.02.18,0,.4-.04.43-.24v.08Z"/>
            <path class="cls-1" d="M31.58,45.15c.57.63,1.15,1.33,1.29,2.2s-.4,1.9-1.22,1.92c-.7-1.08-.75-2.58-.13-3.71l.06-.41Z"/>
            <path class="cls-1" d="M35.24,46.12c.16.42.05.94-.26,1.25-.05-.32.03-.66.22-.92l.05-.34Z"/>
            <path class="cls-1" d="M45.83,30.21h.56c.18.33,0,.8-.34.9s-.72-.21-.72-.58c.18-.06.36-.12.54-.18l-.04-.14Z"/>
            <path class="cls-1" d="M38.46,19.39c.39-.14.32-.89-.09-.95s-.66.65-.32.89c.18,0,.37,0,.55,0l-.15.06Z"/>
            <path class="cls-1" d="M43.88,20.53c.11.21.04.5-.16.63s-.47.06-.6-.14c-.04-.23-.09-.47-.01-.68s.31-.39.51-.3c.25.15.37.51.28.79l-.02-.29Z"/>
            <path class="cls-1" d="M18.8,31.96l-.13.04"/>
            <path class="cls-1" d="M42.78,18.6l.16-1.59c.01-.11.02-.23-.03-.33-.12-.25-.51-.17-.64.07s-.08.54,0,.81.15.55.07.82l.43.22Z"/>
            <path class="cls-1" d="M33.43,18.19c.31.07.4-.44.31-.76s-.13-.8.19-.86c.17.35.33.72.29,1.11s-.38.76-.74.68l-.04-.16Z"/>
            <path class="cls-1" d="M26.43,49.81c.1-.67.09-1.35,0-2.02.33-.11.68-.14,1.02-.07-.35.49-.52,1.12-.46,1.74-.32.04-.65.08-.97.11l.41.24Z"/>
            <path class="cls-1" d="M17.99,30.55c-.02-.7-.12-1.4-.3-2.08-.06-.22-.17-.47-.38-.47-.1,0-.18.06-.26.12-.39.34-.56.95-.4,1.46s.63.9,1.14.93l.21.04Z"/>
            <path class="cls-1" d="M40.7,41.62c.33,0,.7.03.91.3s.03.81-.29.74c-.21-.34-.41-.67-.62-1.01v-.04Z"/>
            <path class="cls-1" d="M43.66,38.48l.21.83c-.26.22-.71.1-.79-.24s.37-.66.61-.43l-.02-.17Z"/>
            <path class="cls-1" d="M43.63,34.7c.16.2-.01.56-.26.57s-.44-.29-.38-.54.34-.41.58-.35c.19.04.34.35.16.42l-.1-.09Z"/>
          </g>
        </g>
        <g>
          <g class="cls-2">
            <path class="cls-3" d="M38.71,17.86c.08.4,0,.83.09,1.23.22,1.05,1.35,1.5,2.27,1.97s1.86,1.56,1.35,2.49c-1.29-.14-2.6-.1-3.88.14,1.08,1.15.62,3.04.26,4.62s-.26,3.71,1.2,4.21c.28,1.28-.32,2.57-.61,3.86s-.08,2.96,1.09,3.42c-1.57,1.39-4.23,1.03-5.42-.73-.52-.77-.81-1.77-1.55-2.3-1.15-.83-2.7-.14-3.89.61-4.14,2.61-8.57,5.99-13.29,4.96-.29-1.43.58-3.03,1.9-3.48-2.01-.37-4.34-1-5.14-2.99-.58-1.44-.1-3.15.78-4.41.44-.63,1-1.29.95-2.07-.03-.41-.22-.78-.37-1.16-.87-2.22-.12-4.71.31-7.07s.33-5.24-1.55-6.57c2.01-.93,3.45-4.65,4.76-2.79s-.09-12.47,2.74-6.64c-.09-3.46,1.43,11.21,2.56,7.96-1.3-.86.88-3.83-.65-3.92.82-2.04.1-4.06.91-6.1,1.99.98,2.55,3.33,3.78,5.04,1.16,1.62,2.91,2.25,3.84,4.01s.77,3.28,2.82,4.03c1.36.5,4.29-.56,4.76,1.68Z"/>
            <path class="cls-3" d="M10.15,27.07c.79.32,1.22,1.39.88,2.21-.38-.22-.65.5-1.07.62-.29.08-.57-.16-.78-.37-.88-.88-1.76-1.76-2.63-2.65-.23-.71.64-1.48,1.26-1.12.34.2.54.61.89.78.38.19.83.03,1.24.11s.79.66.46.93"/>
            <path class="cls-3" d="M45.57,24.36c.4-.48,1.26-.12,1.38.51s-.34,1.25-.91,1.48-1.2.13-1.78-.04-1.16-.4-1.76-.44c.07-.31.14-.61.2-.92.91.49,2.14.14,2.7-.76l.17.18Z"/>
            <path class="cls-3" d="M29.78,39.89c.78-.49,1.86-.39,2.54.24s.93,1.75.57,2.64c-.95-.4-1.98-.59-3.01-.57-.05-.76.05-1.52.29-2.24l-.4-.07Z"/>
            <path class="cls-3" d="M12.21,20.64c.08-.66.03-1.34-.13-1.99-.03-.14-.08-.28-.16-.4-.25-.34-.81-.36-1.15-.13s-.5.63-.59,1.02-.13.8-.3,1.17c-.43-.3-.98-.43-1.5-.36-.3.76.18,1.61.65,2.33.06.09.11.17.2.23.12.08.28.08.42.08.57,0,1.14.12,1.68.33.26-.52.51-1.05.77-1.57.12-.24.22-.57,0-.75l.11.04Z"/>
            <path class="cls-3" d="M42.19,34.76c1.16-.34,2.4-.65,3.53-.24s2.02,1.83,1.49,2.97c-1.78.21-3.63-.75-4.56-2.36l-.46-.37Z"/>
            <path class="cls-3" d="M45.85,30.47c.62.08,1.17.58,1.33,1.21-.42-.15-.78-.49-.96-.92l-.37-.29Z"/>
            <path class="cls-3" d="M33.88,5.3l.39-.75c.51-.03.96.54.85,1.07s-.75.83-1.2.58c.05-.28.1-.57.15-.85l-.19-.04Z"/>
            <path class="cls-3" d="M15.79,7.88c.1-.62-.85-1.04-1.2-.53s.33,1.33.86,1.04c.12-.25.25-.5.37-.75l-.03.25Z"/>
            <path class="cls-3" d="M20.87,1.32c.33,0,.63.29.65.64s-.25.68-.58.71c-.3-.1-.62-.2-.83-.45s-.26-.68-.02-.9c.36-.24.87-.16,1.15.17l-.37-.17Z"/>
            <path class="cls-3" d="M17.54,43.02l-.04.21"/>
            <path class="cls-3" d="M17.79,1.49l-1.81-1.3c-.13-.09-.26-.19-.42-.19-.38-.01-.56.57-.36.91s.6.47.98.56.77.17,1.04.46l.57-.43Z"/>
            <path class="cls-3" d="M10.91,13.85c.29-.37-.26-.84-.71-.94s-1.05-.38-.92-.84c.53,0,1.1.05,1.54.37s.66,1.04.31,1.47l-.23-.06Z"/>
            <path class="cls-3" d="M44.29,44.91c-.74-.59-1.57-1.05-2.44-1.37.09-.52.3-1.02.61-1.43.35.81,1,1.47,1.78,1.8-.17.46-.35.93-.52,1.39l.58-.39Z"/>
            <path class="cls-3" d="M15.29,43.16c-.87-.45-1.78-.79-2.72-1.02-.3-.07-.69-.09-.83.19-.07.13-.06.29-.03.43.15.77.76,1.41,1.49,1.54s1.51-.24,1.9-.9l.19-.25Z"/>
            <path class="cls-3" d="M44.15,20.03c.22-.45.52-.93.99-1.03s1,.51.69.9c-.55.05-1.09.1-1.64.15l-.05-.02Z"/>
            <path class="cls-3" d="M42.38,13.87l1.15.29c.09.49-.37,1.03-.83.91s-.55-.96-.1-1.11l-.22-.09Z"/>
            <path class="cls-3" d="M37.8,11.35c.35-.08.66.4.51.74s-.65.4-.91.14-.26-.74-.03-1.03c.18-.23.65-.22.62.07l-.18.08Z"/>
          </g>
          <g class="cls-2">
            <path class="cls-3" d="M42.96,46.49c-.2.23-.49.37-.69.6-.53.61-.3,1.56-.17,2.38s-.11,1.92-.88,1.99c-.48-.92-1.09-1.77-1.79-2.52-.21,1.22-1.53,1.75-2.62,2.2s-2.31,1.46-1.97,2.65c-.64.75-1.67.92-2.55,1.3s-1.79,1.25-1.55,2.23c-1.51-.43-2.47-2.35-1.95-3.92.23-.69.69-1.31.69-2.04-.01-1.13-1.1-1.85-2.08-2.32-3.37-1.6-7.33-3.05-8.79-6.64.72-.83,2.05-.95,2.9-.27-.66-1.5-1.32-3.32-.49-4.73.6-1.02,1.83-1.45,2.96-1.43.57.01,1.2.1,1.65-.28.23-.2.37-.49.53-.76.93-1.55,2.74-2.16,4.33-2.91s3.25-2.09,3.21-3.93c1.43.93,4.28.25,3.75,1.94s7.36-5.55,5.14-1.1c2.01-1.59-6.02,5.89-3.59,5.21-.06-1.24,2.66-1.1,2.04-2.16,1.57-.36,2.45-1.72,4.02-2.08.3,1.75-.85,3.16-1.33,4.73-.45,1.49-.06,2.93-.69,4.32s-1.61,1.95-1.15,3.65c.31,1.13,2.23,2.6,1.1,3.9Z"/>
            <path class="cls-3" d="M24.92,31.57c.16.66-.29,1.42-.92,1.56-.04-.35-.58-.21-.84-.44-.18-.16-.16-.44-.12-.68.14-.97.27-1.94.41-2.91.32-.46,1.16-.23,1.22.34.03.31-.13.63-.07.93.06.33.34.57.48.87s-.04.82-.35.71"/>
            <path class="cls-3" d="M42.12,53.91c.46.05.63.79.31,1.14s-.89.33-1.28.05-.6-.74-.76-1.2-.27-.94-.51-1.37c.21-.09.42-.18.64-.27.11.82.86,1.48,1.64,1.46l-.03.19Z"/>
            <path class="cls-3" d="M25.96,50.26c.64.3,1.05,1.06.98,1.8s-.63,1.39-1.31,1.54c-.18-.81-.52-1.58-.98-2.25.43-.36.93-.64,1.45-.79l-.13-.29Z"/>
            <path class="cls-3" d="M29.64,30.11c.43-.24.81-.57,1.13-.96.07-.08.13-.17.16-.28.09-.32-.14-.69-.43-.82s-.6-.05-.87.06-.53.27-.83.31c-.01-.42-.18-.84-.45-1.15-.58.14-.87.83-1.09,1.46-.03.07-.05.15-.05.24,0,.12.08.22.14.31.24.38.43.81.54,1.26.42-.06.85-.12,1.27-.18.19-.03.43-.1.45-.33l.02.09Z"/>
            <path class="cls-3" d="M34.46,56.24c.71.62,1.44,1.31,1.7,2.24s-.2,2.15-1.11,2.29c-.9-1.09-1.15-2.74-.61-4.07l.02-.46Z"/>
            <path class="cls-3" d="M38.62,56.79c.23.44.17,1.03-.13,1.42-.1-.35-.05-.73.12-1.04v-.38Z"/>
            <path class="cls-3" d="M48.28,37.75l.62-.07c.24.32.1.88-.26,1.03s-.83-.13-.87-.54c.19-.09.38-.18.57-.27l-.06-.15Z"/>
            <path class="cls-3" d="M38.78,26.87c.41-.21.24-1.03-.21-1.03s-.65.81-.24,1.03c.2-.03.41-.06.61-.09l-.16.09Z"/>
            <path class="cls-3" d="M44.91,27.36c.15.21.1.55-.09.71s-.51.13-.68-.07c-.08-.24-.15-.5-.1-.75s.29-.48.52-.41c.3.13.48.5.41.84l-.06-.32Z"/>
            <path class="cls-3" d="M18.71,43.51l-.14.06"/>
            <path class="cls-3" d="M43.45,25.39l-.02-1.77c0-.12,0-.26-.07-.36-.16-.26-.58-.12-.7.16s-.01.61.1.89.24.59.19.89l.51.19Z"/>
            <path class="cls-3" d="M33.09,26.26c.35.03.39-.54.25-.88s-.24-.86.1-.98c.23.36.46.75.46,1.18s-.33.89-.73.85l-.06-.18Z"/>
            <path class="cls-3" d="M29.37,62.11c.02-.75-.07-1.5-.26-2.22.35-.17.73-.25,1.12-.23-.32.59-.43,1.31-.28,1.98-.35.09-.7.18-1.05.26l.49.21Z"/>
            <path class="cls-3" d="M17.64,42.07c-.12-.77-.31-1.53-.59-2.25-.09-.23-.25-.5-.48-.47-.11.01-.2.09-.27.17-.39.43-.5,1.13-.26,1.67s.81.9,1.37.87l.23.02Z"/>
            <path class="cls-3" d="M44.06,51.06c.36-.05.78-.06,1.04.2s.14.89-.23.86c-.27-.34-.54-.68-.81-1.02v-.04Z"/>
            <path class="cls-3" d="M46.94,47.17l.33.89c-.25.27-.77.21-.9-.15s.33-.78.62-.55l-.05-.19Z"/>
            <path class="cls-3" d="M46.42,43.02c.2.2.06.62-.21.66s-.53-.26-.49-.54.32-.5.6-.47c.21.02.42.33.23.44l-.13-.09Z"/>
          </g>
          <g class="cls-2">
            <path class="cls-3" d="M35.45,22.36c.05.25,0,.52.05.77.14.66.85.95,1.43,1.24s1.17.98.85,1.56c-.81-.09-1.64-.06-2.44.09.68.72.39,1.91.16,2.9s-.16,2.33.75,2.64c.17.81-.2,1.62-.38,2.42s-.05,1.86.68,2.15c-.98.87-2.65.65-3.4-.46-.33-.48-.51-1.11-.97-1.45-.72-.52-1.69-.09-2.44.38-2.6,1.64-5.38,3.77-8.35,3.12-.18-.9.36-1.9,1.19-2.18-1.26-.23-2.73-.63-3.23-1.88-.36-.91-.06-1.98.49-2.77.27-.4.63-.81.6-1.3-.02-.26-.14-.49-.23-.73-.54-1.39-.08-2.96.19-4.44s.21-3.29-.98-4.13c1.26-.58,2.17-2.92,2.99-1.75s-.05-7.83,1.72-4.17c-.06-2.18.9,7.04,1.61,5-.82-.54.55-2.41-.41-2.46.51-1.28.06-2.55.57-3.83,1.25.61,1.6,2.09,2.37,3.17.73,1.02,1.83,1.42,2.41,2.52s.48,2.06,1.77,2.53c.86.31,2.7-.35,2.99,1.05Z"/>
            <path class="cls-3" d="M17.51,28.14c.5.2.77.87.55,1.39-.24-.14-.41.32-.67.39-.18.05-.36-.1-.49-.24-.55-.55-1.1-1.11-1.65-1.66-.14-.44.4-.93.79-.71.21.12.34.38.56.49.24.12.52.02.78.07s.5.41.29.58"/>
            <path class="cls-3" d="M39.76,26.44c.25-.3.79-.08.87.32s-.21.79-.57.93-.75.08-1.12-.02-.73-.25-1.11-.28c.04-.19.09-.39.13-.58.57.31,1.34.09,1.7-.48l.1.11Z"/>
            <path class="cls-3" d="M29.84,36.2c.49-.31,1.17-.25,1.6.15s.58,1.1.36,1.66c-.6-.25-1.24-.37-1.89-.36-.03-.48.03-.96.18-1.41l-.25-.04Z"/>
            <path class="cls-3" d="M18.81,24.1c.05-.41.02-.84-.08-1.25-.02-.09-.05-.17-.1-.25-.16-.21-.51-.22-.72-.08s-.31.4-.37.64-.08.5-.19.73c-.27-.19-.62-.27-.94-.22-.19.48.12,1.01.41,1.46.04.05.07.11.13.14.08.05.17.05.27.05.36,0,.72.08,1.05.21.16-.33.32-.66.48-.99.07-.15.14-.36,0-.47l.07.02Z"/>
            <path class="cls-3" d="M37.64,32.97c.73-.21,1.51-.41,2.22-.15s1.27,1.15.93,1.86c-1.12.13-2.28-.47-2.87-1.48l-.29-.23Z"/>
            <path class="cls-3" d="M39.94,30.28c.39.05.74.36.84.76-.26-.09-.49-.31-.6-.58l-.24-.18Z"/>
            <path class="cls-3" d="M32.42,14.47l.25-.47c.32-.02.6.34.53.67s-.47.52-.75.36c.03-.18.06-.36.09-.53l-.12-.03Z"/>
            <path class="cls-3" d="M21.05,16.09c.06-.39-.54-.66-.75-.33s.21.84.54.65c.08-.16.15-.32.23-.47l-.02.15Z"/>
            <path class="cls-3" d="M24.24,11.97c.2,0,.4.18.41.4s-.16.43-.36.45c-.19-.06-.39-.13-.52-.28s-.17-.43-.01-.56c.22-.15.54-.1.72.11l-.23-.11Z"/>
            <path class="cls-3" d="M22.15,38.17l-.03.13"/>
            <path class="cls-3" d="M22.31,12.08l-1.14-.82c-.08-.06-.16-.12-.26-.12-.24,0-.35.36-.22.57s.38.3.61.35.49.11.65.29l.36-.27Z"/>
            <path class="cls-3" d="M17.99,19.84c.18-.24-.16-.53-.44-.59s-.66-.24-.57-.53c.34,0,.69.03.97.23s.41.65.2.92l-.14-.04Z"/>
            <path class="cls-3" d="M38.96,39.35c-.47-.37-.98-.66-1.53-.86.05-.33.19-.64.38-.9.22.51.63.92,1.12,1.13-.11.29-.22.58-.33.87l.36-.25Z"/>
            <path class="cls-3" d="M20.74,38.25c-.54-.28-1.12-.5-1.71-.64-.19-.05-.43-.06-.52.12-.04.08-.04.18-.02.27.09.48.48.88.94.97s.95-.15,1.2-.57l.12-.16Z"/>
            <path class="cls-3" d="M38.87,23.72c.14-.28.33-.58.62-.64s.63.32.44.56c-.34.03-.69.06-1.03.09h-.03Z"/>
            <path class="cls-3" d="M37.76,19.85l.72.18c.05.31-.23.65-.52.57s-.34-.6-.06-.7l-.14-.05Z"/>
            <path class="cls-3" d="M34.88,18.27c.22-.05.42.25.32.46s-.41.25-.57.09-.16-.46-.02-.65c.11-.14.41-.14.39.05l-.12.05Z"/>
          </g>
          <g class="cls-2">
            <path class="cls-3" d="M40.71,13.94c.26.19.43.49.68.68.67.5,1.57.11,2.36-.13s1.9-.14,2.07.7c-.84.66-1.59,1.43-2.23,2.31,1.23.06,1.92,1.45,2.52,2.59s1.75,2.34,2.86,1.81c.82.6,1.13,1.71,1.62,2.63s1.47,1.8,2.4,1.4c-.22,1.72-1.98,3.03-3.58,2.67-.71-.16-1.38-.58-2.1-.48-1.1.16-1.67,1.46-1.99,2.59-1.12,3.92-2.01,8.46-5.33,10.56-.91-.68-1.21-2.13-.65-3.15-1.38.93-3.08,1.9-4.58,1.18-1.08-.52-1.67-1.81-1.8-3.06-.07-.63-.07-1.34-.5-1.77-.23-.23-.53-.34-.82-.48-1.65-.82-2.48-2.72-3.44-4.36s-2.49-3.29-4.29-3c.72-1.7-.33-4.73,1.39-4.38s-6.43-7.34-1.78-5.5c-1.83-2,6.59,5.82,5.59,3.25-1.21.24-1.44-2.78-2.39-1.95-.56-1.68-2.02-2.46-2.58-4.14,1.68-.56,3.22.51,4.82.82,1.52.3,2.88-.33,4.33.18s2.13,1.5,3.73.77c1.06-.49,2.26-2.8,3.68-1.73Z"/>
            <path class="cls-3" d="M28.5,35.77c.63-.27,1.44.12,1.65.8-.34.09-.13.67-.32.98-.13.21-.41.23-.66.23-.97-.02-1.94-.04-2.92-.06-.5-.29-.38-1.24.17-1.39.3-.08.63.05.93-.05.32-.11.51-.46.79-.65s.81-.06.75.29"/>
            <path class="cls-3" d="M48.1,13.86c0-.51.69-.79,1.08-.49s.44.94.22,1.4-.65.76-1.08,1-.89.43-1.27.75c-.12-.22-.23-.44-.35-.66.79-.23,1.34-1.14,1.21-2h.19Z"/>
            <path class="cls-3" d="M46.69,32.11c.21-.74.9-1.3,1.63-1.32s1.44.5,1.69,1.23c-.77.31-1.48.78-2.07,1.38-.42-.42-.75-.93-.98-1.49l-.27.19Z"/>
            <path class="cls-3" d="M26.43,30.78c-.29-.44-.67-.81-1.1-1.11-.09-.06-.19-.12-.3-.14-.32-.06-.66.25-.74.58s.03.66.17.95.33.55.42.86c-.41.07-.8.31-1.07.65.21.62.93.85,1.58,1.01.08.02.16.04.24.02.11-.02.2-.11.29-.2.34-.32.74-.58,1.16-.76-.12-.46-.23-.92-.35-1.37-.05-.21-.16-.46-.38-.45l.08-.04Z"/>
            <path class="cls-3" d="M51.42,21.96c.51-.86,1.09-1.76,1.97-2.17s2.13-.07,2.4.91c-.95,1.14-2.53,1.63-3.91,1.22l-.46.04Z"/>
            <path class="cls-3" d="M51.39,17.32c.4-.31.99-.33,1.41-.05-.33.15-.71.15-1.04,0l-.37.04Z"/>
            <path class="cls-3" d="M31.42,9.27l-.15-.67c.29-.31.85-.23,1.05.14s-.02.92-.41,1.03c-.12-.2-.23-.39-.35-.59l-.14.08Z"/>
            <path class="cls-3" d="M22.02,21.17c-.26-.43-1.04-.13-.98.37s.88.6,1.04.12c-.06-.22-.11-.44-.17-.66l.11.16Z"/>
            <path class="cls-3" d="M21.67,14.37c.19-.19.52-.19.71,0s.2.55.02.75c-.23.12-.47.24-.72.21s-.51-.25-.47-.52c.09-.34.43-.59.77-.56l-.3.11Z"/>
            <path class="cls-3" d="M41.05,40.98l.08.15"/>
            <path class="cls-3" d="M19.93,16.24l-1.74.26c-.12.02-.25.04-.34.13-.23.21-.04.66.26.74s.6-.07.86-.23.54-.34.85-.32l.11-.58Z"/>
            <path class="cls-3" d="M22.19,27.5c-.02-.39-.58-.35-.9-.15s-.82.38-.97.03c.32-.3.68-.6,1.1-.66s.92.24.94.69l-.16.09Z"/>
            <path class="cls-3" d="M57.86,26.76c-.74.08-1.47.28-2.15.59-.22-.36-.34-.77-.37-1.2.62.28,1.34.29,1.98.05.13.37.27.75.4,1.12l.14-.56Z"/>
            <path class="cls-3" d="M39.79,42.36c-.74.23-1.46.55-2.13.96-.21.13-.46.34-.39.59.03.12.11.2.21.27.48.37,1.17.4,1.67.06s.78-1.01.67-1.62l-.02-.26Z"/>
            <path class="cls-3" d="M45.04,12.11c-.1-.39-.17-.85.06-1.17s.85-.27.87.13c-.3.34-.6.68-.89,1.03h-.04Z"/>
            <path class="cls-3" d="M40.84,9.47l.83-.49c.3.24.31.82-.02,1.01s-.81-.25-.63-.6l-.18.08Z"/>
            <path class="cls-3" d="M36.83,10.6c.17-.25.6-.15.68.14s-.18.61-.47.61-.53-.29-.54-.59c-.01-.24.27-.5.4-.31l-.07.15Z"/>
          </g>
          <g class="cls-2">
            <path class="cls-1" d="M36.03,41.3c-.21.35-.55.59-.76.93-.55.91-.05,2.08.28,3.1s.27,2.49-.72,2.76c-.82-1.07-1.77-2.02-2.83-2.81-.01,1.62-1.6,2.61-2.91,3.45s-2.66,2.42-1.97,3.87c-.67,1.11-1.95,1.58-3.01,2.27s-2.04,2.03-1.52,3.23c-2.03-.2-3.67-2.44-3.33-4.57.15-.94.61-1.85.45-2.79-.25-1.45-1.81-2.12-3.15-2.49-4.67-1.27-10.06-2.19-12.7-6.46.75-1.23,2.43-1.7,3.67-1.03-1.17-1.77-2.39-3.96-1.62-5.96.56-1.45,2.04-2.29,3.5-2.53.73-.12,1.57-.16,2.06-.75.26-.31.37-.72.52-1.1.87-2.21,3.07-3.42,4.95-4.76s3.74-3.45,3.3-5.8c2.04.85,5.55-.69,5.23,1.6s8.29-8.86,6.38-2.63c2.25-2.51-6.5,8.99-3.52,7.54-.35-1.58,3.19-2.04,2.16-3.25,1.94-.83,2.78-2.79,4.73-3.62.75,2.18-.43,4.26-.71,6.39-.27,2.02.54,3.77.02,5.71s-1.66,2.89-.71,4.96c.63,1.37,3.41,2.82,2.23,4.75Z"/>
            <path class="cls-1" d="M9.72,26.38c.35.82-.07,1.9-.86,2.22-.12-.44-.8-.13-1.17-.37-.26-.16-.29-.53-.3-.85-.03-1.28-.06-2.56-.09-3.84.31-.67,1.44-.57,1.64.15.11.39-.03.83.1,1.22.14.42.56.65.81,1.01s.12,1.06-.3,1"/>
            <path class="cls-1" d="M36.52,51.03c.6-.04.97.86.64,1.39s-1.08.63-1.63.36-.93-.81-1.23-1.36-.55-1.15-.94-1.63c.25-.17.51-.33.76-.5.32,1.03,1.42,1.7,2.41,1.49v.25Z"/>
            <path class="cls-1" d="M14.98,50.15c.88.24,1.57,1.12,1.63,2.08s-.52,1.93-1.36,2.29c-.41-1-1-1.9-1.74-2.66.47-.57,1.06-1.04,1.7-1.36l-.24-.34Z"/>
            <path class="cls-1" d="M15.48,23.39c.5-.41.92-.92,1.24-1.51.07-.12.13-.25.15-.4.05-.43-.33-.86-.73-.95s-.78.07-1.1.28-.63.47-.99.6c-.1-.53-.4-1.04-.82-1.37-.72.31-.95,1.28-1.1,2.13-.02.1-.04.21-.01.31.03.15.14.26.25.37.4.43.72.94.96,1.49.53-.18,1.06-.36,1.6-.53.24-.08.53-.23.51-.53l.05.11Z"/>
            <path class="cls-1" d="M27.17,55.83c1.04.63,2.12,1.34,2.65,2.48s.2,2.81-.94,3.21c-1.39-1.19-2.06-3.25-1.64-5.09l-.08-.6Z"/>
            <path class="cls-1" d="M32.63,55.55c.39.52.44,1.29.13,1.86-.2-.42-.22-.93-.06-1.37l-.07-.49Z"/>
            <path class="cls-1" d="M41.03,28.82l.78-.24c.38.36.32,1.1-.11,1.39s-1.09.02-1.23-.49c.22-.16.45-.32.67-.49l-.11-.17Z"/>
            <path class="cls-1" d="M26.54,17.07c.49-.37.1-1.37-.49-1.27s-.66,1.19-.09,1.37c.25-.08.51-.17.76-.25l-.18.16Z"/>
            <path class="cls-1" d="M34.51,16.25c.23.24.25.68.03.94s-.63.29-.88.07c-.15-.29-.3-.61-.29-.94s.27-.68.59-.65c.41.1.72.54.7.98l-.14-.4Z"/>
            <path class="cls-1" d="M4.25,43.18l-.17.12"/>
            <path class="cls-1" d="M32.23,14.06l-.4-2.28c-.03-.16-.06-.33-.17-.45-.26-.29-.78-.02-.86.38s.11.79.31,1.13.43.7.43,1.1l.69.12Z"/>
            <path class="cls-1" d="M19.1,17.63c.46-.05.38-.79.13-1.2s-.49-1.05-.08-1.28c.37.41.75.86.84,1.41s-.23,1.22-.76,1.27l-.12-.21Z"/>
            <path class="cls-1" d="M21.86,64.57c-.13-.97-.4-1.92-.81-2.8.41-.3.89-.49,1.39-.55-.29.83-.27,1.79.05,2.61-.43.2-.87.39-1.3.59l.67.16Z"/>
            <path class="cls-1" d="M2.57,41.59c-.31-.96-.73-1.89-1.24-2.76-.16-.28-.42-.58-.72-.49-.13.04-.23.16-.31.28-.41.65-.4,1.56.02,2.2s1.23.97,1.94.79l.3-.03Z"/>
            <path class="cls-1" d="M38.42,46.91c.46-.15.99-.26,1.38.02s.36,1.11-.11,1.15c-.42-.37-.84-.75-1.26-1.12l-.02-.05Z"/>
            <path class="cls-1" d="M41.29,41.24l.62,1.06c-.27.41-.95.45-1.19.02s.26-1.08.68-.86l-.1-.23Z"/>
            <path class="cls-1" d="M39.75,36.02c.3.21.2.78-.13.9s-.73-.2-.74-.58.31-.71.67-.75c.28-.03.61.33.39.52l-.18-.09Z"/>
          </g>
          <g class="cls-2">
            <path class="cls-1" d="M39.92,25.27c-.01.28-.14.55-.15.84-.03.74.65,1.26,1.19,1.74s.98,1.39.48,1.91c-.84-.34-1.72-.55-2.61-.64.53.97-.1,2.15-.6,3.13s-.79,2.43.09,3.03c-.03.91-.64,1.66-1.05,2.46s-.55,1.96.15,2.49c-1.28.63-2.99-.11-3.49-1.5-.22-.61-.24-1.33-.65-1.83-.63-.77-1.78-.6-2.7-.32-3.2.96-6.72,2.39-9.7.82.04-1.01.89-1.91,1.85-1.96-1.28-.63-2.73-1.48-2.93-2.96-.14-1.07.46-2.12,1.26-2.8.4-.34.88-.67.98-1.21.05-.28-.02-.57-.05-.85-.21-1.64.71-3.17,1.39-4.66s1.09-3.43.06-4.68c1.49-.24,3.08-2.45,3.65-.97s2.03-8.34,2.94-3.92c.52-2.33-.92,7.75.38,5.79-.73-.82,1.23-2.39.22-2.74.89-1.21.74-2.69,1.63-3.9,1.16,1.02,1.15,2.7,1.68,4.07.5,1.3,1.57,2.05,1.89,3.4s-.04,2.33,1.21,3.22c.83.59,2.96.43,2.89,2.01Z"/>
            <path class="cls-1" d="M19.31,26.05c.48.36.58,1.16.22,1.64-.22-.22-.52.21-.82.21-.21,0-.35-.21-.46-.4-.44-.75-.88-1.51-1.31-2.26-.03-.51.67-.87,1.03-.51.19.19.26.51.46.69.22.2.55.18.81.3s.42.59.15.7"/>
            <path class="cls-1" d="M43.41,30.89c.35-.25.86.16.84.6s-.44.77-.85.82-.82-.14-1.18-.36-.71-.48-1.1-.63c.1-.19.19-.38.29-.58.53.5,1.4.49,1.93,0l.08.15Z"/>
            <path class="cls-1" d="M30.26,38.29c.6-.18,1.31.09,1.66.64s.33,1.34-.06,1.87c-.57-.44-1.22-.77-1.91-.95.1-.51.29-1.01.57-1.44l-.25-.12Z"/>
            <path class="cls-1" d="M21.76,22.15c.16-.43.25-.89.25-1.36,0-.1,0-.2-.04-.29-.11-.27-.48-.39-.74-.3s-.44.33-.57.57-.22.51-.4.72c-.24-.28-.58-.47-.94-.52-.33.45-.15,1.11.04,1.67.02.07.05.14.1.19.07.07.17.1.27.13.38.11.74.3,1.06.54.26-.3.52-.6.78-.91.12-.14.24-.34.13-.5l.06.04Z"/>
            <path class="cls-1" d="M39.4,37.19c.83,0,1.71.02,2.4.5s1.04,1.6.49,2.26c-1.22-.19-2.29-1.18-2.65-2.43l-.24-.33Z"/>
            <path class="cls-1" d="M42.57,35.02c.4.17.68.6.69,1.06-.26-.18-.44-.47-.49-.79l-.2-.27Z"/>
            <path class="cls-1" d="M38.79,15.98l.39-.43c.34.08.55.54.39.87s-.64.41-.9.16c.08-.18.16-.36.24-.54l-.12-.06Z"/>
            <path class="cls-1" d="M26.28,14.31c.17-.4-.39-.86-.71-.58s0,.95.4.85c.12-.14.25-.29.37-.43l-.06.16Z"/>
            <path class="cls-1" d="M30.77,10.88c.22.06.37.31.33.55s-.28.4-.5.37c-.19-.12-.38-.25-.48-.46s-.06-.51.14-.6c.28-.09.61.05.74.33l-.22-.18Z"/>
            <path class="cls-1" d="M21.57,38.09l-.06.13"/>
            <path class="cls-1" d="M28.69,10.42l-.99-1.21c-.07-.08-.14-.17-.25-.2-.25-.08-.47.28-.39.54s.32.43.56.56.49.26.62.5l.45-.18Z"/>
            <path class="cls-1" d="M22.03,17.38c.26-.2-.03-.61-.31-.76s-.64-.45-.47-.73c.36.1.73.24.96.54s.26.82-.04,1.04l-.14-.08Z"/>
            <path class="cls-1" d="M39.11,44.36c-.4-.53-.87-.99-1.4-1.37.14-.33.37-.62.64-.84.1.61.42,1.17.89,1.54-.19.28-.39.55-.58.83l.45-.15Z"/>
            <path class="cls-1" d="M20.05,37.76c-.5-.46-1.06-.86-1.64-1.19-.19-.1-.44-.19-.59-.03-.07.07-.09.18-.09.28-.03.54.27,1.08.74,1.31s1.05.13,1.42-.24l.17-.13Z"/>
            <path class="cls-1" d="M43.18,27.73c.22-.26.5-.52.83-.5s.58.53.31.73c-.37-.07-.75-.14-1.12-.21l-.03-.02Z"/>
            <path class="cls-1" d="M43.03,23.29l.72.41c-.03.34-.42.62-.7.45s-.2-.74.12-.76l-.13-.1Z"/>
            <path class="cls-1" d="M40.4,20.74c.25.01.38.39.22.59s-.5.15-.63-.07-.05-.54.15-.69c.16-.12.47-.03.4.16l-.14.02Z"/>
          </g>
        </g>
      </g>
      <g>
        <g>
          <g class="cls-2">
            <path class="cls-3" d="M36.8,36.6c.26-.12.55-.11.81-.23.68-.3.83-1.21,1.02-1.96s.8-1.6,1.49-1.33c.07.99.28,1.96.6,2.89.63-.96,1.95-.86,3.05-.8s2.51-.3,2.65-1.45c.82-.38,1.76-.1,2.66-.05s1.99-.33,2.14-1.27c1.13.99,1.24,3.03.23,4.15-.45.49-1.07.84-1.34,1.46-.4.97.26,2.04.92,2.83,2.29,2.76,5.13,5.62,5.07,9.29-.92.41-2.1-.03-2.57-.96.02,1.56-.1,3.38-1.32,4.24-.89.62-2.09.49-3.05,0-.48-.24-.99-.58-1.51-.44-.27.07-.49.27-.73.43-1.37.94-3.13.71-4.76.7s-3.54.44-4.19,2.03c-.88-1.38-3.56-1.97-2.49-3.2s-8.32,1.71-4.8-1.17c-2.3.53,7.3-2.55,4.98-2.97-.4,1.09-2.68-.15-2.53,1-1.47-.34-2.72.46-4.2.12.39-1.62,1.89-2.35,2.87-3.49.93-1.08,1.12-2.48,2.18-3.4s2.09-1.01,2.32-2.64c.15-1.09-.94-3.14.49-3.78Z"/>
            <path class="cls-3" d="M46.71,56.76c.11-.63.77-1.1,1.36-.95-.1.31.42.42.55.72.09.21-.03.44-.15.64-.47.77-.95,1.55-1.42,2.32-.44.26-1.07-.28-.92-.79.09-.28.34-.48.41-.77.07-.31-.09-.63-.09-.94s.34-.68.56-.46"/>
            <path class="cls-3" d="M40.24,30.61c-.37-.24-.25-.93.16-1.1s.88.09,1.11.48.24.88.21,1.34-.11.92-.07,1.38c-.21-.01-.43-.02-.64-.03.21-.74-.19-1.62-.86-1.92l.1-.15Z"/>
            <path class="cls-3" d="M52.7,40.38c-.43-.52-.51-1.34-.17-1.94s1.05-.92,1.69-.77c-.14.77-.14,1.56.01,2.32-.5.13-1.02.16-1.53.08v.31Z"/>
            <path class="cls-3" d="M42.15,56.06c-.45.03-.9.15-1.32.36-.09.04-.18.09-.24.17-.19.23-.13.65.07.88s.49.29.76.31.55,0,.82.07c-.14.36-.16.79-.04,1.17.55.12,1.05-.35,1.47-.79.05-.05.1-.11.13-.18.04-.1.01-.22,0-.33-.07-.43-.07-.87,0-1.3-.38-.12-.77-.25-1.15-.37-.18-.06-.41-.09-.5.1v-.08Z"/>
            <path class="cls-3" d="M47.64,31.77c-.38-.82-.75-1.71-.62-2.61s.96-1.75,1.79-1.5c.37,1.3-.02,2.81-.98,3.72l-.19.39Z"/>
            <path class="cls-3" d="M44.29,29.59c-.03-.47.23-.95.64-1.16-.04.33-.23.65-.49.84l-.15.32Z"/>
            <path class="cls-3" d="M29.05,41.87l-.55-.19c-.09-.38.23-.79.6-.78s.66.45.54.82c-.2,0-.39,0-.59,0v.15Z"/>
            <path class="cls-3" d="M33.15,55.07c-.43,0-.59.77-.2.97s.85-.42.58-.78c-.18-.06-.37-.12-.55-.18h.17Z"/>
            <path class="cls-3" d="M28.1,52.13c-.05-.24.11-.51.34-.57s.49.1.55.34c-.02.24-.05.49-.19.68s-.42.29-.6.13c-.2-.23-.22-.63-.04-.88l-.07.3Z"/>
            <path class="cls-3" d="M56.4,49.13h.15"/>
            <path class="cls-3" d="M28.62,54.41l-.63,1.52c-.04.11-.09.22-.07.34.04.29.45.34.66.15s.24-.51.25-.8.01-.6.17-.84l-.36-.37Z"/>
            <path class="cls-3" d="M37.78,57.93c-.29-.17-.53.3-.54.65s-.11.84-.44.8c-.07-.4-.11-.83.05-1.2s.61-.63.94-.43v.18Z"/>
            <path class="cls-3" d="M54.14,28.86c-.29.63-.49,1.31-.59,2.01-.36,0-.72-.09-1.04-.27.49-.37.85-.94.97-1.57.33.07.66.14,1,.21l-.34-.38Z"/>
            <path class="cls-3" d="M56.79,50.79c-.19.71-.29,1.44-.32,2.17,0,.23.03.53.24.6.1.03.2,0,.29-.04.49-.21.84-.76.84-1.32s-.36-1.1-.85-1.31l-.19-.11Z"/>
            <path class="cls-3" d="M37.54,32.24c-.33-.11-.69-.27-.82-.6s.21-.81.51-.64c.11.4.21.8.32,1.21v.04Z"/>
            <path class="cls-3" d="M33.65,34.38l.04-.9c.32-.13.74.14.72.5s-.57.53-.73.22l-.03.18Z"/>
            <path class="cls-3" d="M32.57,38.14c-.1-.25.18-.55.42-.48s.35.43.22.66-.46.29-.68.16c-.18-.1-.23-.46-.03-.47l.08.13Z"/>
          </g>
          <g class="cls-2">
            <path class="cls-3" d="M55.38,29.65c.18.12.31.32.49.44.48.32,1.08.02,1.61-.19s1.3-.17,1.45.4c-.55.48-1.04,1.05-1.45,1.67.84,0,1.37.92,1.82,1.67s1.28,1.54,2.03,1.13c.59.38.84,1.13,1.2,1.74s1.07,1.17,1.69.87c-.09,1.19-1.25,2.16-2.36,1.98-.49-.08-.97-.35-1.45-.24-.75.16-1.09,1.07-1.27,1.86-.63,2.73-1.07,5.89-3.28,7.46-.65-.43-.9-1.41-.56-2.13-.92.7-2.05,1.42-3.1.99-.76-.32-1.21-1.18-1.34-2.03-.07-.43-.09-.91-.41-1.2-.16-.15-.38-.21-.58-.29-1.16-.49-1.8-1.77-2.51-2.86s-1.82-2.16-3.05-1.89c.43-1.19-.4-3.23.8-3.06s-4.67-4.78-1.41-3.7c-1.33-1.3,4.73,3.73,3.95,2-.82.21-1.09-1.85-1.71-1.24-.45-1.13-1.47-1.61-1.92-2.73,1.13-.45,2.22.22,3.34.37,1.05.14,1.96-.34,2.98-.05s1.52.95,2.59.38c.71-.38,1.45-2.01,2.46-1.34Z"/>
            <path class="cls-3" d="M47.78,45.11c.42-.21.99.03,1.16.49-.23.07-.06.47-.18.68-.08.15-.28.18-.44.18-.67.03-1.33.05-2,.08-.35-.18-.31-.84.07-.96.2-.07.43.01.63-.07.22-.09.33-.33.52-.48s.55-.08.52.17"/>
            <path class="cls-3" d="M60.45,29.3c-.02-.35.44-.57.72-.38s.34.63.2.95-.42.55-.7.73-.59.33-.84.56c-.09-.15-.18-.29-.26-.44.53-.19.88-.84.76-1.42h.13Z"/>
            <path class="cls-3" d="M60.13,41.88c.12-.52.57-.93,1.07-.97s1.01.29,1.2.78c-.52.24-.99.6-1.37,1.03-.3-.27-.55-.61-.72-.98l-.18.14Z"/>
            <path class="cls-3" d="M46.18,41.77c-.22-.29-.49-.53-.79-.72-.06-.04-.13-.08-.21-.09-.22-.03-.44.2-.49.43s.04.45.15.64.25.36.32.58c-.28.06-.54.24-.71.49.17.42.67.54,1.12.63.05,0,.11.02.16,0,.08-.02.14-.09.19-.15.22-.23.49-.43.77-.57-.1-.31-.19-.62-.29-.93-.04-.14-.13-.31-.28-.29l.05-.03Z"/>
            <path class="cls-3" d="M63.01,34.72c.32-.61.68-1.25,1.27-1.56s1.46-.14,1.68.53c-.61.82-1.68,1.22-2.64.99l-.31.05Z"/>
            <path class="cls-3" d="M62.83,31.54c.27-.23.67-.27.97-.09-.22.12-.48.13-.71.04l-.25.04Z"/>
            <path class="cls-3" d="M48.84,26.82l-.13-.45c.19-.22.57-.19.72.06s.02.64-.25.72c-.09-.13-.17-.26-.26-.39l-.09.06Z"/>
            <path class="cls-3" d="M42.81,35.36c-.19-.28-.72-.05-.66.3s.62.38.72.04c-.05-.15-.09-.3-.14-.44l.08.11Z"/>
            <path class="cls-3" d="M42.33,30.71c.12-.14.35-.15.49-.02s.15.37.04.51c-.15.09-.31.18-.49.17s-.36-.15-.34-.34c.05-.24.27-.42.51-.41l-.21.09Z"/>
            <path class="cls-3" d="M56.57,48.19l.06.1"/>
            <path class="cls-3" d="M41.21,32.06l-1.18.25c-.08.02-.17.04-.23.1-.15.15,0,.45.2.5s.41-.07.59-.19.36-.26.57-.26l.06-.4Z"/>
            <path class="cls-3" d="M43.16,39.7c-.03-.27-.41-.22-.62-.07s-.55.29-.67.06c.21-.22.44-.44.73-.5s.64.13.67.44l-.11.07Z"/>
            <path class="cls-3" d="M67.6,37.76c-.5.08-1,.25-1.45.49-.16-.24-.26-.52-.3-.81.44.16.93.15,1.36-.05.1.25.21.5.31.75l.08-.39Z"/>
            <path class="cls-3" d="M55.76,49.18c-.5.19-.98.44-1.43.74-.14.1-.3.25-.25.42.02.08.09.13.15.18.34.23.82.22,1.15-.03s.5-.72.4-1.14l-.02-.18Z"/>
            <path class="cls-3" d="M58.28,28.22c-.08-.27-.14-.57,0-.81s.57-.22.6.06c-.19.25-.38.49-.58.74h-.03Z"/>
            <path class="cls-3" d="M55.31,26.58l.55-.37c.22.15.24.55.02.7s-.57-.14-.45-.39l-.12.06Z"/>
            <path class="cls-3" d="M52.6,27.52c.11-.18.4-.12.47.07s-.1.43-.3.44-.37-.18-.39-.38c-.02-.16.17-.36.27-.23l-.04.11Z"/>
          </g>
          <g class="cls-2">
            <path class="cls-3" d="M40.24,38.44c.16-.07.35-.07.51-.14.42-.19.52-.76.64-1.23s.5-1,.93-.84c.05.62.17,1.23.38,1.81.39-.6,1.23-.54,1.92-.5s1.58-.19,1.67-.91c.52-.24,1.11-.06,1.67-.03s1.25-.21,1.35-.79c.71.62.78,1.9.14,2.61-.28.31-.68.53-.84.92-.25.61.16,1.28.58,1.78,1.44,1.73,3.23,3.53,3.18,5.84-.58.26-1.32-.02-1.62-.6,0,.98-.06,2.12-.83,2.66-.56.39-1.31.31-1.92,0-.3-.15-.62-.36-.95-.27-.17.05-.31.17-.46.27-.86.59-1.97.45-2.99.44s-2.23.28-2.63,1.27c-.55-.87-2.24-1.24-1.57-2.01s-5.23,1.07-3.01-.74c-1.45.33,4.59-1.6,3.13-1.86-.25.68-1.68-.1-1.59.63-.92-.21-1.71.29-2.64.08.25-1.02,1.19-1.48,1.8-2.19.59-.68.71-1.56,1.37-2.14s1.31-.63,1.46-1.66c.1-.68-.59-1.97.31-2.38Z"/>
            <path class="cls-3" d="M46.46,51.11c.07-.4.48-.69.86-.6-.06.2.26.26.35.45.06.13-.02.28-.09.4-.3.49-.6.97-.89,1.46-.28.17-.67-.18-.58-.5.05-.18.21-.3.26-.48.05-.19-.05-.39-.06-.59s.21-.43.35-.29"/>
            <path class="cls-3" d="M42.4,34.68c-.23-.15-.15-.58.1-.69s.55.06.7.3.15.55.13.84-.07.58-.04.86c-.13,0-.27-.01-.4-.02.13-.47-.12-1.02-.54-1.21l.06-.09Z"/>
            <path class="cls-3" d="M50.22,40.82c-.27-.33-.32-.84-.11-1.22s.66-.58,1.06-.49c-.09.48-.09.98,0,1.46-.31.08-.64.1-.96.05v.19Z"/>
            <path class="cls-3" d="M43.6,50.67c-.28.02-.56.09-.83.23-.06.03-.11.06-.15.11-.12.15-.08.41.04.55s.31.18.48.19.35,0,.52.05c-.09.23-.1.5-.03.73.34.08.66-.22.92-.5.03-.03.06-.07.08-.11.02-.06,0-.14,0-.2-.04-.27-.04-.55,0-.82-.24-.08-.48-.15-.72-.23-.11-.04-.26-.06-.32.06v-.05Z"/>
            <path class="cls-3" d="M47.04,35.41c-.24-.52-.47-1.07-.39-1.64s.6-1.1,1.12-.94c.23.82-.02,1.77-.61,2.34l-.12.24Z"/>
            <path class="cls-3" d="M44.94,34.04c-.02-.3.15-.6.4-.73-.03.21-.14.41-.31.53l-.09.2Z"/>
            <path class="cls-3" d="M35.36,41.76l-.35-.12c-.05-.24.15-.5.38-.49s.41.28.34.52c-.12,0-.25,0-.37,0v.09Z"/>
            <path class="cls-3" d="M37.94,50.05c-.27,0-.37.49-.12.61s.53-.27.36-.49c-.12-.04-.23-.07-.35-.11h.11Z"/>
            <path class="cls-3" d="M34.77,48.2c-.03-.15.07-.32.21-.36s.31.06.35.21c-.02.15-.03.31-.12.43s-.26.18-.37.08c-.13-.15-.14-.39-.02-.55l-.04.19Z"/>
            <path class="cls-3" d="M52.55,46.32h.09"/>
            <path class="cls-3" d="M35.1,49.64l-.4.96c-.03.07-.06.14-.05.21.03.18.29.22.41.09s.15-.32.15-.51,0-.38.11-.53l-.23-.23Z"/>
            <path class="cls-3" d="M40.85,51.85c-.18-.11-.33.19-.34.41s-.07.53-.28.5c-.04-.25-.07-.52.03-.75s.38-.39.59-.27v.11Z"/>
            <path class="cls-3" d="M51.13,33.58c-.18.4-.31.82-.37,1.26-.23,0-.45-.06-.65-.17.31-.23.53-.59.61-.99.21.04.42.09.63.13l-.21-.24Z"/>
            <path class="cls-3" d="M52.8,47.36c-.12.44-.18.9-.2,1.36,0,.15.02.33.15.38.06.02.13,0,.18-.02.31-.13.53-.47.52-.83s-.22-.69-.54-.82l-.12-.07Z"/>
            <path class="cls-3" d="M40.7,35.71c-.21-.07-.43-.17-.51-.38s.13-.51.32-.4c.07.25.13.5.2.76v.02Z"/>
            <path class="cls-3" d="M38.26,37.05l.03-.56c.2-.08.46.09.45.31s-.36.34-.46.14l-.02.11Z"/>
            <path class="cls-3" d="M37.58,39.41c-.06-.16.11-.34.27-.3s.22.27.14.42-.29.18-.43.1c-.11-.06-.15-.29-.02-.3l.05.08Z"/>
          </g>
          <g class="cls-2">
            <path class="cls-3" d="M33.92,35.62c.09-.22.27-.38.36-.6.25-.57-.13-1.19-.4-1.75s-.35-1.4.2-1.64c.55.54,1.17,1,1.84,1.36-.12-.93.72-1.63,1.4-2.22s1.34-1.62.83-2.38c.29-.69.99-1.07,1.55-1.56s1.01-1.34.62-1.98c1.18-.06,2.29,1.08,2.26,2.33-.01.55-.21,1.11-.04,1.63.26.8,1.2,1.06,2,1.15,2.77.32,5.92.39,7.76,2.6-.34.77-1.26,1.18-2.02.9.81.91,1.67,2.06,1.39,3.27-.21.88-.99,1.49-1.81,1.75-.41.13-.88.23-1.12.61-.12.2-.15.44-.21.67-.33,1.34-1.49,2.22-2.46,3.15s-1.87,2.29-1.44,3.6c-1.23-.31-3.12.87-3.11-.47s-4.06,5.78-3.44,2.05c-1.09,1.63,3.02-5.7,1.43-4.61.32.88-1.67,1.44-.99,2.05-1.05.64-1.38,1.84-2.42,2.48-.6-1.18-.08-2.47-.09-3.71,0-1.18-.6-2.11-.45-3.26s.72-1.79.02-2.9c-.47-.73-2.17-1.32-1.64-2.52Z"/>
            <path class="cls-3" d="M50.11,41.88c-.26-.44-.11-1.09.32-1.34.1.24.47,0,.7.11.16.07.21.28.24.46.11.73.23,1.46.34,2.19-.13.41-.78.45-.95.06-.09-.22-.05-.48-.15-.69-.11-.23-.37-.32-.54-.51s-.15-.59.09-.6"/>
            <path class="cls-3" d="M32.89,30.1c-.34.07-.62-.41-.47-.74s.57-.45.9-.35.6.38.81.67.4.61.67.85c-.13.12-.26.23-.4.35-.26-.56-.94-.85-1.49-.64l-.02-.14Z"/>
            <path class="cls-3" d="M45.28,28.75c-.52-.06-.99-.5-1.09-1.05s.15-1.15.6-1.43c.31.53.72,1,1.2,1.37-.23.37-.52.68-.87.93l.16.18Z"/>
            <path class="cls-3" d="M47.05,44.09c-.25.28-.46.6-.59.97-.03.08-.06.16-.06.24,0,.25.26.46.49.48s.44-.11.61-.25.32-.32.52-.43c.1.3.31.56.57.72.39-.24.44-.81.46-1.31,0-.06,0-.12-.02-.18-.03-.08-.1-.14-.17-.19-.26-.21-.49-.48-.66-.77-.29.15-.58.3-.87.44-.13.07-.29.18-.25.35l-.04-.06Z"/>
            <path class="cls-3" d="M37.87,26.55c-.64-.27-1.32-.58-1.71-1.19s-.33-1.59.29-1.91c.89.56,1.43,1.68,1.33,2.77l.09.34Z"/>
            <path class="cls-3" d="M34.77,27.18c-.26-.26-.35-.7-.22-1.05.15.22.2.51.14.78l.08.27Z"/>
            <path class="cls-3" d="M32.02,43.19l-.43.2c-.24-.17-.27-.6-.04-.8s.62-.11.74.17c-.12.11-.23.22-.35.34l.07.09Z"/>
            <path class="cls-3" d="M41.21,48.66c-.25.25.05.79.38.69s.29-.74-.05-.79c-.14.07-.28.14-.42.21l.09-.1Z"/>
            <path class="cls-3" d="M36.71,49.81c-.15-.12-.19-.37-.09-.53s.34-.22.5-.11c.11.16.22.32.24.51s-.1.41-.29.42c-.24-.02-.45-.24-.47-.5l.11.21Z"/>
            <path class="cls-3" d="M51.95,31.81l.09-.08"/>
            <path class="cls-3" d="M38.19,50.87l.41,1.27c.03.09.06.18.13.24.17.14.44-.06.46-.29s-.12-.44-.27-.62-.3-.36-.33-.59h-.4Z"/>
            <path class="cls-3" d="M45.42,47.7c-.26.07-.16.48.02.69s.36.56.15.72c-.24-.2-.49-.43-.59-.74s.04-.72.34-.79l.08.11Z"/>
            <path class="cls-3" d="M40.23,21.09c.15.54.38,1.06.68,1.53-.21.21-.47.36-.75.44.1-.5.02-1.05-.23-1.49.23-.15.47-.3.7-.45l-.39-.03Z"/>
            <path class="cls-3" d="M53.03,32.57c.25.52.56,1.02.92,1.47.11.14.29.3.45.22.07-.04.12-.11.16-.19.18-.41.11-.93-.18-1.26s-.78-.45-1.17-.28l-.17.05Z"/>
            <path class="cls-3" d="M32.12,32.62c-.25.12-.54.24-.79.11s-.29-.6-.03-.67c.27.18.54.36.8.53v.03Z"/>
            <path class="cls-3" d="M30.92,36.11l-.43-.55c.12-.26.51-.34.68-.12s-.06.64-.32.55l.07.12Z"/>
            <path class="cls-3" d="M32.2,38.96c-.19-.09-.18-.43,0-.53s.43.05.47.27-.12.43-.32.49c-.16.04-.37-.14-.26-.26l.11.03Z"/>
          </g>
          <g class="cls-2">
            <path class="cls-1" d="M52.82,35.51c.26.11.47.34.72.45.68.3,1.4-.23,2.03-.62s1.63-.53,1.94.17c-.61.75-1.12,1.59-1.51,2.49,1.08-.21,1.96.86,2.69,1.72s1.97,1.67,2.84.97c.83.35,1.31,1.25,1.91,1.95s1.62,1.26,2.36.71c.14,1.55-1.15,3.07-2.62,3.1-.65.01-1.32-.22-1.92.03-.93.38-1.18,1.63-1.25,2.69-.23,3.66-.14,7.82-2.65,10.36-.92-.4-1.46-1.6-1.17-2.61-1.03,1.11-2.33,2.31-3.77,2-1.04-.23-1.8-1.23-2.15-2.29-.18-.53-.31-1.15-.77-1.44-.24-.15-.53-.18-.8-.24-1.59-.36-2.69-1.85-3.83-3.08s-2.8-2.34-4.31-1.71c.3-1.64-1.19-4.06.38-4.13s-7.01-5.03-2.6-4.43c-1.98-1.35,6.86,3.68,5.5,1.64-1.01.47-1.79-2.12-2.46-1.19-.81-1.34-2.23-1.72-3.04-3.06,1.36-.85,2.9-.24,4.36-.31,1.38-.06,2.45-.9,3.81-.77s2.15.86,3.41-.12c.84-.65,1.44-2.92,2.88-2.3Z"/>
            <path class="cls-1" d="M46.31,57.18c.5-.37,1.28-.2,1.6.35-.28.15.01.61-.09.92-.07.21-.32.29-.53.34-.85.19-1.7.38-2.56.57-.49-.15-.57-1-.12-1.25.25-.13.56-.09.8-.24.26-.16.36-.51.57-.74s.69-.23.71.09"/>
            <path class="cls-1" d="M59.26,33.87c-.11-.45.45-.84.85-.66s.56.73.46,1.17-.42.8-.75,1.1-.69.56-.97.92c-.14-.17-.29-.34-.43-.5.64-.37.95-1.28.68-2l.17-.03Z"/>
            <path class="cls-1" d="M61.5,50.11c.04-.69.54-1.32,1.17-1.5s1.36.13,1.71.72c-.61.44-1.14,1-1.55,1.65-.44-.28-.83-.65-1.14-1.09l-.2.22Z"/>
            <path class="cls-1" d="M43.56,53.26c-.34-.32-.74-.57-1.17-.73-.09-.03-.19-.07-.29-.06-.29.02-.53.36-.54.67s.15.57.33.79.4.41.53.67c-.34.15-.64.44-.81.79.3.5.98.54,1.57.54.07,0,.14,0,.21-.03.09-.05.16-.14.22-.23.24-.35.54-.67.87-.91-.19-.37-.38-.75-.57-1.12-.09-.17-.23-.37-.42-.31l.06-.05Z"/>
            <path class="cls-1" d="M63.7,40.23c.28-.86.62-1.77,1.31-2.31s1.85-.52,2.27.28c-.61,1.2-1.9,1.97-3.18,1.9l-.39.14Z"/>
            <path class="cls-1" d="M62.79,36.19c.29-.36.8-.5,1.22-.34-.26.2-.59.29-.91.22l-.32.12Z"/>
            <path class="cls-1" d="M43.82,33.42l-.26-.55c.19-.33.7-.38.94-.1s.16.81-.17.99c-.14-.15-.28-.29-.41-.44l-.1.1Z"/>
            <path class="cls-1" d="M37.88,45.81c-.31-.32-.93.11-.79.54s.88.34.93-.11c-.09-.18-.18-.36-.27-.54l.13.12Z"/>
            <path class="cls-1" d="M36.28,39.95c.13-.21.42-.28.62-.15s.28.44.16.65c-.18.15-.37.31-.59.34s-.49-.11-.51-.35c.01-.32.26-.61.56-.65l-.25.16Z"/>
            <path class="cls-1" d="M58.26,59.06l.1.11"/>
            <path class="cls-1" d="M35.12,41.95l-1.47.6c-.1.04-.21.09-.28.18-.16.23.09.58.36.59s.51-.19.71-.38.41-.42.68-.46v-.53Z"/>
            <path class="cls-1" d="M39.23,51.31c-.09-.34-.58-.18-.82.06s-.64.51-.84.23c.22-.33.47-.67.84-.81s.85.01.95.4l-.13.12Z"/>
            <path class="cls-1" d="M70.24,43.06c-.63.22-1.23.55-1.76.97-.26-.27-.45-.6-.55-.96.6.11,1.23-.03,1.74-.38.19.3.38.6.56.9l.02-.52Z"/>
            <path class="cls-1" d="M57.42,60.52c-.6.36-1.17.79-1.68,1.29-.16.16-.33.39-.23.6.05.09.14.15.23.19.49.22,1.1.1,1.47-.3s.49-1.05.27-1.56l-.06-.22Z"/>
            <path class="cls-1" d="M56.25,32.99c-.16-.32-.31-.7-.17-1.04s.69-.42.79-.07c-.19.36-.39.72-.58,1.09l-.03.02Z"/>
            <path class="cls-1" d="M52.09,31.59l.63-.6c.31.15.43.65.17.89s-.76-.05-.66-.39l-.14.1Z"/>
            <path class="cls-1" d="M48.8,33.43c.1-.25.49-.25.62-.02s-.04.57-.29.63-.52-.14-.59-.4c-.06-.2.14-.5.29-.36l-.03.15Z"/>
          </g>
          <g class="cls-2">
            <path class="cls-1" d="M41.59,34.72c.19-.03.39.03.58,0,.5-.07.76-.65,1.01-1.12s.8-.92,1.22-.61c-.12.67-.14,1.36-.08,2.04.58-.52,1.45-.21,2.17.04s1.73.27,2.01-.47c.61-.1,1.19.26,1.78.46s1.38.15,1.64-.44c.59.87.32,2.25-.54,2.81-.38.25-.86.36-1.14.72-.43.57-.17,1.41.14,2.06,1.07,2.27,2.49,4.72,1.83,7.15-.68.1-1.4-.42-1.56-1.13-.25,1.04-.63,2.24-1.59,2.58-.7.25-1.48-.07-2.04-.57-.28-.25-.57-.57-.94-.57-.19,0-.38.09-.56.15-1.07.37-2.21-.11-3.3-.43s-2.44-.37-3.13.57c-.36-1.09-2.05-1.98-1.13-2.6s-5.84-.42-3-1.68c-1.62-.08,5.3-.33,3.82-1.05-.45.65-1.76-.61-1.86.2-.93-.5-1.9-.2-2.82-.71.53-1.01,1.65-1.21,2.5-1.79.8-.55,1.16-1.44,2.02-1.86s1.56-.28,1.99-1.33c.28-.7-.1-2.27.96-2.43Z"/>
            <path class="cls-1" d="M44.83,50.04c.18-.4.7-.59,1.07-.38-.12.19.21.36.25.58.03.16-.09.29-.2.4-.45.43-.89.85-1.34,1.28-.34.09-.67-.39-.48-.7.1-.17.31-.26.4-.44.1-.19.05-.43.1-.65s.34-.39.45-.2"/>
            <path class="cls-1" d="M44.89,31.37c-.21-.23,0-.67.29-.71s.57.23.66.53.01.63-.08.93-.23.59-.27.91c-.14-.05-.28-.09-.42-.14.26-.46.15-1.12-.25-1.44l.09-.08Z"/>
            <path class="cls-1" d="M51.57,40.23c-.2-.43-.11-.99.21-1.32s.85-.42,1.25-.2c-.22.48-.35,1.02-.38,1.55-.36,0-.71-.08-1.04-.23l-.05.21Z"/>
            <path class="cls-1" d="M41.9,48.72c-.31-.07-.63-.07-.94,0-.07.01-.13.03-.19.07-.17.12-.2.41-.1.6s.28.29.46.35.37.1.54.2c-.16.21-.24.5-.22.77.34.18.76-.04,1.11-.25.04-.03.09-.05.12-.1.04-.06.05-.14.05-.22.03-.3.1-.59.22-.87-.24-.15-.47-.31-.71-.46-.11-.07-.26-.14-.35-.03l.02-.05Z"/>
            <path class="cls-1" d="M49.63,33.53c-.11-.62-.21-1.28.02-1.86s.93-.99,1.44-.67c.03.94-.49,1.87-1.28,2.3l-.19.23Z"/>
            <path class="cls-1" d="M47.76,31.45c.06-.32.31-.59.62-.65-.09.22-.26.39-.47.47l-.15.19Z"/>
            <path class="cls-1" d="M35.53,36.79l-.34-.23c0-.27.29-.48.53-.41s.36.43.23.65c-.13-.04-.26-.07-.39-.11l-.03.1Z"/>
            <path class="cls-1" d="M36.06,46.37c-.29-.08-.52.41-.29.61s.64-.12.52-.41c-.11-.07-.23-.15-.34-.22l.11.02Z"/>
            <path class="cls-1" d="M33.18,43.46c0-.17.16-.32.32-.32s.31.16.31.33c-.06.16-.12.32-.24.42s-.33.11-.42-.02c-.1-.2-.04-.46.12-.6l-.09.19Z"/>
            <path class="cls-1" d="M52.58,46.76l.1.03"/>
            <path class="cls-1" d="M33.15,45.08l-.68.9c-.05.06-.1.13-.1.21-.02.2.25.31.41.22s.24-.3.3-.49.11-.4.25-.53l-.18-.31Z"/>
            <path class="cls-1" d="M38.67,49.15c-.16-.17-.4.1-.47.34s-.22.54-.43.45c.02-.28.06-.58.23-.79s.51-.3.7-.11l-.04.12Z"/>
            <path class="cls-1" d="M54.46,32.81c-.3.37-.55.78-.73,1.23-.24-.06-.46-.19-.65-.37.39-.15.72-.47.91-.87.21.11.42.22.63.33l-.16-.32Z"/>
            <path class="cls-1" d="M52.56,47.95c-.24.44-.44.9-.58,1.39-.05.15-.07.36.06.44.06.04.13.04.2.03.36-.05.69-.35.78-.72s-.05-.8-.35-1.03l-.11-.11Z"/>
            <path class="cls-1" d="M42.81,31.95c-.2-.13-.41-.31-.44-.56s.28-.5.45-.33c0,.29,0,.58,0,.86v.02Z"/>
            <path class="cls-1" d="M39.86,32.65l.18-.59c.23-.03.47.23.4.47s-.47.25-.52,0l-.05.11Z"/>
            <path class="cls-1" d="M38.51,34.96c-.02-.19.21-.33.36-.24s.16.36.03.48-.35.11-.48-.02c-.1-.1-.08-.35.06-.32l.03.1Z"/>
          </g>
        </g>
        <g>
          <g class="cls-2">
            <path class="cls-3" d="M35.35,47.19c.1-.28.3-.5.4-.78.25-.73-.27-1.47-.66-2.13s-.56-1.71.09-2.06c.73.61,1.54,1.12,2.41,1.5-.23-1.14.74-2.1,1.53-2.91s1.51-2.15.81-3.04c.3-.89,1.13-1.43,1.77-2.09s1.13-1.76.59-2.52c1.46-.2,2.94,1.1,3.02,2.65.04.68-.16,1.4.1,2.03.39.97,1.59,1.19,2.58,1.22,3.47.11,7.39-.14,9.88,2.41-.35.99-1.45,1.6-2.42,1.33,1.09,1.05,2.27,2.38,2.03,3.91-.17,1.11-1.09,1.95-2.08,2.36-.5.21-1.08.38-1.33.87-.13.26-.15.57-.2.86-.28,1.7-1.65,2.91-2.76,4.16s-2.11,3.04-1.45,4.62c-1.56-.26-3.79,1.41-3.91-.25s-4.49,7.6-4.08,2.91c-1.21,2.14,3.22-7.39,1.35-5.88.48,1.05-1.93,1.97-1.03,2.64-1.24.91-1.54,2.42-2.78,3.33-.85-1.41-.34-3.06-.46-4.6-.11-1.46-.95-2.56-.87-4.01s.73-2.3-.24-3.6c-.65-.86-2.81-1.41-2.28-2.96Z"/>
            <path class="cls-3" d="M56.05,53.26c-.37-.51-.23-1.34.27-1.7.15.29.58-.04.87.06.21.07.29.33.34.55.21.89.42,1.79.63,2.68-.12.52-.93.64-1.17.17-.14-.26-.1-.59-.25-.84-.16-.27-.49-.36-.72-.57s-.24-.72.06-.75"/>
            <path class="cls-3" d="M33.55,40.44c-.42.13-.81-.44-.65-.87s.66-.62,1.09-.53.77.41,1.07.75.56.71.91.99c-.15.16-.31.32-.46.48-.37-.67-1.25-.96-1.92-.64l-.04-.18Z"/>
            <path class="cls-3" d="M48.81,37.47c-.65-.02-1.27-.52-1.46-1.19s.07-1.44.61-1.83c.43.63.99,1.17,1.62,1.57-.25.48-.59.9-.99,1.24l.22.2Z"/>
            <path class="cls-3" d="M52.45,56.32c-.29.37-.51.8-.65,1.26-.03.1-.06.2-.05.31.03.31.36.55.65.54s.53-.18.73-.38.37-.43.61-.59c.15.36.44.66.78.83.46-.34.48-1.05.45-1.68,0-.07,0-.15-.04-.22-.05-.1-.14-.16-.23-.22-.34-.24-.65-.54-.9-.89-.35.21-.69.43-1.04.64-.16.1-.34.25-.28.46l-.05-.07Z"/>
            <path class="cls-3" d="M39.4,35.51c-.82-.27-1.69-.59-2.23-1.3s-.56-1.94.18-2.41c1.15.6,1.93,1.94,1.91,3.3l.14.41Z"/>
            <path class="cls-3" d="M35.61,36.62c-.35-.3-.5-.83-.37-1.28.2.26.29.62.25.95l.12.33Z"/>
            <path class="cls-3" d="M33.7,56.79l-.51.3c-.32-.19-.39-.72-.13-.99s.76-.2.94.14c-.13.15-.27.3-.4.45l.1.1Z"/>
            <path class="cls-3" d="M45.63,62.61c-.29.34.14.98.54.81s.29-.94-.14-.98c-.17.1-.33.2-.5.31l.11-.14Z"/>
            <path class="cls-3" d="M40.15,64.52c-.2-.13-.28-.44-.16-.65s.4-.31.61-.19c.15.18.3.38.34.61s-.09.52-.31.55c-.3,0-.58-.26-.64-.57l.16.25Z"/>
            <path class="cls-3" d="M57.38,40.56l.1-.11"/>
            <path class="cls-3" d="M42.08,65.67l.62,1.53c.04.11.09.22.18.28.23.16.55-.12.55-.41s-.19-.53-.39-.74-.41-.42-.46-.7l-.5.03Z"/>
            <path class="cls-3" d="M50.76,60.98c-.31.11-.15.62.09.86s.5.66.25.88c-.32-.22-.65-.48-.8-.85s-.02-.9.35-1.02l.11.13Z"/>
            <path class="cls-3" d="M41.83,28.49c.24.66.57,1.28.98,1.83-.24.28-.55.5-.89.62.08-.63-.07-1.3-.42-1.82.27-.21.55-.42.82-.63h-.49Z"/>
            <path class="cls-3" d="M58.79,41.39c.36.63.79,1.21,1.28,1.73.15.17.38.34.58.22.09-.05.14-.15.18-.25.19-.52.05-1.16-.34-1.54s-1.01-.48-1.48-.23l-.21.07Z"/>
            <path class="cls-3" d="M32.84,43.65c-.3.18-.65.35-.97.22s-.42-.72-.09-.83c.35.19.7.39,1.05.58l.02.03Z"/>
            <path class="cls-3" d="M31.67,48.11l-.59-.64c.13-.33.6-.48.83-.22s-.02.8-.35.72l.1.14Z"/>
            <path class="cls-3" d="M33.53,51.52c-.24-.09-.26-.51-.04-.65s.54.02.61.28-.11.55-.36.64c-.19.07-.47-.13-.35-.3l.14.03Z"/>
          </g>
          <g class="cls-2">
            <path class="cls-3" d="M43.22,28.07c.21-.06.43-.02.64-.08.54-.15.75-.83.97-1.37s.76-1.12,1.26-.85c-.04.76.01,1.52.17,2.26.57-.66,1.57-.44,2.4-.27s1.94.06,2.16-.8c.66-.19,1.35.12,2.02.26s1.54-.03,1.75-.72c.76.88.64,2.44-.24,3.18-.39.32-.9.51-1.16.96-.4.69,0,1.58.42,2.25,1.46,2.35,3.34,4.85,2.92,7.62-.74.21-1.59-.26-1.86-1.02-.14,1.18-.41,2.56-1.43,3.07-.74.37-1.64.13-2.32-.34-.34-.24-.7-.55-1.1-.5-.21.03-.4.15-.6.25-1.13.56-2.45.19-3.69,0s-2.73-.06-3.38,1.07c-.53-1.15-2.51-1.9-1.57-2.71s-6.49.36-3.52-1.43c-1.8.14,5.8-1.12,4.08-1.69-.41.78-2.02-.42-2.02.48-1.08-.42-2.11.05-3.2-.38.46-1.18,1.67-1.57,2.53-2.33.82-.72,1.1-1.75,1.99-2.34s1.69-.53,2.03-1.75c.22-.81-.4-2.49.75-2.82Z"/>
            <path class="cls-3" d="M48.72,44.5c.14-.47.69-.75,1.13-.57-.1.23.28.37.35.61.05.17-.07.33-.18.47-.44.53-.87,1.07-1.31,1.6-.36.15-.79-.33-.62-.71.09-.2.3-.33.39-.54.09-.23,0-.48.02-.73s.32-.48.47-.29"/>
            <path class="cls-3" d="M46.43,23.91c-.26-.22-.09-.73.23-.82s.66.17.79.49.1.7.03,1.04-.18.69-.19,1.04c-.16-.03-.32-.06-.49-.1.23-.54.02-1.25-.46-1.55l.09-.1Z"/>
            <path class="cls-3" d="M54.91,32.73c-.28-.44-.25-1.07.06-1.49s.89-.58,1.36-.4c-.18.57-.26,1.17-.22,1.77-.39.05-.79,0-1.17-.11l-.02.23Z"/>
            <path class="cls-3" d="M45.32,43.45c-.35-.03-.7.01-1.04.13-.07.02-.14.05-.2.1-.17.15-.17.48-.04.67s.34.28.55.32.42.06.62.15c-.15.26-.2.58-.15.88.4.15.83-.15,1.2-.44.04-.03.09-.07.11-.12.04-.07.03-.16.03-.25,0-.33.04-.67.13-.99-.28-.14-.56-.27-.84-.41-.13-.06-.3-.11-.39.02l.02-.06Z"/>
            <path class="cls-3" d="M51.93,25.62c-.2-.67-.4-1.38-.21-2.05s.9-1.22,1.51-.94c.15,1.03-.3,2.13-1.11,2.72l-.18.27Z"/>
            <path class="cls-3" d="M49.6,23.59c.02-.36.27-.7.6-.81-.07.25-.24.47-.46.58l-.14.23Z"/>
            <path class="cls-3" d="M36.8,31.21l-.4-.21c-.03-.3.26-.57.53-.52s.45.42.33.68c-.15-.02-.3-.04-.45-.07l-.02.11Z"/>
            <path class="cls-3" d="M38.59,41.69c-.33-.04-.52.52-.25.71s.69-.23.52-.53c-.13-.07-.27-.13-.4-.2h.13Z"/>
            <path class="cls-3" d="M35.05,38.89c-.01-.19.14-.37.32-.39s.36.13.38.32c-.04.18-.09.37-.21.5s-.35.17-.47.03c-.13-.2-.11-.5.06-.67l-.08.22Z"/>
            <path class="cls-3" d="M56.84,39.79l.11.02"/>
            <path class="cls-3" d="M35.22,40.68l-.63,1.09c-.04.08-.09.16-.09.25,0,.22.31.31.48.18s.23-.36.27-.58.07-.45.21-.62l-.24-.32Z"/>
            <path class="cls-3" d="M41.82,44.38c-.2-.16-.43.17-.47.44s-.17.62-.41.55c0-.31,0-.64.15-.91s.52-.41.76-.22l-.03.13Z"/>
            <path class="cls-3" d="M57.16,24.14c-.29.45-.51.94-.65,1.46-.27-.04-.54-.15-.76-.32.41-.23.74-.62.89-1.08.25.09.49.18.74.27l-.22-.33Z"/>
            <path class="cls-3" d="M56.97,41.1c-.21.52-.37,1.06-.46,1.61-.03.18-.03.4.12.48.07.04.15.03.23,0,.39-.1.71-.48.77-.91s-.16-.88-.52-1.09l-.14-.1Z"/>
            <path class="cls-3" d="M44.21,24.85c-.24-.12-.49-.28-.56-.55s.24-.6.45-.43c.04.32.08.63.12.95v.03Z"/>
            <path class="cls-3" d="M41.05,26.03l.12-.68c.25-.06.55.19.5.46s-.48.34-.58.08l-.04.13Z"/>
            <path class="cls-3" d="M39.84,28.77c-.05-.2.19-.4.37-.31s.23.37.1.53-.38.17-.53.04c-.12-.1-.13-.37.02-.36l.04.11Z"/>
          </g>
          <g class="cls-2">
            <path class="cls-3" d="M38.97,45.79c.06-.17.19-.32.25-.49.16-.46-.17-.92-.41-1.34s-.35-1.07.06-1.29c.46.39.97.7,1.51.94-.15-.71.46-1.32.96-1.83s.95-1.35.51-1.91c.19-.56.71-.9,1.11-1.32s.71-1.11.37-1.58c.92-.13,1.85.69,1.9,1.67.02.43-.1.88.06,1.28.25.61,1,.75,1.62.76,2.18.07,4.64-.09,6.21,1.52-.22.62-.91,1.01-1.52.84.68.66,1.43,1.49,1.27,2.46-.11.7-.68,1.23-1.31,1.48-.31.13-.68.24-.84.55-.08.16-.09.36-.12.54-.18,1.07-1.03,1.83-1.74,2.62s-1.32,1.91-.91,2.9c-.98-.16-2.38.89-2.46-.16s-2.82,4.78-2.56,1.83c-.76,1.34,2.02-4.64.85-3.69.3.66-1.21,1.24-.65,1.66-.78.57-.97,1.52-1.74,2.09-.54-.88-.21-1.92-.29-2.89-.07-.92-.59-1.61-.54-2.52s.46-1.45-.15-2.26c-.41-.54-1.77-.89-1.43-1.86Z"/>
            <path class="cls-3" d="M51.97,49.61c-.23-.32-.15-.84.17-1.07.09.18.36-.02.55.04.13.04.18.2.21.34.13.56.27,1.12.4,1.69-.07.33-.58.4-.74.11-.09-.16-.06-.37-.16-.53-.1-.17-.31-.23-.45-.36s-.15-.45.04-.47"/>
            <path class="cls-3" d="M37.84,41.55c-.26.08-.51-.28-.41-.55s.42-.39.68-.33.49.26.67.47.35.45.57.62c-.1.1-.19.2-.29.3-.24-.42-.78-.6-1.2-.4l-.02-.11Z"/>
            <path class="cls-3" d="M47.42,39.68c-.41-.01-.8-.33-.92-.74s.05-.9.39-1.15c.27.4.62.73,1.02.99-.16.3-.37.57-.62.78l.14.13Z"/>
            <path class="cls-3" d="M49.71,51.53c-.18.23-.32.5-.41.79-.02.06-.03.13-.03.19.02.19.23.34.41.34s.34-.11.46-.24.23-.27.38-.37c.1.22.28.42.49.52.29-.21.3-.66.29-1.05,0-.05,0-.1-.02-.14-.03-.06-.09-.1-.14-.14-.21-.15-.41-.34-.56-.56-.22.13-.44.27-.65.4-.1.06-.21.16-.17.29l-.03-.04Z"/>
            <path class="cls-3" d="M41.51,38.45c-.52-.17-1.06-.37-1.4-.82s-.35-1.22.11-1.51c.72.38,1.21,1.22,1.2,2.07l.09.26Z"/>
            <path class="cls-3" d="M39.13,39.15c-.22-.19-.31-.52-.23-.8.13.16.18.39.15.6l.08.21Z"/>
            <path class="cls-3" d="M37.93,51.82l-.32.19c-.2-.12-.24-.45-.08-.62s.48-.12.59.09c-.08.1-.17.19-.25.29l.06.07Z"/>
            <path class="cls-3" d="M45.43,55.48c-.18.21.09.62.34.51s.18-.59-.09-.62c-.1.06-.21.13-.31.19l.07-.09Z"/>
            <path class="cls-3" d="M41.99,56.67c-.13-.08-.17-.27-.1-.41s.25-.19.38-.12c.09.11.19.24.22.38s-.06.33-.2.35c-.19,0-.37-.16-.4-.36l.1.16Z"/>
            <path class="cls-3" d="M52.81,41.63l.06-.07"/>
            <path class="cls-3" d="M43.2,57.4l.39.96c.03.07.06.14.11.18.14.1.34-.07.34-.26s-.12-.34-.24-.46-.26-.26-.29-.44l-.32.02Z"/>
            <path class="cls-3" d="M48.65,54.45c-.2.07-.09.39.05.54s.31.41.16.55c-.2-.14-.41-.3-.5-.54s-.01-.56.22-.64l.07.08Z"/>
            <path class="cls-3" d="M43.04,34.04c.15.41.36.8.62,1.15-.15.18-.35.31-.56.39.05-.4-.05-.82-.27-1.14.17-.13.35-.26.52-.39h-.31Z"/>
            <path class="cls-3" d="M53.7,42.15c.23.39.5.76.8,1.09.1.1.24.21.36.14.06-.03.09-.1.11-.16.12-.33.03-.73-.21-.97s-.63-.3-.93-.14l-.13.05Z"/>
            <path class="cls-3" d="M37.39,43.57c-.19.11-.41.22-.61.14s-.26-.45-.06-.52c.22.12.44.24.66.36v.02Z"/>
            <path class="cls-3" d="M36.65,46.37l-.37-.4c.08-.21.38-.3.52-.14s-.01.51-.22.45l.07.09Z"/>
            <path class="cls-3" d="M37.82,48.51c-.15-.06-.16-.32-.02-.41s.34.01.38.18-.07.35-.22.4c-.12.04-.3-.08-.22-.19l.09.02Z"/>
          </g>
          <g class="cls-2">
            <path class="cls-3" d="M32.7,48.75c-.09-.22-.08-.47-.17-.69-.22-.58-.91-.71-1.48-.88s-1.21-.69-1-1.27c.75-.06,1.49-.22,2.2-.49-.72-.54-.64-1.67-.58-2.6s-.21-2.14-1.08-2.27c-.28-.7-.06-1.5-.02-2.26s-.24-1.69-.94-1.83c.76-.95,2.31-1.03,3.15-.16.37.38.63.92,1.1,1.15.73.35,1.55-.21,2.15-.76,2.11-1.92,4.31-4.32,7.09-4.23.3.78-.04,1.78-.75,2.18,1.18,0,2.56.11,3.21,1.16.47.76.35,1.78-.02,2.59-.19.41-.45.84-.34,1.28.05.23.2.42.32.62.7,1.17.52,2.67.49,4.05s.31,3.01,1.51,3.57c-1.05.74-1.52,3.01-2.45,2.09s1.23,7.08-.93,4.07c.38,1.96-1.88-6.23-2.21-4.26.82.35-.14,2.27.74,2.16-.27,1.25.33,2.32.06,3.57-1.22-.34-1.77-1.62-2.63-2.47-.81-.8-1.87-.97-2.56-1.88s-.75-1.78-1.99-1.99c-.82-.14-2.39.78-2.86-.45Z"/>
            <path class="cls-3" d="M48.08,40.49c-.48-.1-.83-.66-.71-1.16.24.08.32-.35.55-.46.16-.08.34.03.48.13.58.41,1.17.82,1.75,1.23.2.38-.22.91-.61.77-.21-.08-.36-.29-.58-.35-.23-.07-.48.07-.72.07s-.51-.29-.35-.48"/>
            <path class="cls-3" d="M28.19,45.79c-.18.32-.71.2-.83-.14s.07-.75.38-.94.67-.2,1.02-.17.7.1,1.04.07c0,.18-.02.36-.03.55-.56-.18-1.23.15-1.46.72l-.11-.08Z"/>
            <path class="cls-3" d="M35.7,35.28c-.4.36-1.02.42-1.47.13s-.69-.9-.57-1.44c.58.13,1.18.13,1.76,0,.1.43.12.87.05,1.3h.23Z"/>
            <path class="cls-3" d="M47.52,44.36c.02.38.11.76.26,1.12.03.07.07.15.13.21.17.17.49.12.66-.05s.23-.41.24-.65,0-.47.06-.7c.27.12.6.14.88.04.1-.46-.26-.9-.59-1.25-.04-.04-.08-.09-.14-.11-.08-.03-.17-.01-.25,0-.32.05-.66.05-.99-.01-.1.33-.19.65-.29.98-.04.15-.07.35.07.43h-.06Z"/>
            <path class="cls-3" d="M29.13,39.51c-.63.31-1.3.62-1.99.51s-1.32-.83-1.13-1.53c.99-.31,2.13.04,2.82.86l.29.16Z"/>
            <path class="cls-3" d="M27.45,42.34c-.36.02-.72-.2-.87-.55.25.04.49.2.63.42l.24.13Z"/>
            <path class="cls-3" d="M36.65,55.38l-.15.47c-.29.07-.6-.21-.58-.52s.35-.55.63-.46c0,.17,0,.33,0,.5h.11Z"/>
            <path class="cls-3" d="M46.69,52c0,.37.58.5.73.17s-.31-.72-.59-.5c-.05.16-.09.31-.14.47v-.14Z"/>
            <path class="cls-3" d="M44.42,56.27c-.18.04-.39-.1-.43-.29s.08-.41.26-.46c.18.02.37.05.52.17s.21.36.1.51c-.18.17-.48.18-.67.03l.22.06Z"/>
            <path class="cls-3" d="M42.36,32.2v-.12"/>
            <path class="cls-3" d="M46.16,55.84l1.15.55c.08.04.17.08.25.06.22-.03.26-.38.12-.56s-.39-.2-.61-.21-.46-.01-.63-.15l-.28.31Z"/>
            <path class="cls-3" d="M48.9,48.08c-.13.24.23.45.49.46s.63.1.6.38c-.3.05-.63.09-.91-.05s-.47-.52-.32-.8h.13Z"/>
            <path class="cls-3" d="M26.97,33.96c.48.25.99.43,1.52.52,0,.31-.07.61-.21.88-.28-.42-.71-.73-1.18-.84.06-.28.11-.56.17-.85l-.29.28Z"/>
            <path class="cls-3" d="M43.63,31.88c.53.16,1.09.26,1.64.29.18,0,.4-.02.46-.2.03-.08,0-.17-.02-.25-.16-.42-.57-.72-.99-.72s-.84.29-1,.71l-.08.16Z"/>
            <path class="cls-3" d="M29.41,48.1c-.08.28-.21.58-.46.69s-.62-.18-.48-.44c.31-.09.61-.17.92-.26h.03Z"/>
            <path class="cls-3" d="M31,51.41l-.68-.04c-.1-.27.11-.63.38-.61s.4.49.16.62l.14.03Z"/>
            <path class="cls-3" d="M33.84,52.36c-.19.08-.42-.15-.36-.36s.33-.3.5-.18.22.39.12.58c-.08.15-.35.19-.36.02l.1-.06Z"/>
          </g>
          <g class="cls-2">
            <path class="cls-1" d="M45.52,34.05c.25-.12.55-.13.8-.25.67-.32.79-1.24.96-1.99s.75-1.62,1.44-1.39c.1.98.34,1.95.69,2.86.6-.98,1.93-.93,3.02-.91s2.5-.38,2.61-1.54c.81-.4,1.76-.16,2.65-.15s1.98-.4,2.1-1.34c1.16.95,1.34,2.98.36,4.14-.43.51-1.05.87-1.29,1.51-.37.98.33,2.03,1.01,2.8,2.37,2.68,5.31,5.44,5.35,9.11-.91.44-2.1.04-2.6-.87.06,1.55,0,3.38-1.19,4.28-.87.65-2.07.56-3.05.11-.49-.23-1.01-.54-1.52-.38-.27.08-.49.29-.72.46-1.34.99-3.11.82-4.74.87s-3.53.57-4.12,2.17c-.93-1.35-3.62-1.85-2.59-3.11s-8.26,1.99-4.83-1.01c-2.28.61,7.22-2.8,4.89-3.14-.37,1.1-2.68-.06-2.5,1.09-1.48-.29-2.71.56-4.19.27.34-1.63,1.81-2.41,2.76-3.59.9-1.11,1.05-2.51,2.07-3.48s2.06-1.08,2.24-2.72c.12-1.09-1.04-3.11.38-3.8Z"/>
            <path class="cls-1" d="M56.06,53.86c.09-.64.73-1.12,1.33-1-.09.32.43.41.58.7.1.2-.02.44-.13.64-.45.79-.9,1.58-1.35,2.37-.43.28-1.08-.24-.94-.76.08-.28.32-.49.38-.78.06-.31-.11-.62-.12-.94s.31-.69.54-.48"/>
            <path class="cls-1" d="M48.78,27.94c-.38-.22-.28-.92.12-1.11s.89.06,1.12.45.27.87.25,1.33-.08.92-.02,1.38c-.21,0-.43,0-.64,0,.18-.75-.24-1.61-.92-1.89l.09-.15Z"/>
            <path class="cls-1" d="M61.53,37.28c-.45-.5-.55-1.32-.23-1.93s1.02-.96,1.66-.83c-.12.77-.09,1.56.09,2.32-.49.15-1.02.2-1.53.13l.02.31Z"/>
            <path class="cls-1" d="M51.47,53.32c-.45.04-.89.18-1.3.41-.09.05-.17.1-.24.18-.19.24-.11.66.09.87s.5.27.77.28.55-.03.82.04c-.13.37-.13.8,0,1.17.55.1,1.04-.39,1.44-.84.05-.05.1-.11.12-.19.03-.1,0-.22-.01-.33-.08-.42-.09-.87-.04-1.3-.39-.11-.78-.22-1.16-.33-.18-.05-.41-.08-.5.11v-.08Z"/>
            <path class="cls-1" d="M56.2,28.85c-.4-.81-.8-1.68-.71-2.59s.9-1.79,1.74-1.56c.41,1.29.06,2.81-.86,3.76l-.17.4Z"/>
            <path class="cls-1" d="M52.79,26.79c-.05-.47.2-.96.6-1.18-.03.34-.21.65-.46.85l-.14.32Z"/>
            <path class="cls-1" d="M37.94,39.59l-.56-.17c-.1-.37.21-.8.58-.8s.67.43.57.8c-.2,0-.39.01-.59.02v.15Z"/>
            <path class="cls-1" d="M42.45,52.64c-.43.02-.56.79-.17.97s.83-.45.56-.8c-.19-.05-.37-.11-.56-.16l.17-.02Z"/>
            <path class="cls-1" d="M37.31,49.88c-.05-.24.1-.51.32-.58s.49.08.56.32c-.02.24-.04.49-.17.69s-.41.3-.59.15c-.21-.23-.24-.62-.07-.88l-.06.3Z"/>
            <path class="cls-1" d="M65.51,45.89h.15"/>
            <path class="cls-1" d="M37.9,52.14l-.59,1.55c-.04.11-.08.22-.06.34.05.28.46.33.66.12s.22-.52.22-.81,0-.6.14-.84l-.38-.35Z"/>
            <path class="cls-1" d="M47.17,55.34c-.29-.16-.52.32-.52.67s-.09.84-.42.81c-.08-.4-.14-.83,0-1.2s.59-.65.93-.46v.18Z"/>
            <path class="cls-1" d="M62.62,25.71c-.27.64-.45,1.33-.53,2.03-.36.02-.72-.06-1.04-.23.48-.39.82-.97.92-1.6.33.06.67.12,1,.18l-.35-.37Z"/>
            <path class="cls-1" d="M65.95,47.54c-.16.71-.25,1.45-.25,2.18,0,.23.04.53.26.59.1.03.2,0,.29-.05.49-.23.81-.78.79-1.35s-.39-1.09-.89-1.27l-.2-.1Z"/>
            <path class="cls-1" d="M46.12,29.68c-.33-.1-.69-.24-.83-.58s.18-.82.49-.66c.12.4.24.8.35,1.19v.04Z"/>
            <path class="cls-1" d="M42.31,31.94v-.9c.33-.14.76.11.75.47s-.55.55-.72.24l-.02.18Z"/>
            <path class="cls-1" d="M41.34,35.74c-.11-.25.16-.55.41-.49s.37.42.24.65-.45.31-.68.18c-.18-.1-.25-.45-.05-.47l.08.13Z"/>
          </g>
          <g class="cls-2">
            <path class="cls-1" d="M37.32,42.2c.11-.17.28-.28.4-.45.29-.44.06-1.03-.08-1.54s-.09-1.24.41-1.36c.39.55.84,1.04,1.36,1.45.03-.8.84-1.26,1.51-1.65s1.37-1.15,1.05-1.88c.35-.54.99-.74,1.53-1.06s1.05-.97.81-1.57c1.01.14,1.78,1.29,1.57,2.34-.09.46-.34.91-.27,1.37.1.72.86,1.09,1.52,1.3,2.29.72,4.95,1.29,6.19,3.46-.4.6-1.24.8-1.84.44.55.9,1.12,2.01.7,2.99-.3.71-1.05,1.1-1.78,1.19-.37.04-.78.05-1.03.33-.13.15-.2.35-.28.54-.47,1.08-1.59,1.63-2.54,2.26s-1.92,1.64-1.74,2.81c-1-.46-2.77.23-2.57-.9s-4.27,4.23-3.21,1.18c-1.16,1.2,3.39-4.33,1.88-3.67.14.79-1.62.95-1.13,1.57-.98.37-1.43,1.33-2.41,1.7-.33-1.1.29-2.11.47-3.16.17-1-.2-1.88.09-2.84s.87-1.4.44-2.45c-.29-.69-1.64-1.47-1.02-2.4Z"/>
            <path class="cls-1" d="M50.11,50.14c-.16-.41.07-.94.47-1.09.05.22.39.08.57.21.13.09.14.27.13.43,0,.64-.02,1.27-.03,1.91-.17.33-.73.25-.81-.11-.05-.2.03-.41-.03-.61-.06-.21-.27-.33-.38-.52s-.04-.53.17-.49"/>
            <path class="cls-1" d="M37.25,37.36c-.3,0-.47-.45-.29-.7s.55-.29.82-.15.45.42.59.7.25.58.44.83c-.13.08-.26.15-.39.23-.14-.52-.67-.87-1.17-.79v-.13Z"/>
            <path class="cls-1" d="M47.93,38.24c-.43-.14-.76-.59-.77-1.06s.29-.95.72-1.11c.18.5.46.97.82,1.35-.25.27-.54.49-.87.64l.11.18Z"/>
            <path class="cls-1" d="M47.2,51.51c-.25.19-.47.44-.64.72-.04.06-.07.12-.08.2-.03.21.15.43.34.49s.39-.02.55-.12.32-.22.5-.28c.04.27.18.53.38.7.36-.14.49-.61.58-1.03.01-.05.02-.1.01-.16-.01-.07-.07-.13-.11-.19-.19-.22-.34-.48-.45-.76-.27.08-.53.16-.8.23-.12.04-.27.11-.26.25l-.02-.05Z"/>
            <path class="cls-1" d="M41.98,35.17c-.51-.33-1.03-.71-1.27-1.28s-.05-1.4.52-1.57c.67.62.96,1.65.72,2.56l.03.3Z"/>
            <path class="cls-1" d="M39.26,35.2c-.18-.26-.19-.65-.03-.92.09.21.09.47,0,.68l.03.24Z"/>
            <path class="cls-1" d="M34.61,48.3l-.39.1c-.18-.19-.14-.55.08-.69s.54.01.6.27c-.11.08-.23.15-.34.23l.05.09Z"/>
            <path class="cls-1" d="M41.6,54.42c-.25.17-.07.68.22.64s.35-.58.07-.68c-.13.04-.26.07-.38.11l.09-.07Z"/>
            <path class="cls-1" d="M37.62,54.67c-.11-.12-.11-.34,0-.47s.32-.13.44-.02c.07.15.14.31.13.47s-.15.33-.3.31c-.2-.06-.35-.28-.33-.5l.06.2Z"/>
            <path class="cls-1" d="M53.13,41.91l.09-.05"/>
            <path class="cls-1" d="M38.72,55.8l.16,1.14c.01.08.02.16.07.22.12.15.38.02.43-.17s-.04-.39-.14-.57-.2-.35-.19-.55l-.34-.07Z"/>
            <path class="cls-1" d="M45.3,54.3c-.23.01-.2.38-.09.59s.22.53.02.64c-.18-.21-.35-.44-.39-.72s.14-.6.4-.62l.05.11Z"/>
            <path class="cls-1" d="M44.77,30.94c.05.48.17.96.35,1.4-.21.14-.45.23-.7.25.16-.41.17-.88.02-1.3.22-.09.44-.18.66-.26l-.33-.09Z"/>
            <path class="cls-1" d="M53.94,42.73c.14.49.33.95.56,1.39.08.14.2.3.35.26.07-.02.12-.08.16-.13.22-.31.23-.77.03-1.09s-.59-.51-.95-.43h-.15Z"/>
            <path class="cls-1" d="M36.24,39.37c-.23.06-.49.11-.69-.04s-.16-.56.08-.57c.2.19.4.39.6.58v.02Z"/>
            <path class="cls-1" d="M34.71,42.13l-.29-.54c.14-.2.48-.21.59.01s-.15.53-.35.41l.05.12Z"/>
            <path class="cls-1" d="M35.38,44.75c-.14-.11-.09-.39.08-.44s.36.12.36.3-.17.35-.34.36c-.14,0-.29-.18-.18-.26l.09.05Z"/>
          </g>
        </g>
      </g>
    </g>
  </g>
</svg>