<?xml version="1.0" encoding="UTF-8"?>
<svg id="Layer_2" data-name="Layer 2" xmlns="http://www.w3.org/2000/svg" viewBox="0 0 75.96 71.87">
  <defs>
    <style>
      .cls-1 {
        fill: #1ef3ff;
      }

      .cls-2 {
        fill: #1dd0d0;
      }

      .cls-3 {
        opacity: .76;
      }
    </style>
  </defs>
  <g id="Layer_1-2" data-name="Layer 1">
    <g>
      <g>
        <g class="cls-3">
          <path class="cls-1" d="M46.75,22.21c2.35,3.48,12.32-2.12,3.82,4.85,1.77.2,2.65,2.05,3.39,3.57,1.61,3.43,5.55,2.16,6.05,6.14.61,1.24,1.95,2.45,3.34,2.03-1.03,3.93-5.24,3.3-8.45,2.26-6,3.23-4.76,13.72-11.91,16.18-1.25-.96-1.54-2.85-.64-4.11-2.1,1.06-4.66,2.13-6.75,1.06-2.73-1.2-1.77-4.47-2.86-6.43-5.38-1.93-5.13-10.75-11.6-10.91,1.2-2.11-.01-6.11,2.45-5.5s-8.6-10.05-2.03-7.24c-2.45-2.75,8.98,8.12,7.79,4.72-3.85-3.29-11.81-12.01.3-6.77,4.81-.5,7.53,2.32,11.6,2.01,1.59-.52,3.55-3.37,5.5-1.87Z"/>
          <path class="cls-1" d="M26.89,49.06c1.89-.38,2.63,1.12,1.76,2.42-1.39.57-7.85.11-4.81-1.9,1.32.67,3.07-1.78,3.61-.28"/>
          <path class="cls-1" d="M57.47,22.83c2.04-2.49,2.95,2.19.13,2.47-4.21,1.87-.65-1.09-.13-2.47Z"/>
          <path class="cls-1" d="M53.62,46.14c.81-2.12,4.25-1.93,4.82.22-3.61,1.57-2.67,1.63-4.82-.22Z"/>
          <path class="cls-1" d="M24.39,42.44c-.71-1.88-3.95-2.41-2.88.17,1.03,1.29-.12,1.08-1.09,1.88,1.77,3.19,6.34.11,3.97-2.05Z"/>
          <path class="cls-1" d="M61.48,33.56c1.14-2.12,5.19-4.27,6.46-1.19-1.73,1.72-4.21,1.54-6.46,1.19Z"/>
          <path class="cls-1" d="M61.9,27.59c.62-.36,1.47-.33,2.05.08-.69.3-1.36-.16-2.05-.08Z"/>
          <path class="cls-1" d="M33.73,15.3c-.55-1,.69-1.54,1.35-.59.21,1.55-.7,1.12-1.35.59Z"/>
          <path class="cls-1" d="M18.93,29.67c-.34-.57-1.49-.27-1.46.38,1.36,1.86,1.47-.67,1.46-.38Z"/>
          <path class="cls-1" d="M19.1,20.9c1.57-.71,1.55,1.62-.08,1.25-1.96-.49,1.11-1.8.08-1.25Z"/>
          <path class="cls-1" d="M44.57,56.99l.11.2"/>
          <path class="cls-1" d="M16.4,23.13c-2.33-.48-5.18,1.65-1.48,1.07.71-.38,1.48-.21,1.48-1.07Z"/>
          <path class="cls-1" d="M18.55,37.82c.01-.5-.81-.51-1.29-.28-4.14.76,2.45-2.28,1.29.28Z"/>
          <path class="cls-1" d="M70.34,40.37c-6.79,1.57-1.45-3.16-.26.71,0,0,.26-.71.26-.71Z"/>
          <path class="cls-1" d="M42.6,58.63c-1.2.4-3.42.56-3.82,1.74,1.3,1.95,4.39.2,3.82-1.74Z"/>
          <path class="cls-1" d="M53.2,20.28c-.55-.92.81-2.61,1.45-1.25-.49.4-.93.89-1.45,1.25Z"/>
          <path class="cls-1" d="M47.38,16.49c3.13-1.89.55,2.68.26-.08,0,0-.26.08-.26.08Z"/>
          <path class="cls-1" d="M41.45,17.54c.97-.69,1.4,1.05.23.99-1.31,0-.3-1.99-.23-.99Z"/>
        </g>
        <g class="cls-3">
          <path class="cls-1" d="M70.21,42.56c-1.2,2.74,6.48,6.42-1.56,4.39,1.27,2.17-3.32,5.12-.89,7.05-.13,1.83-3.29,3.93-1.35,5.64-5.29,1.92-3.57-6.38-8.72-4.44-3.21,1.79-17.65,2.28-10.12-1.61-1.63-.77-3.48-1.8-3.68-3.5-.4-2.11,2.15-2.97,3.05-4.51-.36-2.25.67-4.29,1.94-6.27.94-1.69,1.55-3.9.26-5.37,1.94-.22,4.09-2.7,4.76-.97s2.94-9.49,3.95-4.39c.76-2.65-1.48,8.86.27,6.66,3.2-16.42,4.53-.23,8.43,4.9,1.05.71,3.82.6,3.67,2.42Z"/>
          <path class="cls-1" d="M43.49,42.69c1.01.87.55,2-.85,2.1-1.1-.65-1.42-2.16-2.2-3.12.29-1.28,1.61-.59,1.92.26.47.25,1.97.55,1.21,1.19"/>
          <path class="cls-1" d="M74.51,49.14c2.54.04-.09,2.73-1.59,1.16-3.09-1.61.39-.87,1.59-1.16Z"/>
          <path class="cls-1" d="M57.22,57.15c1.88-.45,3.12,1.74,1.97,2.93-2.27-.99-2.27-1.39-1.97-2.93Z"/>
          <path class="cls-1" d="M46.82,38.3c.31-.69.9-2.48-.63-2.26-1.26.77-.83,1.77-2.49.82-1.38,2.24,2.59,3.91,3.12,1.44Z"/>
          <path class="cls-1" d="M69.09,56.23c2.13-.27,5.13,1.34,3.64,3.28-1.91-.25-2.9-1.83-3.64-3.28Z"/>
          <path class="cls-1" d="M73.27,53.85c.51.21.86.72.85,1.24-.5-.27-.49-.87-.85-1.24Z"/>
          <path class="cls-1" d="M69.1,31.86c.5-.82,1.32-.19.99.54-.99.85-1.05,0-.99-.54Z"/>
          <path class="cls-1" d="M52.97,29.47c.24-.45-.48-1-.9-.69-.69,1.54,1.04.62.9.69Z"/>
          <path class="cls-1" d="M58.91,25.71c1.17.58-.41,1.63-.87.5-.53-1.38,1.69-.14.87-.5Z"/>
          <path class="cls-1" d="M45.97,56.59l-.09.15"/>
          <path class="cls-1" d="M56.23,25.1c-.54-1.42-3.39-2.39-1.37-.4.55.22.73.79,1.37.4Z"/>
          <path class="cls-1" d="M47.34,32.84c.34-.21-.02-.7-.38-.89-2.37-2.28,2.63.59.38.89Z"/>
          <path class="cls-1" d="M68.44,64.45c-3.97-3.13,1.41-2.39-.59.16,0,0,.59-.16.59-.16Z"/>
          <path class="cls-1" d="M44.01,56.16c-.79-.51-1.81-1.75-2.84-1.48-.74,1.46,1.61,2.75,2.84,1.48Z"/>
          <path class="cls-1" d="M74.34,45.51c.46-.8,2.11-.59,1.47.31-.48-.11-1.01-.16-1.47-.31Z"/>
          <path class="cls-1" d="M74.31,40.41c2.63.98-1.58,1.52.17.12,0,0-.17-.12-.17-.12Z"/>
          <path class="cls-1" d="M71,37.39c.86.22-.04,1.3-.56.57-.6-.68,1.17-1.11.56-.57Z"/>
        </g>
        <g class="cls-3">
          <path class="cls-1" d="M46.84,28.07c1.48,2.19,7.74-1.33,2.4,3.05,2.14.21,2.08,4.48,4.63,3.88,1.23.88,1.21,3.89,3.4,3.5-1.02,4.16-6.41-.67-7.28,3.39-.2,2.83-6.61,12.09-5.91,5.61-1.32.67-2.92,1.34-4.24.67-1.71-.75-1.11-2.81-1.79-4.04-1.84-.88-2.74-2.44-3.57-4.17-.76-1.38-2.06-2.81-3.72-2.69.76-1.33,0-3.84,1.54-3.45s-5.4-6.32-1.28-4.55c-1.54-1.72,5.64,5.1,4.89,2.96-2.58-2.06-7-7.43.19-4.26,2.85-.32,4.71,1.42,7.28,1.26,1-.33,2.23-2.12,3.46-1.17Z"/>
          <path class="cls-1" d="M34.37,44.94c3.1.38.77,2.34-2.15,1.44-.76-.72.23-1.3,1.09-1.09.39-.16,1.29-.99,1.42-.2"/>
          <path class="cls-1" d="M53.57,28.46c1.28-1.57,1.85,1.38.08,1.55-2.64,1.18-.41-.69-.08-1.55Z"/>
          <path class="cls-1" d="M51.16,43.11c.51-1.33,2.67-1.21,3.03.14-1.84.95-2,.8-3.03-.14Z"/>
          <path class="cls-1" d="M32.79,40.78c-2.97-3.1-.83.99-2.5,1.29,1.11,2,3.98.07,2.5-1.29Z"/>
          <path class="cls-1" d="M56.09,35.2c.72-1.34,3.26-2.68,4.06-.75-1.08,1.08-2.64.97-4.06.75Z"/>
          <path class="cls-1" d="M56.36,31.45c.39-.23.92-.2,1.29.05-.43.19-.85-.1-1.29-.05Z"/>
          <path class="cls-1" d="M38.66,23.73c-.35-.63.43-.97.85-.37.13.97-.44.71-.85.37Z"/>
          <path class="cls-1" d="M29.37,32.76c-1.17-.89-1.07,1.39.02.4,0-.14-.21-.74-.02-.4Z"/>
          <path class="cls-1" d="M29.47,27.25c.98-.45.97,1.02-.05.78-1.23-.31.7-1.13.05-.78Z"/>
          <path class="cls-1" d="M45.47,49.92l.07.12"/>
          <path class="cls-1" d="M27.77,28.65c-.6.08-2.82-.08-1.73.8.61.02,1.7-.24,1.73-.8Z"/>
          <path class="cls-1" d="M29.13,37.88c0-.32-.51-.32-.81-.18-2.55.45,1.57-1.43.81.18Z"/>
          <path class="cls-1" d="M61.66,39.48c-4.27.99-.91-1.98-.16.45,0,0,.16-.45.16-.45Z"/>
          <path class="cls-1" d="M44.23,50.95c-.75.25-2.15.35-2.4,1.09.82,1.23,2.76.13,2.4-1.09Z"/>
          <path class="cls-1" d="M50.89,26.86c-.35-.58.51-1.64.91-.78-.31.25-.58.56-.91.78Z"/>
          <path class="cls-1" d="M47.23,24.47c1.97-1.19.35,1.68.17-.05,0,0-.17.05-.17.05Z"/>
          <path class="cls-1" d="M43.51,25.14c.61-.43.88.66.15.62-.8.03-.21-1.25-.15-.62Z"/>
        </g>
        <g class="cls-3">
          <path class="cls-1" d="M45.89,17.67c2.64,1.06,3.13-3.56,5.53-2.45-.32,1.1-.48,2.24-.46,3.39,2.25-1.52,6.13,2.54,7.93-.09,2.04-.12,4.78,2.67,6.43.55,2.9,4.66-6.66,4.61-3.75,9.09,2.27,2.61,5.03,16.72-.41,10.08-.63,1.69-1.52,3.63-3.38,4.06-2.32.67-3.63-1.75-5.41-2.36-2.49.65-4.82-.08-7.2-1.04-1.99-.68-4.53-.98-5.97.47-.51-1.86-3.54-3.61-1.72-4.5s-10.9-1.59-5.39-3.26c-3.04-.38,10.01.25,7.34-1.16-4.62,0-13.68-1.23-3.74-4.16,2.35-2.57,5.68-2.45,8.03-4.7.64-1.12.15-3.8,2.18-3.9Z"/>
          <path class="cls-1" d="M49.64,43.67c.91-1.19,2.2-.68,2.44.54-.44.98-4.54,4.07-3.95,1.32,1.17-.26.75-2.59,1.98-2"/>
          <path class="cls-1" d="M52.6,12.59c.59-3.16,2.92.59.85,2.86-1.04-.27-.28-2.14-.85-2.86Z"/>
          <path class="cls-1" d="M63.79,28.36c-.73-1.53,1.26-3.34,2.98-2.32-1.02,2.32-.71,2.44-2.98,2.32Z"/>
          <path class="cls-1" d="M44.33,41.02c-5.65-.6.16,1.71-1.17,3.23,2.88.96,3.87-3.08,1.17-3.23Z"/>
          <path class="cls-1" d="M61.17,16.91c-.52-1.71.49-5.17,3.14-3.99-.02,1.89-1.61,3.05-3.14,3.99Z"/>
          <path class="cls-1" d="M57.98,13.16c.16-.53.68-.94,1.26-.99-.23.53-.91.6-1.26.99Z"/>
          <path class="cls-1" d="M34.19,20.19c-1.88-1.12,1.8-1.58.79.08-.25-.03-.73-.41-.79-.08Z"/>
          <path class="cls-1" d="M33.72,36.22c-.53-.17-1.04.6-.64.97,1.73.48.61-1.07.64-.97Z"/>
          <path class="cls-1" d="M28.76,30.95c.54-1.24,1.83.23.67.78-1.52.67-.33-1.67-.67-.78Z"/>
          <path class="cls-1" d="M64.69,39.38l.18.06"/>
          <path class="cls-1" d="M28.44,33.64c-.42.52-2.77,2.16-.9,2.16.58-.48,1.37-1.55.9-2.16Z"/>
          <path class="cls-1" d="M38.21,41.25c-.28-.3-.77.11-.93.49-1.95,2.48.08-2.57.93-.49Z"/>
          <path class="cls-1" d="M70.36,16.44c-2.94,4.28-2.87-1.04.26.55,0,0-.26-.55-.26-.55Z"/>
          <path class="cls-1" d="M64.48,41.35c-.47.85-1.7,2.02-1.26,2.97,1.92.48,2.71-2.09,1.26-2.97Z"/>
          <path class="cls-1" d="M48.6,13.25c-.88-.29-1-1.97.14-1.48-.06.49-.04,1-.14,1.48Z"/>
          <path class="cls-1" d="M42.96,13.96c.73-2.73,1.9,1.31.11-.18,0,0-.11.18-.11.18Z"/>
          <path class="cls-1" d="M40.06,17.6c.19-.91,1.44-.07.71.47-.79.67-1.32-1.03-.71-.47Z"/>
        </g>
        <g class="cls-3">
          <path class="cls-2" d="M60.32,43.05c-1.33,2.99,4.93,3.57,3.55,6.32-5.59-1.55-3.23.98-4.82,4.41-.62,1.57-.78,3.77.84,4.48.28,2.35-3.3,5.71-.39,7.53-2,1.22-5.03.51-6.18-1.45-3.5-8.48-15.18,4.92-22.12.93-.15-1.51,1.06-3.03,2.65-3.32-2.28-.64-4.9-1.59-5.56-3.74-1.02-2.63,2.07-4.27,2.84-6.44-.99-2.84-.15-5.65,1-8.46.8-2.36,1.06-5.33-.94-6.95,2.45-.69,4.61-4.32,5.88-2.25s1.53-12.81,4.04-6.46c.34-3.57.2,11.7,1.93,8.51-.32-5.25.97-15.88,5.33-4.58,3.57,2.63,3.57,6.58,6.67,9.12,1.52.69,5.05-.03,5.29,2.34Z"/>
          <path class="cls-2" d="M26.03,48.8c1.52.91,1.16,2.47-.59,2.88-1.32-.49-5.67-5.03-1.96-4.54.36,1.3,3.54.81,2.76,2.2"/>
          <path class="cls-2" d="M67.42,50.61c3.27-.47.55,3.52-1.77,1.83-4.37-1.44.31-1.2,1.77-1.83Z"/>
          <path class="cls-2" d="M47.09,64.51c2.32-.97,4.42,1.6,3.23,3.36-3.73-1.19-3.12-.81-3.23-3.36Z"/>
          <path class="cls-2" d="M29.25,42.47c.88-1.61-.83-4.42-2.16-1.79-.27,1.61-.88.68-2.19.6-1.24,3.21,4.3,4.45,4.35,1.2Z"/>
          <path class="cls-2" d="M62.14,60.84c2.68-.79,6.9.64,5.46,3.45-2.52.08-4.16-1.74-5.46-3.45Z"/>
          <path class="cls-2" d="M66.95,56.92c.71.16,1.28.74,1.39,1.42-.71-.24-.83-1.02-1.39-1.42Z"/>
          <path class="cls-2" d="M56.36,29.52c.43-1.14,1.65-.55,1.4.48-1.07,1.29-1.34.24-1.4-.48Z"/>
          <path class="cls-2" d="M35.06,29.83c-.28-2.26-2.85.48-.46.48.16-.17.66-1.05.46-.48Z"/>
          <path class="cls-2" d="M41.8,23.75c1.63.5-.12,2.19-1,.82-.93-1.73,2.1-.52,1-.82Z"/>
          <path class="cls-2" d="M32.51,66.14l-.08.21"/>
          <path class="cls-2" d="M38.21,23.53c-1.19-1.81-4.92-2.37-1.85-.23.77.18,1.14.86,1.85.23Z"/>
          <path class="cls-2" d="M28.63,35.33c.39-.35-.19-.9-.7-1.06-3.57-2.38,3.51.17.7,1.06Z"/>
          <path class="cls-2" d="M63.25,71.54c-5.9-3.25,1.29-3.31-.72.33,0,0,.72-.33.72-.33Z"/>
          <path class="cls-2" d="M29.88,65.99c-1.14-.5-2.76-1.87-4.01-1.31-.6,2.06,2.76,3.18,4.01,1.31Z"/>
          <path class="cls-2" d="M66.33,45.97c.38-1.1,2.57-1.22,1.97.09-.65-.04-1.34,0-1.97-.09Z"/>
          <path class="cls-2" d="M65.09,39.43c3.62.72-1.67,2.27.25.12,0,0-.25-.12-.25-.12Z"/>
          <path class="cls-2" d="M60.11,36.24c1.17.11.26,1.68-.58.85-.92-.82,1.26-1.65.58-.85Z"/>
        </g>
        <g class="cls-3">
          <path class="cls-2" d="M52.91,27.4c.69,2.79,8.78.46,1.64,3.87,2.21.78.86,5.31,3.75,5.34,1.04,1.26.12,4.45,2.56,4.62-2.39,4.17-6.54-2.43-8.76,1.68-1.1,3.01-10.7,11.09-7.97,4.4-1.6.36-3.51.65-4.7-.41-1.59-1.25-.34-3.26-.69-4.77-1.68-1.41-2.18-3.32-2.54-5.37-.4-1.67-1.35-3.53-3.14-3.84,1.2-1.21,1.15-4.08,2.68-3.26s-3.84-8.14.01-5.17c-1.12-2.24,4.46,6.91,4.31,4.44-2.13-2.88-5.19-9.73,1.48-4.47,3.13.41,4.58,2.76,7.36,3.27,1.16-.09,3-1.66,4.02-.33Z"/>
          <path class="cls-2" d="M34.59,42.02c1.3.05,1.56,1.16.72,1.91-1.03.15-5.26-1.22-2.85-2.07.74.66,2.4-.67,2.46.41"/>
          <path class="cls-2" d="M59.95,29.59c1.81-1.33,1.59,1.93-.38,1.67-3.17.56-.23-.84.38-1.67Z"/>
          <path class="cls-2" d="M52.98,44.52c.99-1.31,3.22-.53,3.17.95-2.27.55-2.38.28-3.17-.95Z"/>
          <path class="cls-2" d="M34.16,37.19c-.2-.65-.93-2.19-1.83-1.21-.4,1.14.54,1.69-1.21,1.92.54,2.39,4.22,1.15,3.04-.71Z"/>
          <path class="cls-2" d="M60.59,37.42c1.22-1.28,4.31-1.94,4.54.28-1.48.86-3.11.33-4.54-.28Z"/>
          <path class="cls-2" d="M62.01,33.51c.48-.14,1.04.03,1.35.39-.52.09-.87-.33-1.35-.39Z"/>
          <path class="cls-2" d="M45.53,20.63c-.18-.77.76-.9,1.01-.17-.16,1.09-.69.62-1.01.17Z"/>
          <path class="cls-2" d="M32.94,27.76c-.99-1.26-1.54,1.2-.1.44.03-.15,0-.84.1-.44Z"/>
          <path class="cls-2" d="M34.7,21.93c1.17-.22.74,1.34-.29.82-1.21-.64,1.07-1.02.29-.82Z"/>
          <path class="cls-2" d="M44.88,50.25l.03.15"/>
          <path class="cls-2" d="M32.48,22.97c-.66-.08-2.97-.83-2.08.39.64.18,1.88.19,2.08-.39Z"/>
          <path class="cls-2" d="M31.14,33.14c.1-.33-.45-.47-.81-.4-2.87-.2,2.13-1.1.81.4Z"/>
          <path class="cls-2" d="M65.23,43.44c-4.83-.08-.37-2.35-.31.43,0,0,.31-.43.31-.43Z"/>
          <path class="cls-2" d="M43.26,51.02c-.87.07-2.38-.2-2.88.53.47,1.49,2.88.9,2.88-.53Z"/>
          <path class="cls-2" d="M57.58,27.19c-.19-.72,1.04-1.6,1.2-.59-.4.19-.79.44-1.2.59Z"/>
          <path class="cls-2" d="M54.41,23.68c2.44-.74-.15,1.88.19-.01,0,0-.19.01-.19.01Z"/>
          <path class="cls-2" d="M50.26,23.41c.76-.31.75.93-.03.7-.85-.16.13-1.39.03-.7Z"/>
        </g>
      </g>
      <g>
        <g class="cls-3">
          <path class="cls-1" d="M24.18,32.94c-.29-2.09-4.36-.69-4.51-2.66,3.91-.58,1.81-1.29,1.45-3.8-.17-1.06-.86-2.36-2.13-2.32-1.02-1.29,0-4.14-2.46-4.39,2.62-3.71,6.62,2.59,9.12-1.05,1.18-2.58,11.49-9.69,8.42-3.6,1.67-.24,3.66-.4,4.85.64,1.59,1.23.23,2.99.52,4.42,1.64,1.35,2.12,3.17,2.41,5.08.34,1.56,1.25,3.32,3.09,3.7-1.29,1.04-1.35,3.69-2.9,2.85s3.64,7.7-.22,4.75c1.07,2.12-4.33-6.61-4.27-4.33,7.63,12.36-3.13,2.31-9.19.61-1.2.01-3.17,1.36-4.17.08Z"/>
          <path class="cls-1" d="M43.72,20.54c-1.31-.12-1.6-1.12-.67-1.8,1.18-.08,2.37.79,3.52,1.07.58.98-.81,1.14-1.57.72-.47.03-1.77.56-1.62-.24"/>
          <path class="cls-1" d="M16.99,30.53c-3.08.74-.49-2.16,1.95-1.65.28.75-1.6,1.01-1.95,1.65Z"/>
          <path class="cls-1" d="M24.8,17.21c-1.02,1.12-3.34.35-3.24-1.05,2.2-.35,2.5-.18,3.24,1.05Z"/>
          <path class="cls-1" d="M43.96,25c.19.65.91,2.06,1.84,1.22.43-1.11-.41-1.58,1.33-1.7-.41-2.17-4.28-1.4-3.17.48Z"/>
          <path class="cls-1" d="M16.64,23.3c-1.3,1.09-4.54,1.55-4.68-.51,1.56-.71,3.24-.12,4.68.51Z"/>
          <path class="cls-1" d="M15.02,26.81c-.5.1-1.07-.08-1.38-.44.54-.05.89.36,1.38.44Z"/>
          <path class="cls-1" d="M31.53,39.59c.14.77-.85.74-1.05.1.19-1,.75-.52,1.05-.1Z"/>
          <path class="cls-1" d="M44.84,33.74c.1.41.96.45,1.08.05-.42-1.38-1.15.12-1.08-.05Z"/>
          <path class="cls-1" d="M42.78,39c-1.23.14-.67-1.28.33-.74,1.23.7-1.18.86-.33.74Z"/>
          <path class="cls-1" d="M33.41,12.39l-.03-.14"/>
          <path class="cls-1" d="M45.12,38.17c.62.08,3.01.96,2.17-.24-.63-.18-1.88-.31-2.17.24Z"/>
          <path class="cls-1" d="M46.92,28.9c-.12.3.44.46.82.42,2.96.34-2.22.9-.82-.42Z"/>
          <path class="cls-1" d="M12.09,17.51c4.81.25.46,2.27.33-.38,0,0-.33.38-.33.38Z"/>
          <path class="cls-1" d="M35.11,11.78c.9-.02,2.4.33,2.99-.32-.4-1.36-2.89-1.05-2.99.32Z"/>
          <path class="cls-1" d="M19.34,32.88c.15.73-1.18,1.38-1.27.47.43-.15.84-.36,1.27-.47Z"/>
          <path class="cls-1" d="M22.47,36.28c-2.53.57.21-1.74-.2,0,0,0,.2,0,.2,0Z"/>
          <path class="cls-1" d="M26.76,36.77c-.79.24-.75-.9.06-.64.88.21-.21,1.27-.06.64Z"/>
        </g>
        <g class="cls-3">
          <path class="cls-1" d="M12.67,16.21c1.3-1.64-2.78-4.99,2.05-2.35-.38-1.55,3.41-2.46,2.18-4.08.5-1.08,3.12-1.74,2.18-3.15,3.95-.21,1.13,4.6,4.97,4.34,2.44-.47,12.52,1.91,6.56,2.9.95.77,1.98,1.75,1.74,2.81-.2,1.36-2.16,1.39-3.09,2.14-.27,1.44-1.41,2.45-2.72,3.41-1.01.84-1.92,2.06-1.37,3.19-1.38-.24-3.39.85-3.47-.32s-4.12,5.16-3.68,1.89c-1.11,1.46,2.99-5.06,1.3-4.07-5.72,9.11-3.21-.66-4.67-4.56-.56-.63-2.48-1.09-1.97-2.16Z"/>
          <path class="cls-1" d="M30.96,21.21c-.36-3.88,3.72,2.58.81,1.27.16-.66-1.51-1.09-.77-1.55"/>
          <path class="cls-1" d="M11.2,11.42c-1.98-1.38,1.56-1.04,2.14.33-.45.46-1.49-.42-2.14-.33Z"/>
          <path class="cls-1" d="M24.8,9.89c-1.28-.05-1.82-1.57-.7-2.14,1.25,1.01,1.3,1.21.7,2.14Z"/>
          <path class="cls-1" d="M27.71,23.23c-1.96,2.8,1.14.33,1.81,1.46,1.45-1.17-.94-2.82-1.81-1.46Z"/>
          <path class="cls-1" d="M16.48,8.18c-1.36-.21-3.26-1.68-1.76-2.67,1.25.51,1.57,1.64,1.76,2.67Z"/>
          <path class="cls-1" d="M13.09,8.82c-.3-.22-.43-.6-.3-.91.29.26.14.62.3.91Z"/>
          <path class="cls-1" d="M11.05,22.87c-.5.4-.96-.12-.56-.51.82-.31.74.16.56.51Z"/>
          <path class="cls-1" d="M21.54,27.38c-.48,1.01,1.52.44.35-.1-.13.04-.59.3-.35.1Z"/>
          <path class="cls-1" d="M16.64,28.52c-.67-.59.66-.89.71-.14.03.95-1.19-.26-.71.14Z"/>
          <path class="cls-1" d="M32.36,12.37l.09-.07"/>
          <path class="cls-1" d="M18.34,29.4c.23.36.66,1.99,1.18,1.03-.15-.42-.64-1.12-1.18-1.03Z"/>
          <path class="cls-1" d="M26.13,26.42c-.28.06-.14.43.06.61,1.1,1.68-1.69-.76-.06-.61Z"/>
          <path class="cls-1" d="M18.75,3.35c2.01,2.65-1.5,1.19.44.02,0,0-.44-.02-.44-.02Z"/>
          <path class="cls-1" d="M33.6,13c.43.47.86,1.4,1.61,1.43.85-.82-.58-1.95-1.61-1.43Z"/>
          <path class="cls-1" d="M10.51,13.64c-.46.38-1.58-.02-.94-.47.31.16.65.29.94.47Z"/>
          <path class="cls-1" d="M9.39,16.72c-1.59-1.09,1.4-.63-.09-.1,0,0,.09.1.09.1Z"/>
          <path class="cls-1" d="M10.98,19.18c-.55-.33.34-.76.51-.24.23.56-1.05.42-.51.24Z"/>
        </g>
        <g class="cls-3">
          <path class="cls-1" d="M25.42,29.39c-.18-1.31-2.74-.44-2.83-1.67,2.58.16,1.14-3.25-.43-3.85-.64-.81,0-2.6-1.55-2.76,1.65-2.33,4.16,1.63,5.73-.66.74-1.62,7.22-6.09,5.29-2.26,1.89-.49,4.16.36,3.46,2.24-.4,1.43,1.64,2.48,1.42,4.14.22.98.78,2.08,1.94,2.33-.81.66-.85,2.32-1.82,1.79s2.29,4.84-.14,2.99c.67,1.33-2.72-4.15-2.68-2.72,4.55,7.32-1.93,1.64-5.77.38-.76,0-1.99.85-2.62.05Z"/>
          <path class="cls-1" d="M37.7,21.6c-3.28-1.71,3.69-.84,1.38.17-.44-.41-1.57.31-1.59-.33"/>
          <path class="cls-1" d="M20.9,27.88c-1.21.72-.97-1.19.29-.95,2.04-.21.15.48-.29.95Z"/>
          <path class="cls-1" d="M25.81,19.51c-.64.7-2.1.22-2.04-.66,1.38-.22,1.57-.11,2.04.66Z"/>
          <path class="cls-1" d="M37.85,24.4c.12.41.57,1.3,1.16.77.27-.7-.26-.99.84-1.07-.26-1.36-2.69-.88-1.99.3Z"/>
          <path class="cls-1" d="M20.68,23.33c-.82.69-2.85.97-2.94-.32.98-.45,2.04-.08,2.94.32Z"/>
          <path class="cls-1" d="M19.67,25.54c-.32.06-.68-.05-.87-.28.34-.03.56.23.87.28Z"/>
          <path class="cls-1" d="M30.04,33.57c.09.49-.54.47-.66.06.12-.63.47-.33.66-.06Z"/>
          <path class="cls-1" d="M38.4,29.89c.61.76,1.03-.64.08-.25-.03.1-.02.48-.08.25Z"/>
          <path class="cls-1" d="M37.11,33.19c-.77.09-.42-.81.21-.46.77.44-.74.54-.21.46Z"/>
          <path class="cls-1" d="M31.22,16.48l-.02-.09"/>
          <path class="cls-1" d="M38.58,32.67c.39.05,1.89.6,1.36-.15-.4-.12-1.18-.2-1.36.15Z"/>
          <path class="cls-1" d="M39.71,26.85c-.07.19.28.29.51.26,1.86.21-1.4.57-.51-.26Z"/>
          <path class="cls-1" d="M17.83,19.69c1.67.05,2.07,1,.2.38-.05-.26.15-.88-.2-.38Z"/>
          <path class="cls-1" d="M32.29,16.09c.57-.02,1.51.21,1.88-.2-.25-.86-1.81-.66-1.88.2Z"/>
          <path class="cls-1" d="M22.38,29.35c.1.46-.74.87-.8.3.27-.09.53-.22.8-.3Z"/>
          <path class="cls-1" d="M24.35,31.49c-1.59.36.13-1.1-.12,0,0,0,.12,0,.12,0Z"/>
          <path class="cls-1" d="M27.04,31.79c-.5.15-.47-.56.04-.4.55.13-.13.8-.04.4Z"/>
        </g>
        <g class="cls-3">
          <path class="cls-1" d="M23.75,35.84c-2.08-1.09-5.89,3.18-3.26-1.53-1.86.5-3.61-2.7-5.44-1.46-1.41-.31-2.66-2.52-4.27-1.56-.89-3.44,5.51-1.42,4.58-4.77-1.01-2.15.38-11.07,2.52-6,1.27-1.89,4.25-2.59,5.49-.33,1.1,1.67,4.08,1.22,5.59,2.98,1.21.79,2.87,1.45,4.19.85-.07,1.22,1.62,2.85.17,3.04s7.1,3.03,2.96,2.99c1.99.81-6.79-2.06-5.28-.7,11.85,3.86.07,2.91-4.91,4.53-.69.55-.95,2.26-2.36,1.94Z"/>
          <path class="cls-1" d="M26.98,19.46c-3.14.61-.94-1.69,1.18-1.73.96.33.29,1.05-.44,1.14-.25.24-.66,1.14-1.09.59"/>
          <path class="cls-1" d="M18.03,37.63c-.38,1.56-2.12-.44-.72-1.13,1.67-1.68.63.36.72,1.13Z"/>
          <path class="cls-1" d="M13.9,25.99c.13,1.16-1.71,1.72-2.55.83,1.07-1.24,1.34-1.22,2.55-.83Z"/>
          <path class="cls-1" d="M30.01,22.06c3.76,1.39.26-.99,1.52-1.73-1.67-1.14-3.36,1.12-1.52,1.73Z"/>
          <path class="cls-1" d="M13.14,33.39c-.04,1.26-1.62,2.99-3.03,1.81.44-1.14,1.79-1.54,3.03-1.81Z"/>
          <path class="cls-1" d="M14.49,36.26c-.23.29-.67.44-1.08.36.28-.27.75-.19,1.08-.36Z"/>
          <path class="cls-1" d="M32.31,36.55c.57.39,0,.84-.55.54-.53-.7.09-.65.55-.54Z"/>
          <path class="cls-1" d="M36.2,26.97c.32.2.84-.16.66-.46-1.1-.66-.59.59-.66.46Z"/>
          <path class="cls-1" d="M38.41,31.1c-.62.64-1.23-.47-.28-.6,1.16-.14-.11,1.06.28.6Z"/>
          <path class="cls-1" d="M15.74,19.17l-.11-.07"/>
          <path class="cls-1" d="M39.23,29.54c.43-.24,2.36-.79,1.09-1.13-.49.17-1.29.68-1.09,1.13Z"/>
          <path class="cls-1" d="M34.25,23.09c.13.24.55.08.74-.12,1.93-1.13-.71,1.56-.74.12Z"/>
          <path class="cls-1" d="M6.75,31.93c3-2.03,1.68,1.18-.05-.38,0,0,.05.38.05.38Z"/>
          <path class="cls-1" d="M16.32,18.03c.51-.42,1.61-.9,1.52-1.55-1.12-.65-2.35.69-1.52,1.55Z"/>
          <path class="cls-1" d="M20.92,37.99c.55.36.23,1.37-.42.86.15-.28.25-.6.42-.86Z"/>
          <path class="cls-1" d="M24.93,38.64c-1.1,1.49-1-1.15-.12.09,0,0,.12-.09.12-.09Z"/>
          <path class="cls-1" d="M27.72,37c-.3.51-1.01-.21-.38-.42.64-.27.71.86.38.42Z"/>
        </g>
        <g class="cls-3">
          <path class="cls-2" d="M19.54,17.8c1.57-1.62-2.57-3.04-1.02-4.49,3.26,1.88,2.41.26,4.28-1.74.77-.83,1.37-2.13.42-2.86.35-1.48,3.52-2.83,1.94-4.47,5-1.01,2.66,5.73,7.51,4.68,2.99-1.06,16.53.14,9.16,2.52,2.81,1.24,4.34,4.28.98,5.7-2.39,1.16-1.46,4.26-3.95,5.86-1.07,1.27-1.91,3.01-.9,4.37-1.83-.05-4.11,1.73-4.52.23s-3.89,7.43-4.2,3.13c-1.03,2.09,2.47-7.09.57-5.5-.92,3.41-4.31,9.06-4.66,1.75-1.84-2.25-.98-4.61-2.53-6.77-.88-.7-3.46-.95-3.1-2.42Z"/>
          <path class="cls-2" d="M44.25,20.86c-.86-.88-.18-1.72,1.04-1.62.91.63,1.05,1.94,1.65,2.82-.41,1.01-1.55.31-1.74-.44-.36-.25-1.76-.65-.97-1.12"/>
          <path class="cls-2" d="M16.37,11.89c-2.38-.38.52-2.2,1.62-.77,2.63,1.7-.48.66-1.62.77Z"/>
          <path class="cls-2" d="M33.35,7.38c-1.65.17-2.75-1.69-1.46-2.64,1.86,1.06,1.99,1.33,1.46,2.64Z"/>
          <path class="cls-2" d="M40.64,24.06c-1.73,3.99,1.53.2,2.71,1.55,1.54-1.77-1.94-3.47-2.71-1.55Z"/>
          <path class="cls-2" d="M22.26,6.72c-1.8-.01-4.62-1.57-2.96-3.12,1.73.43,2.45,1.83,2.96,3.12Z"/>
          <path class="cls-2" d="M18.1,8.18c-.45-.23-.71-.69-.63-1.12.43.28.34.78.63,1.12Z"/>
          <path class="cls-2" d="M19.24,26.71c-.55.61-1.25.01-.85-.56.97-.56.99.07.85.56Z"/>
          <path class="cls-2" d="M33.86,30.58c-.34,1.4,2.06.29.42-.2-.15.07-.68.51-.42.2Z"/>
          <path class="cls-2" d="M27.9,32.96c-1.01-.64.61-1.27.87-.31.29,1.22-1.6-.12-.87.31Z"/>
          <path class="cls-2" d="M43.68,9.17l.1-.11"/>
          <path class="cls-2" d="M30.3,33.77c.39.42,1.37,2.45,1.78,1.12-.31-.51-1.11-1.32-1.78-1.12Z"/>
          <path class="cls-2" d="M39.48,28.48c-.34.14-.07.58.24.77,1.85,1.97-2.37-.67-.24-.77Z"/>
          <path class="cls-2" d="M23.87.06c3.28,3.03-1.59,1.82.56-.06,0,0-.56.06-.56.06Z"/>
          <path class="cls-2" d="M45.45,9.76c.68.52,1.47,1.65,2.45,1.55.87-1.21-1.25-2.42-2.45-1.55Z"/>
          <path class="cls-2" d="M16.08,14.89c-.49.58-2.03.26-1.32-.43.43.15.91.25,1.32.43Z"/>
          <path class="cls-2" d="M15.47,19.07c-2.33-1.11,1.63-1.07-.14-.12,0,0,.14.12.14.12Z"/>
          <path class="cls-2" d="M18.17,21.94c-.79-.32.23-1.05.59-.4.45.68-1.23.73-.59.4Z"/>
        </g>
        <g class="cls-3">
          <path class="cls-2" d="M21.12,28.64c.25-1.43-2.78-1.1-2.47-2.43,2.53.82,2.4-3.29.84-4.16-.41-1.01.88-2.74-.72-3.27,2.54-2.07,3.92,2.7,6.36.65,1.33-1.52,9.78-4.72,6.43-1.14,2.17-.07,4.33,1.34,2.95,3.17-.92,1.41.92,3.01.13,4.7-.1,1.08.14,2.38,1.29,2.91-1.09.5-1.69,2.24-2.55,1.46s.81,5.64-1.16,3.12c.27,1.56-1.51-5.02-1.95-3.5,2.44,8.96-2.62,1.2-6.31-.95-.81-.17-2.42.43-2.82-.57Z"/>
          <path class="cls-2" d="M36.9,23.32c-2.07-1.66,1.19-1.24,2.07-.06.18.74-.79.63-1.21.24-.32-.05-1.31.11-1.04-.4"/>
          <path class="cls-2" d="M16.8,25.98c-2.3-.03.39-1.5,1.66-.8.03.54-1.3.43-1.66.8Z"/>
          <path class="cls-2" d="M24.88,18.31c-.91.59-2.32-.25-1.96-1.18,1.54.1,1.72.24,1.96,1.18Z"/>
          <path class="cls-2" d="M36.11,26.31c.68,2.96.96-.33,2.23.15.18-1.5-2.58-1.56-2.23-.15Z"/>
          <path class="cls-2" d="M18.1,21.14c-1.09.53-3.38.37-3.04-1.03,1.2-.24,2.2.4,3.04,1.03Z"/>
          <path class="cls-2" d="M16.26,23.23c-.36,0-.7-.21-.84-.5.37.04.53.37.84.5Z"/>
          <path class="cls-2" d="M24.66,34.13c-.07.53-.73.37-.73-.09.34-.63.61-.24.73.09Z"/>
          <path class="cls-2" d="M34.85,32.23c.39.95,1.33-.43.17-.24-.06.1-.19.5-.17.24Z"/>
          <path class="cls-2" d="M32.35,35.4c-.86-.09-.18-.95.38-.44.68.65-.98.39-.38.44Z"/>
          <path class="cls-2" d="M31.69,16.39v-.1"/>
          <path class="cls-2" d="M34.1,35.2c.4.14,1.82,1.08,1.51.16-.39-.22-1.2-.48-1.51-.16Z"/>
          <path class="cls-2" d="M37.27,29.33c-.14.18.2.37.46.4,1.92.66-1.68.27-.46-.4Z"/>
          <path class="cls-2" d="M16.27,16.63c1.76.45,1.88,1.54.09.45.04-.29.46-.89-.09-.45Z"/>
          <path class="cls-2" d="M32.97,16.24c.61.12,1.54.58,2.08.23.02-.97-1.72-1.12-2.08-.23Z"/>
          <path class="cls-2" d="M17.88,27.88c-.05.5-1.09.74-.95.13.32-.04.64-.11.95-.13Z"/>
          <path class="cls-2" d="M19.27,30.6c-1.82,0,.51-1.13-.13-.03,0,0,.13.03.13.03Z"/>
          <path class="cls-2" d="M22.04,31.56c-1.13-.28.73-.86.26.05-.1.17-.54.05-.26-.05Z"/>
        </g>
      </g>
      <g>
        <g class="cls-3">
          <path class="cls-1" d="M7.56,41.26c1.39-1.01-1.33-2.72.03-3.58,2.02,1.94,1.64.63,3.35-.63.69-.5,1.34-1.39.79-2.11.54-1.09,3-1.61,2.14-3.08,3.76.05.91,4.76,4.58,4.79,2.24-.31,11.85,2.77,6.13,3.41,1.7,1.32,2.5,3.9-.26,4.5-1.92.51-1.75,2.99-3.81,3.82-.98.79-1.87,1.98-1.38,3.18-1.3-.34-3.23.64-3.27-.56s-4.04,5.02-3.53,1.69c-1.09,1.42,2.96-4.99,1.34-4.09-.74,1.59-1.86,2.67-3.41,3.92-.83-2.98-.17-6.01-.89-8.91-.51-.68-2.31-1.29-1.81-2.35Z"/>
          <path class="cls-1" d="M24.72,47.62c-.24-4,3.44,2.83.73,1.35.19-.64-1.4-1.21-.69-1.64"/>
          <path class="cls-1" d="M6.29,36.24c-1.65-.67.75-1.59,1.28-.32,1.58,1.7-.43.44-1.28.32Z"/>
          <path class="cls-1" d="M19.19,35.58c-1.19-.13-1.69-1.73-.6-2.25,1.1,1.06,1.22,1.34.6,2.25Z"/>
          <path class="cls-1" d="M21.59,49.47c-1.95,2.69,1.09.45,1.67,1.62,1.38-1.05-.73-2.98-1.67-1.62Z"/>
          <path class="cls-1" d="M11.37,33.27c-1.29-.31-3.04-1.96-1.59-2.86,1.17.61,1.45,1.8,1.59,2.86Z"/>
          <path class="cls-1" d="M8.15,33.7c-.28-.25-.39-.64-.26-.95.26.28.12.65.26.95Z"/>
          <path class="cls-1" d="M5.84,47.99c-.53.38-.88-.22-.51-.56.79-.28.69.23.51.56Z"/>
          <path class="cls-1" d="M15.65,53.32c-.48,1.01,1.43.55.34-.08-.13.04-.56.27-.34.08Z"/>
          <path class="cls-1" d="M10.98,54.16c-.62-.65.66-.86.67-.09-.02.99-1.12-.37-.67.09Z"/>
          <path class="cls-1" d="M26.28,38.63l.09-.07"/>
          <path class="cls-1" d="M12.56,55.18c.2.35.54,2.08,1.09,1.14-.14-.43-.54-1.17-1.09-1.14Z"/>
          <path class="cls-1" d="M20.02,52.65c-.6.23.66.99.22,1.28-.59-.17-1.03-1.55-.22-1.28Z"/>
          <path class="cls-1" d="M13.65,28.46c1.82,2.73-1.44,1.22.41.05,0,0-.41-.05-.41-.05Z"/>
          <path class="cls-1" d="M27.44,39.37c.4.5.74,1.48,1.49,1.58.81-.75-.43-2.04-1.49-1.58Z"/>
          <path class="cls-1" d="M5.58,38.48c-.49.37-1.49-.16-.88-.54.29.18.61.34.88.54Z"/>
          <path class="cls-1" d="M4.43,41.56c-1.48-1.21,1.36-.56-.08-.11,0,0,.08.11.08.11Z"/>
          <path class="cls-1" d="M5.88,44.19c-.51-.36.34-.77.49-.21.2.6-1.01.35-.49.21Z"/>
        </g>
        <g class="cls-3">
          <path class="cls-1" d="M14.83,28.3c.76.13,1.15-.29,1.4-.89,1.2-1.48,1.06.32,1.15,1.15.96-.81,3.2,1,3.86-.33.96-.14,2.54,1.11,3.19.03,1.81,2.13-2.86,2.46-1.05,4.49,1.37,1.2,3.85,7.83.66,4.84-.09,1.62-1.61,2.89-3.24,1.6-1.23-.89-2.95.15-4.51-.71-1.03-.26-2.29-.31-2.88.44-.41-.88-2.04-1.61-1.22-2.1s-5.46-.37-2.91-1.37c-1.52-.07,4.91-.24,3.48-.82-8.58.24-1.2-2.01,1.34-4.4.22-.56-.25-1.83.73-1.95Z"/>
          <path class="cls-1" d="M18.88,40.62c1.65-1.2,1.16,1.05-.08,1.51-.98.25-.03-1.95.3-1.6"/>
          <path class="cls-1" d="M17.67,25.62c-.32-1.21,1.46-.17.85.61-.41,1.59-.52-.11-.85-.61Z"/>
          <path class="cls-1" d="M24.48,32.77c-.49-.72.34-1.64,1.26-1.22-.22,1.11-.3,1.19-1.26,1.22Z"/>
          <path class="cls-1" d="M16.06,39.54c-2.6-.16.12.84-.3,1.59,1.51.35,1.6-1.64.3-1.59Z"/>
          <path class="cls-1" d="M22.22,27.38c-.4-.81-.2-2.5,1.19-2.02.15.91-.52,1.52-1.19,2.02Z"/>
          <path class="cls-1" d="M20.34,25.7c.03-.26.25-.47.53-.52-.07.26-.39.32-.53.52Z"/>
          <path class="cls-1" d="M9.33,29.92c-.48-.12-.33-.59.14-.51.55.34.22.48-.14.51Z"/>
          <path class="cls-1" d="M10.47,37.62c-.27-.06-.46.32-.23.49.86.23.16-.57.23-.49Z"/>
          <path class="cls-1" d="M7.6,35.27c.16-.61.92.03.39.35-.67.38-.31-.78-.39-.35Z"/>
          <path class="cls-1" d="M25.86,38.03l.09.02"/>
          <path class="cls-1" d="M7.67,36.57c-.18.28-1.16,1.14-.25,1.07.25-.25.54-.81.25-1.07Z"/>
          <path class="cls-1" d="M13.09,39.87c-.16-.13-.37.08-.41.27-.74,1.26-.17-1.24.41-.27Z"/>
          <path class="cls-1" d="M26.67,26.83c-1.12,2.19-1.44-.42.17.26,0,0-.17-.26-.17-.26Z"/>
          <path class="cls-1" d="M25.92,38.98c-.16.42-.65,1.04-.36,1.47.99.16,1.13-1.12.36-1.47Z"/>
          <path class="cls-1" d="M15.77,26.08c-.44-.1-.67-.9-.06-.71.01.24.07.48.06.71Z"/>
          <path class="cls-1" d="M13.08,26.62c.13-1.33,1.03.55.04-.09,0,0-.04.09-.04.09Z"/>
          <path class="cls-1" d="M11.97,28.47c.02-.45.69-.08.39.2-.32.35-.73-.44-.39-.2Z"/>
        </g>
        <g class="cls-3">
          <path class="cls-1" d="M10.64,40.6c.73-1.08-1.41-3.19,1.26-1.43-.19-1.03,2.07-1.45,1.36-2.54,1.6-1.85,2.77-2.82,2.89.37.69.99,9.29,1.71,5.19,2.85,1.64,1.29,1.03,2.64-.89,3.14-.15,1.68-3.13,2.27-2.54,4.08-.81-.21-2.03.41-2.06-.35s-2.54,3.16-2.22,1.06c-.68.89,1.86-3.14.84-2.57-.46,1-1.17,1.68-2.14,2.46-.52-1.87-.11-3.77-.56-5.6-.32-.43-1.45-.81-1.14-1.47Z"/>
          <path class="cls-1" d="M21.43,44.6c-.18-2.47,2.19,1.66.46.85.12-.4-.88-.76-.43-1.03"/>
          <path class="cls-1" d="M9.85,37.45c-1.04-.42.47-1,.81-.2.99,1.07-.27.28-.81.2Z"/>
          <path class="cls-1" d="M17.95,37.04c-.75-.08-1.06-1.09-.38-1.41.69.66.77.84.38,1.41Z"/>
          <path class="cls-1" d="M19.46,45.76c-1.22,1.48.68.38,1.05,1.02.86-.66-.46-1.87-1.05-1.02Z"/>
          <path class="cls-1" d="M13.04,35.58c-.81-.19-1.91-1.23-1-1.8.73.38.91,1.13,1,1.8Z"/>
          <path class="cls-1" d="M11.02,35.85c-.18-.16-.25-.4-.17-.6.17.18.07.41.17.6Z"/>
          <path class="cls-1" d="M9.57,44.83c-.33.24-.56-.14-.32-.35.49-.17.44.14.32.35Z"/>
          <path class="cls-1" d="M15.73,48.18c-.3.63.9.35.21-.05-.09.02-.35.17-.21.05Z"/>
          <path class="cls-1" d="M12.8,48.71c-.39-.41.42-.54.42-.06-.01.62-.71-.23-.42.06Z"/>
          <path class="cls-1" d="M22.41,38.95l.06-.04"/>
          <path class="cls-1" d="M13.79,49.35c.13.23.34,1.3.68.72-.09-.27-.34-.74-.68-.72Z"/>
          <path class="cls-1" d="M18.47,47.76c-.17.03-.09.27.03.39.63,1.14-.99-.56-.03-.39Z"/>
          <path class="cls-1" d="M14.47,32.56c.65.94.15,1.56-.19.26.18-.13.69-.25.19-.26Z"/>
          <path class="cls-1" d="M23.14,39.42c.25.32.47.93.94.99.51-.47-.27-1.28-.94-.99Z"/>
          <path class="cls-1" d="M9.4,38.86c-.3.23-.94-.1-.55-.34.18.12.38.21.55.34Z"/>
          <path class="cls-1" d="M8.68,40.79c-.93-.76.85-.35-.05-.07,0,0,.05.07.05.07Z"/>
          <path class="cls-1" d="M9.59,42.44c-.32-.23.21-.48.31-.13.13.38-.64.22-.31.13Z"/>
        </g>
        <g class="cls-3">
          <path class="cls-1" d="M5.28,42.13c.2-1.28-2.37-1.11-2.12-2.3,2.37.76,1.84-2.91.63-3.79-.37-.93.7-2.49-.67-3.03,2.17-1.83,3.27,2.59,5.37.78,1.16-1.42,8.2-4.03,5.39-.86,3.99.18,2.23,2.43,2.46,4.36,1.04,1.71-.73,4.4,1.41,5.67-.91.43-1.38,2.01-2.13,1.27s.79,5.2-.92,2.83c.25,1.44-1.36-4.65-1.71-3.27,2.27,8.67-2.22.82-5.33-1.05-.69-.18-2.03.33-2.39-.6Z"/>
          <path class="cls-1" d="M18.48,37.68c-.7-.26-.75-.9-.08-1.18.57.11,2.84,1.63,1.29,1.69-.28-.49-1.52-.1-1.35-.7"/>
          <path class="cls-1" d="M1.6,39.56c-1.26.4-.6-1.37.51-.84,1.91.29.02.5-.51.84Z"/>
          <path class="cls-1" d="M8.27,32.74c-.83.53-1.96-.36-1.67-1.14,1.35.12,1.46.32,1.67,1.14Z"/>
          <path class="cls-1" d="M17.87,40.41c.57,2.69.8-.24,1.88.2.16-1.33-2.2-1.53-1.88-.2Z"/>
          <path class="cls-1" d="M2.6,35.15c-1,.49-2.86.17-2.58-1.03,1-.19,1.87.43,2.58,1.03Z"/>
          <path class="cls-1" d="M1.1,37.01c-.3-.02-.6-.22-.71-.48.31.05.45.35.71.48Z"/>
          <path class="cls-1" d="M8.36,47.27c-.05.49-.61.31-.62-.11.29-.58.52-.18.62.11Z"/>
          <path class="cls-1" d="M16.91,45.81c-.01.26.47.42.61.2.02-.89-.67-.1-.61-.2Z"/>
          <path class="cls-1" d="M14.86,48.65c-.71-.1-.18-.88.31-.39.59.6-.81.34-.31.39Z"/>
          <path class="cls-1" d="M13.97,31.18v-.09"/>
          <path class="cls-1" d="M16.33,48.52c.34.15,1.55,1.04,1.28.19-.32-.2-1.01-.48-1.28-.19Z"/>
          <path class="cls-1" d="M18.9,43.21c-.12.16.18.35.4.38,1.65.68-1.45.17-.4-.38Z"/>
          <path class="cls-1" d="M.99,30.95c1.52.48,1.6,1.46.08.41.02-.24.38-.81-.08-.41Z"/>
          <path class="cls-1" d="M15.04,31.07c.51.12,1.3.57,1.76.27.02-.84-1.44-1.11-1.76-.27Z"/>
          <path class="cls-1" d="M2.54,41.33c-.04.48-.91.64-.8.09.27-.02.54-.09.8-.09Z"/>
          <path class="cls-1" d="M3.76,43.87c-1.53-.05.42-1.02-.11-.03,0,0,.11.03.11.03Z"/>
          <path class="cls-1" d="M6.11,44.83c-.48.03-.29-.65.14-.38.46.24-.32.74-.14.38Z"/>
        </g>
        <g class="cls-3">
          <path class="cls-2" d="M16.56,32.81c1.84.26,1.11-2.63,2.82-2.3,0,2.48.74,1.52,3.05,1.77.92.12,2.11-.03,2.24-.85,1.2-.37,3.51.93,4.04-.61,2.82,2.4-3.02,3.79-.23,6.07,1.99,1.26,6.82,9.42,2.02,6.18.28,2.07-1.26,4.11-3.71,2.74-1.78-.92-3.69.8-5.89,0-1.37-.12-2.98.07-3.54,1.16-.73-1.06-2.97-1.68-2.07-2.48s-7,.63-4.02-1.19c-1.94.21,6.16-1.31,4.21-1.78-11.23,2.13-1.75-2.45.61-6.01.14-.77-.77-2.33.45-2.69Z"/>
          <path class="cls-2" d="M24.71,48.05c1.88-1.95,1.7,1.08.27,1.99-.88.16-.89-.74-.41-1.16.04-.28-.28-1.24.4-.98"/>
          <path class="cls-2" d="M19.5,28.74c-.16-2.2,1.92.45,1.16,1.61-.7,0-.64-1.25-1.16-1.61Z"/>
          <path class="cls-2" d="M29.88,36.68c-.79-.82.01-2.21,1.29-1.84-.01,1.45-.07,1.63-1.29,1.84Z"/>
          <path class="cls-2" d="M20.88,47.22c-3.55.42.47,1.04.02,2.13,1.99.16,1.64-2.45-.02-2.13Z"/>
          <path class="cls-2" d="M25.7,30.11c-.7-.96-.87-3.21,1.01-2.88.41,1.15-.29,2.09-1.01,2.88Z"/>
          <path class="cls-2" d="M22.91,28.3c-.02-.34.2-.67.54-.79-.02.36-.42.49-.54.79Z"/>
          <path class="cls-2" d="M9.99,36.05c-.64-.07-.56-.71.05-.7.79.32.4.58-.05.7Z"/>
          <path class="cls-2" d="M13.33,45.86c-1.15.33.64,1.29.32.17-.12-.06-.64-.19-.32-.17Z"/>
          <path class="cls-2" d="M9.11,43.38c.05-.83,1.17-.13.58.38-.77.63-.58-.96-.58-.38Z"/>
          <path class="cls-2" d="M32.92,43.25h.12"/>
          <path class="cls-2" d="M9.53,45.06c-.15.39-1.2,1.72-.06,1.44.25-.38.48-1.15.06-1.44Z"/>
          <path class="cls-2" d="M17.2,48.25c-.24-.14-.45.18-.46.43-.62,1.79-.53-1.57.46-.43Z"/>
          <path class="cls-2" d="M31.19,28.48c-.85,3.06-1.96-.23.28.3,0,0-.28-.3-.28-.3Z"/>
          <path class="cls-2" d="M33.23,44.47c-.1.59-.58,1.48-.1,1.99,1.29,0,1.16-1.68.1-1.99Z"/>
          <path class="cls-2" d="M17.21,29.73c-.59-.04-1.06-1.04-.25-.92.07.31.2.61.25.92Z"/>
          <path class="cls-2" d="M13.93,30.99c-.16-1.77,1.45.52.03-.13,0,0-.03.13-.03.13Z"/>
          <path class="cls-2" d="M12.99,33.62c-.09-.58.86-.25.54.18-.33.52-1.03-.43-.54-.18Z"/>
        </g>
        <g class="cls-3">
          <path class="cls-2" d="M9.38,37.87c1.12-.99-.5-3.63,1.81-1.16.11-1.11,2.7-.97,2.27-2.29.58-.62,2.36-.56,2.06-1.67,2.54.62-.28,3.29,2.19,3.87,1.57.15,7.53,3.71,3.52,3.22,1.38,1.77.29,3.01-1.94,3.03-.69,1.71-4.09,1.54-4.03,3.59-.82-.43-2.33-.1-2.12-.9s-3.73,2.62-2.74.53c-1.02.75,2.99-2.78,1.71-2.45-5.59,4.93-1.86-1.23-1.96-3.96-.22-.53-1.33-1.21-.78-1.82Z"/>
          <path class="cls-2" d="M19.85,44.8c.33-1.78,1.41.25.91,1.16-.53.65-1.23-1.34-.83-1.34"/>
          <path class="cls-2" d="M9.5,34.39c-.99-.71.84-.9.94,0,.74,1.37-.39.21-.94,0Z"/>
          <path class="cls-2" d="M18.43,36.05c-.77-.26-.83-1.39.03-1.57.54.87.59,1.06-.03,1.57Z"/>
          <path class="cls-2" d="M17.36,45.5c-1.79,1.23.63.57.83,1.33,1.16-.49.06-2.06-.83-1.33Z"/>
          <path class="cls-2" d="M13.54,33.27c-.79-.39-1.71-1.75-.53-2.12.68.59.64,1.41.53,2.12Z"/>
          <path class="cls-2" d="M11.26,33.03c-.14-.21-.14-.48,0-.67.12.23-.05.44,0,.67Z"/>
          <path class="cls-2" d="M6.9,41.98c-.42.16-.57-.28-.24-.45.58-.05.45.25.24.45Z"/>
          <path class="cls-2" d="M12.55,47.06c-.53.57.86.6.25,0-.1,0-.43.08-.25,0Z"/>
          <path class="cls-2" d="M9.21,46.85c-.29-.53.62-.45.48.05-.21.64-.69-.42-.48-.05Z"/>
          <path class="cls-2" d="M22.67,39.19l.07-.03"/>
          <path class="cls-2" d="M10.08,47.77c.07.27-.04,1.45.52.92,0-.31-.15-.86-.52-.92Z"/>
          <path class="cls-2" d="M15.66,47.32c-.19-.01-.18.26-.09.42.33,1.33-.9-.82.09-.42Z"/>
          <path class="cls-2" d="M16.04,30.5c.41,1.14-.32,1.67-.29.22.24-.09.83-.08.29-.22Z"/>
          <path class="cls-2" d="M23.32,39.86c.17.39.22,1.09.71,1.27.71-.38.07-1.41-.71-1.27Z"/>
          <path class="cls-2" d="M8.58,35.73c-.39.16-.99-.34-.49-.49.16.17.35.32.49.49Z"/>
          <path class="cls-2" d="M7.2,37.56c-.77-1.03,1.03-.15-.03-.09,0,0,.03.09.03.09Z"/>
          <path class="cls-2" d="M7.67,39.51c-.28-.33.39-.44.37-.06.01.43-.76.06-.37.06Z"/>
        </g>
      </g>
    </g>
  </g>
</svg>