<?xml version="1.0" encoding="UTF-8"?>
<svg id="Layer_2" data-name="Layer 2" xmlns="http://www.w3.org/2000/svg" viewBox="0 0 486.4 330.59">
  <defs>
    <style>
      .cls-1 {
        fill: none;
      }

      .cls-2 {
        fill: #1b1a18;
      }

      .cls-3 {
        opacity: .76;
      }

      .cls-4 {
        fill: #4c4b46;
      }
    </style>
  </defs>
  <g id="Layer_1-2" data-name="Layer 1">
    <g>
      <g class="cls-3">
        <rect class="cls-4" x="244.37" y="176.29" width="15.93" height="11.7"/>
        <path class="cls-4" d="M197.07,176.09v29.9h.59l4.36.03h.01l3.48.02,7.49.05v-30h-15.93ZM223.45,179.65c.83,1.99.04,3.82-1.38,5.52-.56-.41-1.13-.82-1.7-1.24v13.78c1.72-3.73,3.32-7.42,4.47-10.53,2.36-6.37,2.84-10.37-1.39-7.53ZM224.24,200.56c-.6,1.62-2.09,2.25-3.87,2.48v2.93c5.18-2.59,8-4.81,3.87-5.41ZM197.07,176.09v29.9h.59l4.36.03h.01l3.48.02,7.49.05v-30h-15.93ZM364.87,215.77c-1.42-5.27-3.59-10.31-6.29-15.17-.13-.24-.26-.47-.4-.71-8.31-14.65-21.35-27.7-33.29-40.39,0,0,0-.01-.01-.01-1.04-1.1-2.07-2.21-3.09-3.31-.46-.49-.92-1-1.37-1.52-.03-.03-.06-.07-.09-.1-2.35-2.71-4.59-5.74-6.07-8.91-.72-1.52-1.25-3.08-1.55-4.64-.24-1.29-.31-2.59-.18-3.88.11-1.16.4-2.32.88-3.46,2.13-5.06,7.44-7.92,11.17-11.96.78-.84,1.48-1.75,2.09-2.7,1.22-1.88,2.12-3.95,2.7-6.12.31-1.14.53-2.3.67-3.48.59-5.08-.42-10.38-2.94-14.8-1.31-2.34-3.05-4.43-5.2-6.11-.66,4.27-3.93,7.16-8.05,8.82-2.14.86-4.52,1.4-6.87,1.61-1.07.1-2.13.14-3.17.11-1.57-.04-3.15-.16-4.74-.3h-.01c-1.92-.16-3.85-.35-5.76-.45-3.17-.17-6.3-.12-9.28.65l-.75.21c-.74.22-1.46.49-2.18.82-.1.9-.3,1.74-.6,2.52-1.05,2.83-3.28,4.94-6.11,6.44-2.15,1.16-4.66,1.97-7.25,2.47-2.83.56-5.77.76-8.49.68-1.26-.04-2.55-.08-3.85-.11-1.66-.03-3.35-.03-5.03.03-6.46.24-12.7,1.5-16.42,6.18-.23.28-.44.58-.65.89-.29-.72-.57-1.45-.84-2.18-.76-2.04-1.44-4.12-2.04-6.22-1.35-4.79-2.29-9.68-2.8-14.63-5.94-1.98-10.96,4.94-12.47,10.97-.28,1.13-.55,2.3-.85,3.48h0c-.05.23-.1.42-.16.64v.02s-.02.09-.03.13c-.17.68-.35,1.36-.55,2.02-1.2,4.14-2.98,7.94-6.78,9.61-2.19.97-4.71,1-6.9,1.97-10.47,4.65-4.74,17.31-3.64,26.32.02.1.03.2.04.3.01.06.02.12.02.18.14,1.29.17,2.5.03,3.59-.06.48-.13.94-.22,1.38-.1.62-.23,1.21-.38,1.77-1.08,4.16-3.1,6.88-5.64,9.09-1.1.97-2.31,1.84-3.58,2.68-.75.51-1.53,1.01-2.33,1.52-2.35,1.5-4.82,3.08-7.23,5.16-.75.65-1.45,1.33-2.1,2.03-.15.15-.29.3-.42.46-.26.28-.51.57-.75.86v33.14h-24.1c-6.36,5.5-12.57,11.1-14.58,19.71,12.65,2.46,23.21-4.21,35.86-1.75-1.46-9.26,18.23.28,21.47-8.52,6,.87,2.81,3.88-4.05,7.52-.39.21-.79.42-1.2.63-16.47,8.43-50.2,19.72-36.84,16.55-29.62,23.74,50.16-1.5,41.24,8.52-8.93,10.01,14.08,14.27,21.88,25.17,5.11-12.53,20.76-16.63,34.48-17.02.32,0,.64,0,.96-.02,5.64-.09,11.48.1,17.2-.15,7.04-.31,13.9-1.31,19.98-4.35,1.17-.58,2.32-1.25,3.44-2,1.98-1.34,3.85-2.96,6.16-3.6,4.4-1.23,8.83,1.34,13,3.21,8.29,3.71,18.62,4.58,26.09-.58,10.33-7.11,10.96-21.76,10.55-34.22,1.52,2.66,3.82,4.79,6.51,6.27,3.44,1.89,7.51,2.71,11.39,2.16,1.47-.19,2.9-.58,4.27-1.19-.01-4.82-.69-9.46-1.91-13.93ZM236.5,169.01h30.98v4.88c-.06.48-.07,1.58-.05,2.58,0,.66.02,1.19.05,1.24v14.04c-.32,1.16-.54,2.34-.65,3.52h-22.46v11.01h23.3v7.08h-31.17v-44.35ZM189.2,213.36v-44.35h23.8v-4.17c.14.01.3.02.45.04-.16-.1-.31-.19-.45-.28v-17.71h7.37v66.47h-31.17ZM202.02,206.02h.01l3.48.02,7.49.05v-30h-15.93v29.9h.59l4.36.03ZM165.7,192.74c-2.02,4.06-4.15,8.14-7.38,11.81-.52.59-1.05,1.16-1.6,1.73h8.98v-13.54Z"/>
        <path class="cls-4" d="M287.64,284.64c.8-5.1,6.38-8.93,11.48-7.88-.76,2.52,3.68,3.3,4.86,5.66.82,1.64-.17,3.56-1.15,5.12-3.92,6.28-7.84,12.57-11.75,18.85-3.74,2.2-9.23-2.06-7.98-6.18.68-2.26,2.81-3.92,3.34-6.23.58-2.49-.85-5-.95-7.55s2.76-5.5,4.7-3.82l-2.54,2.04Z"/>
        <path class="cls-4" d="M227.62,76.24c-3.24-1.82-2.28-7.39,1.14-8.86s7.57.55,9.55,3.67,2.24,7.01,2.04,10.7-.8,7.38-.31,11.04c-1.84-.04-3.67-.08-5.51-.13,1.63-6-1.89-12.94-7.73-15.22l.82-1.21Z"/>
        <path class="cls-4" d="M335.91,152.28c-3.8-4.08-4.57-10.64-1.83-15.48s8.79-7.6,14.28-6.52c-1.06,6.16-.88,12.54.53,18.63-4.25,1.17-8.73,1.49-13.1.92l.12,2.45Z"/>
        <path class="cls-4" d="M248.44,279.9c-3.85.31-7.66,1.38-11.19,3.13-.74.37-1.49.78-2.05,1.44-1.62,1.9-1.01,5.25.73,7s4.23,2.25,6.58,2.33,4.74-.16,7.03.42c-1.16,2.93-1.22,6.38-.15,9.36,4.7.89,8.94-3.01,12.43-6.63.42-.43.85-.89,1.06-1.48.29-.83.08-1.75-.08-2.61-.66-3.41-.73-6.97-.21-10.41-3.31-.91-6.62-1.82-9.92-2.74-1.52-.42-3.5-.64-4.29.86l.08-.68Z"/>
        <path class="cls-4" d="M291.07,84.21c-3.37-6.5-6.7-13.56-5.8-20.81s7.88-14.23,15.01-12.37c3.41,10.36.29,22.54-7.69,30.03l-1.52,3.16Z"/>
        <path class="cls-4" d="M262.04,67.37c-.35-3.78,1.81-7.67,5.23-9.39-.32,2.69-1.82,5.22-4.03,6.81l-1.2,2.59Z"/>
        <path class="cls-4" d="M133.86,168.59l-4.77-1.45c-.8-3,1.87-6.38,5-6.33s5.69,3.51,4.8,6.48c-1.67.04-3.35.07-5.02.11v1.19Z"/>
        <path class="cls-4" d="M171.32,273.62c-3.68.14-4.87,6.32-1.51,7.8s7.18-3.54,4.82-6.34c-1.58-.44-3.17-.88-4.75-1.32l1.44-.14Z"/>
        <path class="cls-4" d="M127.59,251.01c-.45-1.94.87-4.11,2.81-4.63s4.18.71,4.77,2.61c-.16,1.92-.36,3.95-1.5,5.51s-3.56,2.38-5.07,1.17c-1.79-1.84-2.01-4.99-.49-7.06l-.52,2.39Z"/>
        <path class="cls-1" d="M369.15,221.67h1.24"/>
        <path class="cls-4" d="M132.43,269.2c-1.71,4.11-3.43,8.23-5.14,12.34-.36.86-.73,1.79-.56,2.7.42,2.28,3.95,2.66,5.63,1.05s1.93-4.17,1.96-6.49-.02-4.81,1.29-6.73l-3.18-2.87Z"/>
        <path class="cls-4" d="M211.45,295.69c-2.5-1.3-4.47,2.54-4.47,5.34,0,2.8-.82,6.72-3.63,6.46-.63-3.2-1.12-6.63.18-9.62s5.08-5.14,7.98-3.6l-.06,1.42Z"/>
        <path class="cls-4" d="M346.21,59.65c-2.4,5.11-4,10.6-4.71,16.2-3.07.1-6.16-.58-8.91-1.94,4.16-3.06,7.08-7.72,8.01-12.77,2.85.5,5.71,1,8.56,1.5l-2.96-2.98Z"/>
        <path class="cls-4" d="M372.79,234.94c-1.46,5.7-2.26,11.56-2.37,17.44-.04,1.87.33,4.22,2.14,4.75.82.24,1.71,0,2.5-.34,4.17-1.77,7.04-6.21,6.91-10.71s-3.25-8.77-7.52-10.3l-1.66-.83Z"/>
        <path class="cls-4" d="M204.76,89.89c-2.83-.8-5.92-2.01-7.08-4.69s1.63-6.57,4.23-5.21c.97,3.2,1.94,6.4,2.91,9.6l-.06.3Z"/>
        <path class="cls-4" d="M171.94,107.69l.19-7.19c2.69-1.09,6.34.97,6.23,3.86s-4.76,4.39-6.22,1.9l-.21,1.44Z"/>
        <path class="cls-4" d="M163.32,138.05c-.89-1.99,1.42-4.43,3.55-3.9s3.11,3.41,1.96,5.27-3.87,2.41-5.81,1.4c-1.52-.79-2.07-3.62-.36-3.78l.66,1.01Z"/>
      </g>
      <g class="cls-3">
        <path class="cls-4" d="M356.92,65.76c1.58.93,2.71,2.49,4.28,3.43,4.12,2.45,9.27-.07,13.75-1.79,4.48-1.72,11.07-1.64,12.44,2.93-4.64,3.98-8.71,8.59-12.08,13.67,7.21-.2,11.89,7.1,15.85,13.08s11.23,12.09,17.55,8.64c5.07,2.94,7.35,8.86,10.59,13.73s9.38,9.21,14.64,6.62c-.55,9.54-10.29,17.53-19.85,16.29-4.2-.55-8.35-2.59-12.49-1.69-6.4,1.4-9.16,8.78-10.57,15.13-4.89,22.03-8.14,47.37-26.73,60.37-5.61-3.34-7.99-11.13-5.18-16.99-7.71,5.74-17.26,11.8-26.31,8.5-6.55-2.38-10.55-9.19-11.85-15.99-.65-3.41-.97-7.31-3.69-9.5-1.42-1.15-3.27-1.61-4.99-2.25-10-3.74-15.72-13.84-22-22.42-6.28-8.58-15.98-16.94-26.39-14.56,3.47-9.65-3.97-25.84,6.3-24.7,10.27,1.14-40.83-37.4-12.76-29.41-11.57-10.15,41.1,29.01,34.17,15.32-7,1.85-9.63-14.6-14.85-9.62-4.01-8.96-12.89-12.59-16.9-21.55,9.6-3.84,19.06,1.34,28.59,2.34,9.03.95,16.73-3.12,25.45-.97,8.33,2.05,13.14,7.3,22.21,2.55,6.02-3.16,12.02-16.37,20.8-11.17Z"/>
        <path class="cls-4" d="M294.69,191.1c3.58-1.75,8.47.04,10.04,3.68-1.93.63-.47,3.74-1.44,5.52-.68,1.23-2.33,1.46-3.74,1.54-5.7.33-11.41.66-17.11.98-3.04-1.36-2.76-6.65.4-7.69,1.73-.57,3.72.02,5.41-.66,1.83-.74,2.79-2.73,4.36-3.92,1.57-1.19,4.7-.71,4.49,1.24l-2.41-.69Z"/>
        <path class="cls-4" d="M400.2,61.99c-.27-2.82,3.68-4.67,6.11-3.19s2.98,4.95,1.88,7.56-3.46,4.48-5.88,5.98-5.03,2.75-7.13,4.67c-.78-1.16-1.56-2.32-2.34-3.48,4.52-1.63,7.36-6.88,6.23-11.51l1.12-.02Z"/>
        <path class="cls-4" d="M399.74,162.87c.91-4.16,4.72-7.53,9-7.96s8.68,2.12,10.42,6.02c-4.37,2.05-8.32,4.97-11.56,8.53-2.61-2.13-4.79-4.78-6.35-7.75l-1.5,1.15Z"/>
        <path class="cls-4" d="M285.05,174.54c-2.41,1.19-4.63,2.8-6.5,4.71-.48.49-.97,1.02-1.62,1.21-.47.13-.94.06-1.4-.01-.61-.09-1.24-.19-1.86-.31-2.3-.44-4.59-1.11-6.19-2.43-.68-.56-.61-3.31,0-3.82,1.26-1.1,2.78-1.9,4.37-2.28-.64-1.68-1.84-3.06-2.82-4.56-.99-1.5-1.77-3.26-1.43-5.12.35-1.86,2.2-3.71,4.11-3.54.67.06,1.26.34,1.82.64,2.66,1.43,5.01,3.32,6.91,5.59l-.46.24c1.3-.16,2.03,1.17,2.43,2.3.36,1.01.72,2.01,1.08,3.02.52,1.45,1.04,2.91,1.56,4.36Z"/>
        <path class="cls-4" d="M423.09,104.99c2.63-4.96,5.63-10.14,10.62-12.78s12.48-1.36,14.44,3.9c-5.06,6.68-14.14,10.11-22.4,8.43l-2.67.44Z"/>
        <path class="cls-4" d="M420.97,79.51c2.24-1.88,5.66-2.25,8.25-.88-1.84.99-4.11,1.17-6.09.49l-2.16.39Z"/>
        <path class="cls-4" d="M300.46,44.29l-1.18-3.61c1.55-1.82,4.86-1.65,6.21.32s.28,5.09-1.99,5.84c-.76-1.03-1.52-2.05-2.28-3.08l-.76.52Z"/>
        <path class="cls-4" d="M250.46,113.85c-1.71-2.22-6.14-.25-5.6,2.5s5.4,2.91,6.14.21c-.42-1.18-.84-2.36-1.26-3.54l.72.83Z"/>
        <path class="cls-4" d="M245.52,76.68c1.03-1.13,2.99-1.27,4.17-.29s1.39,2.91.44,4.12c-1.29.74-2.66,1.51-4.15,1.49s-3.07-1.17-2.98-2.64c.38-1.93,2.27-3.45,4.25-3.41l-1.74.73Z"/>
        <path class="cls-1" d="M370.45,214.11l.55.77"/>
        <path class="cls-4" d="M236.14,87.7c-3.36.74-6.72,1.49-10.07,2.23-.7.16-1.45.33-1.96.84-1.26,1.27.05,3.63,1.81,3.96s3.49-.63,4.97-1.64,3.04-2.13,4.83-2.16l.42-3.24Z"/>
        <path class="cls-4" d="M254.15,148.55c-.28-2.13-3.58-1.66-5.35-.43s-4.62,2.45-5.68.59c1.75-1.8,3.7-3.62,6.17-4.12s5.49.9,5.79,3.38l-.92.59Z"/>
        <path class="cls-4" d="M462.92,128.5c-4.3.76-8.47,2.18-12.33,4.2-1.41-1.87-2.35-4.09-2.69-6.4,3.77,1.24,8.01,1.01,11.61-.64.94,2,1.88,3.99,2.82,5.99l.58-3.15Z"/>
        <path class="cls-4" d="M363.64,222.22c-4.25,1.6-8.31,3.69-12.09,6.2-1.2.8-2.52,2.06-2.06,3.42.21.62.76,1.06,1.32,1.41,2.96,1.82,7.03,1.65,9.82-.42s4.12-5.88,3.21-9.21l-.2-1.4Z"/>
        <path class="cls-4" d="M381.5,53.77c-.74-2.11-1.33-4.57-.15-6.47s4.88-1.87,5.16.34c-1.6,2.01-3.2,4.03-4.8,6.04l-.21.09Z"/>
        <path class="cls-4" d="M355.78,41.18l4.64-3.04c1.88,1.19,2.18,4.38.3,5.58s-4.88-1.03-3.94-3.03l-1,.5Z"/>
        <path class="cls-4" d="M332.76,49.18c.87-1.43,3.43-1.07,4.03.49s-.79,3.44-2.47,3.54-3.23-1.35-3.44-3c-.17-1.29,1.38-2.88,2.24-1.89l-.35.86Z"/>
      </g>
      <g class="cls-3">
        <rect class="cls-4" x="244.37" y="176.29" width="15.93" height="11.7"/>
        <path class="cls-4" d="M334.07,201.95c-.79-8.61-4.92-16.27-10.34-23.41-1.47-1.93-3.03-3.82-4.64-5.67h0c-4.26-4.89-8.86-9.55-13.13-14.16-2.87-3.09-5.77-7.05-5.85-11-.03-1.06.15-2.11.58-3.15.18-.43.4-.84.66-1.23h0c.71-1.11,1.66-2.04,2.67-2.94.01,0,.02,0,.02-.01,1.24-1.09,2.57-2.13,3.67-3.33.98-1.06,1.76-2.28,2.32-3.58,2.53-5.78,1.05-13.32-4.01-17.28-.72,4.72-6.55,6.75-11.36,6.62-4.82-.13-9.9-1.4-14.27.59-.64,5.82-8.2,7.79-14.11,7.61-.51-.02-1.03-.03-1.55-.05-5.55-.15-11.78-.03-14.75,4.43-1.86-4.62-3.06-9.51-3.57-14.46-3.73-1.25-6.89,3.1-7.84,6.89s-1.66,8.4-5.25,9.99c-1.38.61-2.96.63-4.34,1.24-.62.27-1.15.59-1.6.96-4.53,3.6-1,11.13-.61,16.3.05.66.05,1.27-.02,1.83-.61,4.78-2.81,7.04-5.58,8.98-.26.18-.53.36-.8.54v35.38c1.78-.23,3.27-.86,3.87-2.48,4.13.6,1.31,2.82-3.87,5.41v7.39h-17.38c-5.94,2.34-9.55,3.75-5.19,2.72-11.15,8.93,2.37,6.82,13.79,5.06h0c3.63-.57,7.05-1.1,9.4-1.23,2.6-.15,3.89.19,2.71,1.52-5.6,6.29,8.85,8.96,13.75,15.81,1-2.45,2.64-4.39,4.69-5.9.28-.21.57-.41.87-.6.01,0,.01,0,.01,0,2.94-1.91,6.55-3.05,10.28-3.65,2.15-.35,4.32-.52,6.42-.55,8.75-.14,18.28.8,25.51-4.09,1.25-.84,2.43-1.85,3.88-2.26,2.76-.77,5.54.85,8.16,2.02,5.21,2.33,11.7,2.87,16.39-.36,6.09-4.19,6.82-12.54,6.67-20.02-.01-.5-.03-.99-.04-1.48,1.78,3.13,5.28,5.09,8.87,5.37h.01c1.53.11,3.07-.07,4.51-.62.18-.06.36-.13.54-.21,0-.99-.05-1.97-.15-2.94ZM236.5,213.36v-44.35h30.98v4.88c-.61.51-.68,3.26,0,3.82v14.04c-.32,1.16-.54,2.34-.65,3.52h-22.46v11.01h23.3v7.08h-31.17ZM202.03,206.02c1.26-.2,2.53-.37,3.82-.43,1.59-.08,3.22-.01,4.9.32-.18-1.11.14-1.79.77-2.19.39-.26.89-.41,1.48-.49v-27.14h-2.12c-.09.14-.18.28-.26.42-.31.51-.6,1.02-.89,1.54-1.98,3.67-3.47,7.64-6.47,11.05-.77.87-1.59,1.7-2.46,2.5-1.2,1.13-2.47,2.21-3.73,3.3v11.09l4.95.03h.01ZM189.2,207.17v-3.02c-.41.89-.74,1.84-.98,2.86.33.06.66.12.98.16Z"/>
        <path class="cls-4" d="M284.5,239.41c.5-3.21,4.01-5.61,7.21-4.95-.48,1.58,2.31,2.07,3.05,3.55.52,1.03-.11,2.24-.72,3.22-2.46,3.95-4.92,7.89-7.38,11.84-2.35,1.38-5.8-1.29-5.02-3.88.43-1.42,1.76-2.46,2.1-3.91.36-1.57-.53-3.14-.6-4.75s1.73-3.46,2.95-2.4l-1.6,1.28Z"/>
        <path class="cls-4" d="M246.79,108.49c-2.03-1.14-1.43-4.65.72-5.56s4.76.35,6,2.31,1.41,4.41,1.28,6.72-.5,4.64-.2,6.94c-1.15-.03-2.31-.05-3.46-.08,1.02-3.77-1.19-8.13-4.85-9.56l.51-.76Z"/>
        <path class="cls-4" d="M314.83,156.26c-2.39-2.57-2.87-6.68-1.15-9.73s5.52-4.78,8.97-4.1c-.67,3.87-.55,7.88.33,11.7-2.67.74-5.48.94-8.23.58l.07,1.54Z"/>
        <path class="cls-4" d="M259.87,236.44c-2.42.2-4.81.87-7.03,1.97-.47.23-.94.49-1.29.9-1.02,1.19-.64,3.3.46,4.4s2.66,1.41,4.13,1.46,2.98-.1,4.42.27c-.73,1.84-.77,4.01-.1,5.88,2.95.56,5.61-1.89,7.81-4.16.26-.27.53-.56.66-.93.18-.52.05-1.1-.05-1.64-.42-2.14-.46-4.38-.13-6.54-2.08-.57-4.16-1.15-6.24-1.72-.95-.26-2.2-.4-2.7.54l.05-.42Z"/>
        <path class="cls-4" d="M286.65,113.5c-2.12-4.08-4.21-8.52-3.65-13.08s4.95-8.94,9.43-7.77c2.14,6.51.18,14.16-4.83,18.87l-.95,1.98Z"/>
        <path class="cls-4" d="M268.42,102.92c-.22-2.38,1.14-4.82,3.28-5.9-.2,1.69-1.14,3.28-2.53,4.28l-.75,1.62Z"/>
        <path class="cls-4" d="M187.89,166.51l-2.99-.91c-.5-1.88,1.17-4.01,3.14-3.98s3.57,2.2,3.01,4.07c-1.05.02-2.1.05-3.15.07v.75Z"/>
        <path class="cls-4" d="M211.42,232.49c-2.31.09-3.06,3.97-.95,4.9s4.51-2.22,3.03-3.98c-1-.28-1.99-.55-2.99-.83l.9-.09Z"/>
        <path class="cls-4" d="M183.95,218.29c-.28-1.22.55-2.58,1.77-2.91s2.62.45,2.99,1.64c-.1,1.21-.23,2.48-.94,3.46s-2.23,1.49-3.19.74c-1.13-1.16-1.26-3.13-.31-4.43l-.33,1.5Z"/>
        <path class="cls-1" d="M335.7,199.85h.78"/>
        <path class="cls-4" d="M186.99,229.71c-1.08,2.58-2.15,5.17-3.23,7.75-.23.54-.46,1.12-.35,1.7.26,1.43,2.48,1.67,3.54.66s1.21-2.62,1.23-4.08-.01-3.02.81-4.23l-2-1.8Z"/>
        <path class="cls-4" d="M236.64,246.36c-1.57-.81-2.81,1.6-2.81,3.35s-.51,4.22-2.28,4.06c-.4-2.01-.71-4.16.11-6.04s3.19-3.23,5.01-2.26l-.04.89Z"/>
        <path class="cls-4" d="M321.29,98.07c-1.51,3.21-2.51,6.66-2.96,10.17-1.93.06-3.87-.36-5.6-1.22,2.61-1.92,4.45-4.85,5.03-8.02,1.79.31,3.59.63,5.38.94l-1.86-1.87Z"/>
        <path class="cls-4" d="M337.99,208.19c-.92,3.58-1.42,7.26-1.49,10.96-.02,1.17.21,2.65,1.35,2.98.52.15,1.08,0,1.57-.21,2.62-1.11,4.42-3.9,4.34-6.73s-2.04-5.51-4.72-6.47l-1.04-.52Z"/>
        <path class="cls-4" d="M232.43,117.06c-1.78-.5-3.72-1.26-4.45-2.95s1.03-4.13,2.66-3.27c.61,2.01,1.22,4.02,1.83,6.03l-.04.19Z"/>
        <path class="cls-4" d="M211.81,128.24l.12-4.52c1.69-.69,3.99.61,3.92,2.42s-2.99,2.76-3.91,1.19l-.13.9Z"/>
        <path class="cls-4" d="M206.39,147.32c-.56-1.25.89-2.78,2.23-2.45s1.95,2.14,1.23,3.31-2.43,1.51-3.65.88c-.96-.5-1.3-2.27-.23-2.38l.42.64Z"/>
      </g>
      <g class="cls-3">
        <rect class="cls-4" x="244.37" y="176.29" width="15.93" height="11.7"/>
        <path class="cls-4" d="M267.81,202.95c-7.67-1.65-18.18,3.08-23.44,1.7v-9.38h22.46c-.25,2.56.03,5.14.98,7.68Z"/>
        <path class="cls-4" d="M193.66,213.36h5.6c-1.24,1.16-2.6,2.24-4.16,3.18-.59-1.05-1.07-2.11-1.44-3.18Z"/>
        <path class="cls-4" d="M213,197.89c-.93.72-1.78,1.49-2.58,2.3-.3.3-.59.61-.88.92-1.17,1.27-2.24,2.61-3.29,3.97-.14.17-.27.34-.4.51-.11.15-.23.3-.34.45l-3.48-.02h-.01l-4.95-.03v-29.9h15.93v21.8Z"/>
        <path class="cls-4" d="M330.94,89.69c-.85,1.94-2.2,3.61-3.84,4.92-3.65,2.94-8.76,4.16-13.25,2.71,1.14,1.15,2.29,2.35,3.41,3.6.7.79,1.4,1.59,2.08,2.41,1.76,2.14,3.37,4.39,4.63,6.73.82,1.53,1.5,3.1,1.97,4.7.41,1.39.67,2.81.73,4.25.07,1.4-.04,2.82-.37,4.25-.5,2.19-1.47,4.18-2.8,5.96,0,.01,0,.01,0,.01-2.46,3.33-6.12,5.89-10.08,7.54-.29.13-.59.25-.88.36-.46.18-.92.34-1.38.49-2.39.78-5.05,1.43-7.11,2.76,0,.01-.01.01-.02.01-.92.61-1.72,1.35-2.32,2.31-.13.2-.24.41-.35.62h0c-.67,1.37-.9,2.9-1.24,4.39-.03.14-.07.29-.1.43-1.18,4.92-3.84,9.1-7.18,12.92-2.81,3.23-6.09,6.19-9.34,9.12-1.35,1.21-2.69,2.42-3.99,3.63-2.04,1.91-4.05,4.04-5.83,6.33-2.8,3.58-5.08,7.53-6.19,11.61v-14.04c-.68-.56-.61-3.31,0-3.82v-4.88h-30.98v32.41c-1.72,1.85-3.81,4.4-6.04,7.16-.42.52-.85,1.05-1.28,1.58-2.72,3.38-5.58,6.91-8.19,9.75-1.38,1.5-2.68,2.81-3.86,3.79-2.29,1.92-4.09,2.6-4.97,1.11-.41-.7-.62-1.89-.57-3.67h0c.03-1.16.17-2.56.42-4.24-2.66,3.89-1.62,1.53.84-3.54h7.52v-15.65c1.72-3.73,3.32-7.42,4.47-10.53,2.36-6.37,2.84-10.37-1.39-7.53.83,1.99.04,3.82-1.38,5.52-.5.61-1.09,1.2-1.7,1.77v-40.05h-7.37v17.71c.14.09.29.18.45.28-.15-.02-.31-.03-.45-.04v4.17h-23.23c-.11-.49-.21-.99-.29-1.5-.1-.59-.18-1.19-.24-1.79-.14-1.26-.18-2.53-.1-3.85h0c.02-.39.05-.77.1-1.16.04-.33.08-.65.13-.97,1.24-8.31,5.51-13.87-.45-22.24-4.12-5.77-18.77-10.17-14.5-19.91.76-1.75,2.24-3.12,3.01-4.87.91-2.08.72-4.24,0-6.39-.67-2.06-1.83-4.11-2.92-6.07-.29-.5-.56-.98-.82-1.46-2.41-4.39-3.21-11.18,1.39-13.2,4.79,4.23,10.17,7.81,15.95,10.59-.85-5.29,2.51-9.78,6.59-13.69h.01c1.01-.98,2.05-1.9,3.1-2.8.62-.54,1.25-1.07,1.86-1.59,5.73-4.88,11.15-13.2,6.68-19.24,2.4-5.62,8.29-8.77,12.95-12.76,4.66-3.98,8.38-10.89,4.96-15.96,10.07-.72,19.75,8.23,19.74,18.24-.01,4.39-1.59,8.94-.09,13.08,2.33,6.4,10.44,8.24,17.27,8.84,7.13.62,14.55,1.05,21.88,1.82h0c4.09.42,8.13.95,12.1,1.68,1.04.19,2.07.39,3.1.61,4.04.87,7.96,1.97,11.69,3.41,2.58,1,5.06,2.15,7.43,3.51,3.89,2.21,7.46,4.94,10.62,8.35Z"/>
        <path class="cls-4" d="M314.07,164.77c-2.32-3.45-1.1-8.72,2.5-10.83.92,1.9,3.98-.02,5.97.74,1.38.53,1.84,2.2,2.12,3.65,1.11,5.83,2.22,11.65,3.34,17.48-1.01,3.31-6.59,3.74-8.11.63-.83-1.71-.48-3.83-1.42-5.48-1.02-1.79-3.23-2.51-4.69-3.96s-1.37-4.74.7-4.79l-.39,2.58Z"/>
        <path class="cls-4" d="M164.63,73.54c-2.91.66-5.39-3.16-4.16-5.86s4.79-3.74,7.67-2.96,5.16,2.95,7.05,5.24,3.56,4.8,5.85,6.71c-1.11.96-2.22,1.92-3.33,2.88-2.32-4.43-8.19-6.65-12.9-4.87l-.18-1.15Z"/>
        <path class="cls-4" d="M270.34,60.41c-4.48-.38-8.52-3.85-9.55-8.19s1.05-9.23,4.9-11.54c2.74,4.22,6.33,7.9,10.49,10.75-1.87,2.98-4.36,5.57-7.26,7.59l1.41,1.39Z"/>
        <path class="cls-4" d="M288.26,183.01c-2.11,2.26-3.78,4.93-4.92,7.87-.24.62-.45,1.26-.43,1.95.08,2,2.27,3.65,4.26,3.76s3.74-.94,5.17-2.15,2.72-2.64,4.39-3.53c.91,2.36,2.77,4.44,5.02,5.63,3.27-2,3.65-6.58,3.74-10.6.01-.48.02-.98-.19-1.45-.28-.64-.91-1.08-1.48-1.5-2.26-1.67-4.24-3.73-5.81-6.06-2.46,1.24-4.92,2.47-7.38,3.71-1.13.57-2.42,1.5-2.07,2.82l-.32-.44Z"/>
        <path class="cls-4" d="M206.58,44.17c-5.55-2.04-11.38-4.43-14.81-9.21s-3.11-12.66,2.13-15.4c7.68,4.31,12.49,13.2,11.85,21.93l.83,2.68Z"/>
        <path class="cls-4" d="M180.18,49.79c-2.27-2.05-3.12-5.52-2.04-8.37,1.28,1.76,1.78,4.07,1.33,6.2l.7,2.17Z"/>
        <path class="cls-4" d="M158.9,177.91l.65.71c-1.21.57-2.42,1.13-3.62,1.7-1.3-.83-1.9-2.45-1.73-3.96l6.37-.04c-.56.53-1.11,1.06-1.67,1.59Z"/>
        <path class="cls-4" d="M239.13,220.72c-2.1,2.06.57,6.36,3.37,5.43s2.32-5.95-.61-6.35c-1.18.59-2.36,1.18-3.54,1.77l.77-.86Z"/>
        <path class="cls-4" d="M200.87,230.82c-1.32-.91-1.73-2.9-.86-4.25s2.86-1.82,4.25-1.01c.95,1.23,1.94,2.53,2.12,4.07s-.81,3.32-2.36,3.42c-2.07-.13-3.92-1.87-4.14-3.92l1,1.69Z"/>
        <path class="cls-1" d="M327.95,83.67l.74-.67"/>
        <path class="cls-4" d="M213.67,239l3.7,10.07c.26.7.55,1.45,1.15,1.9,1.5,1.13,3.8-.54,3.91-2.4s-1.13-3.51-2.39-4.9-2.64-2.84-2.91-4.68h-3.45Z"/>
        <path class="cls-4" d="M274.97,212.24c-2.19.57-1.26,3.91.27,5.56s3.19,4.42,1.38,5.77c-2.12-1.55-4.29-3.32-5.15-5.79s.2-5.78,2.76-6.42l.74.87Z"/>
        <path class="cls-4" d="M225.83,0c1.37,4.32,3.42,8.43,6.06,12.13-1.77,1.71-3.97,2.97-6.34,3.64.79-4.05-.03-8.38-2.23-11.87,1.96-1.24,3.93-2.48,5.89-3.71l-3.38-.18Z"/>
        <path class="cls-4" d="M337.36,89.57c2.25,4.16,4.98,8.06,8.12,11.61,1,1.13,2.5,2.32,3.86,1.66.62-.3,1.01-.92,1.3-1.55,1.51-3.29.78-7.46-1.76-10.06s-6.72-3.45-10.08-2.06l-1.44.4Z"/>
        <path class="cls-4" d="M158.54,93.9c-2.11,1.04-4.61,1.99-6.76,1.03s-2.62-4.77-.34-5.36c2.32,1.37,4.65,2.75,6.97,4.12l.12.21Z"/>
        <path class="cls-4" d="M148.83,122.08l-3.81-4.37c1-2.1,4.29-2.83,5.8-1.06s-.42,5.16-2.65,4.46l.66.97Z"/>
        <path class="cls-4" d="M160.31,144.7c-1.61-.7-1.58-3.39-.03-4.21s3.71.35,4.04,2.07-.98,3.5-2.68,3.95c-1.33.35-3.21-1.03-2.28-2.05l.95.24Z"/>
      </g>
      <g class="cls-3">
        <path class="cls-2" d="M213,176.09v2.32c-.35-.27-.69-.54-1.03-.81-.46-.37-.91-.73-1.35-1.09-.18-.14-.35-.28-.52-.42h2.9Z"/>
        <path class="cls-2" d="M213,163.68v.92c-2.97-1.84-2.54-1.9,0-.92Z"/>
        <path class="cls-2" d="M213,164.84v4.17h-9.78c-1.9-3.29.2-5.14,9.78-4.17Z"/>
        <path class="cls-2" d="M236.5,173.58v22.84c-2.26-2.33-6.71-5.64-11.66-9.24-.91-.66-1.84-1.33-2.77-2.01-.56-.41-1.13-.82-1.7-1.24v-17.16c.26.11.53.23.8.35,4.45,1.91,9.89,4.25,15.33,6.46Z"/>
        <path class="cls-2" d="M260.3,177.22c-1.9.67-3.73.17-5.49-.93h5.49v.93Z"/>
        <path class="cls-2" d="M244.37,176.67c6.95,2.6,13.05,4.48,15.93,4.29v7.03h-15.93v-11.32Z"/>
        <path class="cls-2" d="M426.79,199.03c-5.52.23-11.32-1.48-16.43.59-7.91,3.21-9.79,13.31-10.18,21.78-1.33,29.38.19,62.67-20.78,83.48-7.96-3.05-12.77-12.53-10.48-20.68-8.61,9.08-19.52,18.97-31.9,16.74-8.95-1.62-15.62-9.48-18.82-17.93-1.61-4.25-2.89-9.18-6.88-11.4-2.08-1.16-4.56-1.34-6.91-1.79-7.27-1.38-13.4-5.33-19.04-10.17-4.98-4.28-9.58-9.26-14.27-13.78-.32-.31-.65-.62-.98-.93-.45-.42-.91-.84-1.38-1.25-1.28-1.14-2.62-2.24-4-3.29-1.84-1.4-3.77-2.71-5.75-3.87-2.21-1.3-4.5-2.42-6.82-3.28-3.07-1.14-6.21-1.83-9.33-1.9-.23-.01-.46-.01-.7-.01-2.77.01-5.54.53-8.23,1.65,1.27-7.28-2.2-16.39-3.29-23.21-.06-.41-.12-.81-.16-1.2-.58-4.91.42-8.39,5.99-8.72h.05v13.5h31.17v-7.08h-23.3v-11.01h22.46c.11-1.18.33-2.36.65-3.52v-14.04c-.68-.56-.61-3.31,0-3.82v-4.88h-20.5c-2.72-2.61-5.19-4.08-7.42-1.06-3.46-5.14-8.1-8.42-12.79-11.64-2.16-1.5-4.33-2.97-6.4-4.61v-4.81h-5.13c-.79-.9-1.54-1.86-2.24-2.9,4.56-2.8,9.41-3.78,14.38-3.98,7.54-.3,15.37,1.16,22.89.67,5.27-.35,9.98-1.92,14.62-3.48,5.75-1.94,11.4-3.86,17.87-3.4,10.51.75,17.65,5.83,27.27-.33.6-.38,1.22-.81,1.84-1.29,4.72-3.61,8.4-13.04,14.07-17.42,1.07-.83,2.2-1.48,3.43-1.87.5-.16,1.01-.28,1.54-.35,1.57-.22,3.29-.03,5.18.69,2.24.85,4.04,2.6,6.28,3.46,5.85,2.24,11.89-2.15,17.27-5.34,5.37-3.2,13.86-4.56,16.64,1.02-5.07,6.13-9.27,12.96-12.45,20.24,9.22-1.85,16.88,6.5,23.31,13.3,1.57,1.67,3.4,3.3,5.37,4.73,4.55,3.29,9.87,5.51,14.58,4.59h.01c.28-.05.56-.12.84-.2.02,0,.03,0,.04-.01,1.28-.36,2.51-.97,3.65-1.88,7.18,2.66,11.44,9.76,16.7,15.3,5.25,5.53,14.12,9.76,20.3,5.27,1.43,12.38-9.29,24.81-21.84,25.32Z"/>
        <path class="cls-2" d="M284.29,288.05c4.21-3.04,10.89-1.82,13.73,2.51-2.34,1.24.24,4.91-.61,7.41-.59,1.73-2.67,2.39-4.47,2.81-7.25,1.68-14.51,3.36-21.76,5.04-4.21-1.07-5.04-7.94-1.21-9.97,2.1-1.12,4.78-.8,6.81-2.05,2.19-1.35,2.98-4.12,4.73-6s5.88-1.95,6.05.6l-3.25-.35Z"/>
        <path class="cls-2" d="M390.87,98.83c-.98-3.56,3.68-6.82,7.13-5.45s4.95,5.71,4.12,9.3-3.43,6.52-6.21,8.98-5.84,4.65-8.11,7.57c-1.27-1.32-2.53-2.64-3.8-3.96,5.44-3.09,7.91-10.46,5.42-16.17l1.44-.28Z"/>
        <path class="cls-2" d="M412.94,228.57c.24-5.55,4.38-10.72,9.77-12.21s11.63.81,14.74,5.43c-5.15,3.6-9.58,8.23-12.94,13.52-3.84-2.15-7.23-5.08-9.9-8.55l-1.67,1.81Z"/>
        <path class="cls-2" d="M260.02,257.17c-2.94-2.49-6.39-4.41-10.13-5.65-.79-.26-1.61-.49-2.48-.42-2.5.2-4.46,2.99-4.49,5.46s1.38,4.56,2.98,6.27,3.46,3.21,4.66,5.24c-2.91,1.25-5.42,3.65-6.8,6.5,2.68,3.93,8.45,4.16,13.5,4.05.61-.01,1.23-.03,1.8-.31.79-.38,1.31-1.17,1.81-1.9,1.97-2.87,4.46-5.43,7.29-7.49-1.68-2.97-3.37-5.94-5.05-8.9-.77-1.36-2.01-2.91-3.64-2.41l.54-.42Z"/>
        <path class="cls-2" d="M429.94,149.03c2.27-6.96,4.96-14.27,10.78-18.76s15.73-4.5,19.44,1.82c-5,9.71-15.9,16.11-26.89,15.79l-3.33,1.16Z"/>
        <path class="cls-2" d="M421.49,116.75c2.45-2.92,6.76-4.14,10.4-2.96-2.15,1.68-5.01,2.41-7.71,1.97l-2.69.98Z"/>
        <path class="cls-2" d="M258.71,98.12l-2.32-4.37c1.58-2.68,5.88-3.19,8.05-.96s1.51,6.47-1.25,7.94c-1.21-1.15-2.41-2.3-3.62-3.45l-.86.84Z"/>
        <path class="cls-2" d="M210.09,198.55c-2.7-2.48-7.95,1.04-6.63,4.45s7.6,2.55,7.93-1.09c-.8-1.42-1.61-2.85-2.41-4.27l1.11.91Z"/>
        <path class="cls-2" d="M195.38,151.88c1.07-1.68,3.55-2.29,5.29-1.29s2.44,3.44,1.5,5.19c-1.49,1.24-3.08,2.53-4.99,2.83s-4.21-.82-4.42-2.73c.05-2.56,2.15-4.93,4.7-5.32l-2.07,1.32Z"/>
        <path class="cls-1" d="M386.8,300.88l.88.87"/>
        <path class="cls-2" d="M186,172.36c-2.3.44-4.04,2.23-5.72,3.85-1.59,1.53-3.48,3.07-5.67,3.19-.11.01-.23.01-.35.01-.15,0-.29-.02-.44-.05-.25-.03-.51-.1-.75-.2v-5.85c.1-.03.19-.07.29-.11,2.04-.84,4.08-1.67,6.12-2.51,2.11-.86,4.22-1.73,6.33-2.59l.09,2.09.09,1.85v.32Z"/>
        <path class="cls-2" d="M222.63,242.32c-.84-2.67-4.97-1.34-6.97.63s-5.38,4.17-7.17,2.01c1.84-2.7,3.94-5.47,7-6.66s7.26-.06,8.2,3.07l-1.06.96Z"/>
        <path class="cls-2" d="M486.4,170.44c-5.35,1.92-10.4,4.67-14.9,8.12-2.24-2.09-3.94-4.74-4.9-7.63,5.12.76,10.51-.48,14.78-3.38,1.66,2.36,3.32,4.72,4.97,7.07l.04-4.18Z"/>
        <path class="cls-2" d="M379.89,312.81c-5.1,3-9.86,6.57-14.14,10.64-1.36,1.29-2.78,3.21-1.88,4.85.41.75,1.21,1.2,2.01,1.52,4.21,1.68,9.41.56,12.53-2.7s3.98-8.47,2.06-12.55l-.58-1.76Z"/>
        <path class="cls-2" d="M364.98,92.39c-1.42-2.55-2.74-5.58-1.65-8.29s5.85-3.49,6.71-.7c-1.6,2.94-3.2,5.88-4.81,8.82l-.26.16Z"/>
        <path class="cls-2" d="M329.1,81.9l5.28-4.94c2.68,1.12,3.78,5.14,1.64,7.1s-6.5-.24-5.74-3.03l-1.18.87Z"/>
        <path class="cls-2" d="M301.32,97.26c.79-2.03,4.17-2.13,5.29-.26s-.24,4.59-2.38,5.1-4.45-1.02-5.1-3.1c-.51-1.63,1.12-4.01,2.45-2.93l-.26,1.18Z"/>
      </g>
      <g class="cls-3">
        <rect class="cls-2" x="244.37" y="176.29" width="15.93" height="11.7"/>
        <path d="M213,206.23l-7.21-.05-3.35-.02h0l-4.77-.03v-30.04h15.34v30.14Z"/>
        <path class="cls-2" d="M189.2,180.88v9.42c-9.17-1.29-15.35-3.33-4.34-8.21-4.45-.11-1.42-.52,4.34-1.21Z"/>
        <path class="cls-2" d="M211.97,177.6c.35-.07.7-.15,1.03-.22v27.94c-.52-.55-1.02-1.08-1.48-1.6-.17-.2-.34-.4-.51-.6-.57-.69-1.08-1.36-1.47-2.01-.7-1.15-1.06-2.25-.87-3.3.18-.98.85-1.92,2.19-2.8,2.76-1.83-2.82-2.64-10.06-3.41-1.21-.13-2.46-.26-3.73-.39v-11.28c4.25-.54,8.8-1.16,12.66-1.88.78-.15,1.53-.29,2.24-.45Z"/>
        <path class="cls-2" d="M334.07,201.95c-.08,1.05-.21,2.1-.39,3.15-.15.9-.33,1.79-.56,2.68-.04.19-.09.38-.14.57-5.03.8-10.34-2.07-12.65-6.52-.37-.69-.66-1.43-.86-2.2-1.95,8.39-4.99,18.05-13.16,20.99-5.91,2.12-12.64-.27-17.52-4.21-2.44-1.97-4.94-4.47-8.1-4.42-1.65.02-3.19.77-4.75,1.32-.74.26-1.49.47-2.25.64-.75.18-1.51.31-2.27.39-4.12.52-8.34-.05-12.57-.98h8.82v-7.08h-23.3v-11.01h22.46c.11-1.18.33-2.36.65-3.52v-14.04c-.08-1.12-.08-3.12,0-3.82v-4.88h-30.98v40.11c-2.02.02-4,.22-5.88.66-.49.11-.97.24-1.44.38-3.25.98-6.12,2.73-8.22,5.5-.29-.78-.68-1.55-1.13-2.3h.54v-66.47h-7.37v17.71c.14.09.29.18.45.28-.15-.02-.31-.03-.45-.04v4.17h-23.8v3.32c-1.07-.09-2.14-.17-3.21-.29-.8-.08-1.61-.19-2.42-.33-1.37-.23-2.73-.55-4.09-1.02-.74-.25-1.48-.55-2.22-.91,2.68-5,7.29-7.64,12.11-10.04,1.44-.71,2.9-1.4,4.33-2.13.61-.31,1.21-.63,1.8-.96.97-.53,1.92-1.09,2.83-1.7,1.36-.91,2.57-1.93,3.68-3.01,1.24-1.19,2.37-2.45,3.48-3.71.29-.33.58-.66.86-.99.01,0,.02,0,.02-.02.71-.81,1.42-1.6,2.15-2.37,1.94-2.03,4.05-3.88,6.78-5.21,6.95-3.38,13.33-2.53,16.8-11.01,1.06-2.6.87-6.67,1.24-10.45.44-4.41,1.66-8.42,6.56-9.21,1.63-.27,3.32.16,4.96-.11.62-.1,1.18-.28,1.71-.53,2.05-.96,3.52-2.95,4.78-5.11.68-1.16,1.31-2.37,1.93-3.5.32-.58.7-1.16,1.13-1.71.8-1.04,1.75-1.99,2.79-2.72,2.02-1.44,4.34-2.03,6.37-.7-.32,1.95-.53,3.92-.64,5.89-.13,2.16-.14,4.32-.03,6.48.07,1.34.18,2.67.34,4,.67-.59,1.39-1.05,2.15-1.41,2.66-1.25,5.8-1.19,8.99-.62,2.51.45,5.06,1.23,7.43,1.93,1.25.37,2.58.66,3.95.85.55.08,1.11.13,1.67.17,4.94.36,9.85-.85,11.53-5.16,5.22-.89,10.25,1.87,15.33,3.36,3.07.9,6.78,1.06,9.68-.02,1.89-.71,3.45-1.94,4.28-3.83.74.98,1.34,2.05,1.79,3.18.41,1.01.7,2.06.87,3.13,1.05,6.12-1.48,12.94-6.81,16.32-.2.13-.4.25-.6.36,0,.01,0,.01,0,.01-3.1,1.8-6.81,2.84-8.98,5.65-.46.6-.83,1.23-1.1,1.89-.56,1.33-.75,2.76-.7,4.24.07,1.74.49,3.54,1.11,5.29.61,1.77,1.42,3.49,2.26,5.08.6,1.13,1.2,2.26,1.82,3.4.02.03.03.06.05.09,3.25,6,6.68,12.14,9.55,18.38,0,.01.01.01.01.02,4.31,9.37,7.35,18.98,6.56,28.68Z"/>
        <path class="cls-2" d="M270.33,231.12c1.44-3.26,5.86-4.84,9.07-3.24-.96,1.55,1.86,2.85,2.23,4.63.26,1.24-.75,2.35-1.68,3.21-3.74,3.51-7.48,7.01-11.21,10.52-2.89.81-5.79-2.99-4.22-5.53.86-1.39,2.57-2.13,3.34-3.57.83-1.56.33-3.49.71-5.21s2.82-3.19,3.82-1.73l-2.06.91Z"/>
        <path class="cls-2" d="M267.52,81.48c-1.84-1.78-.2-5.34,2.34-5.71s4.96,1.7,5.72,4.13.24,5.08-.55,7.5-1.85,4.79-2.18,7.31c-1.22-.35-2.43-.7-3.65-1.05,2.16-3.72,1.05-8.97-2.44-11.52l.76-.66Z"/>
        <path class="cls-2" d="M326.2,151.26c-1.8-3.39-1.15-7.9,1.55-10.66s7.22-3.53,10.7-1.84c-1.81,3.93-2.83,8.21-2.97,12.53-3.04.04-6.09-.54-8.91-1.69l-.36,1.66Z"/>
        <path class="cls-2" d="M245.02,221.07c-2.63-.47-5.36-.43-8.03.13-.56.12-1.13.26-1.63.6-1.42.98-1.61,3.32-.76,4.8s2.42,2.24,3.98,2.71,3.19.72,4.62,1.52c-1.3,1.75-1.95,4.05-1.77,6.22,2.98,1.42,6.5-.44,9.48-2.24.36-.22.73-.44.97-.8.34-.5.37-1.15.41-1.76.17-2.39.76-4.78,1.72-6.98-2.05-1.19-4.09-2.38-6.14-3.57-.94-.55-2.22-1.04-3.02-.18l.17-.44Z"/>
        <path class="cls-2" d="M308.44,97.95c-1.09-4.93-2.05-10.22-.15-14.91s7.8-8.11,12.23-5.62c.43,7.51-3.83,15.1-10.5,18.69l-1.58,1.84Z"/>
        <path class="cls-2" d="M292.08,81.61c.44-2.59,2.58-4.8,5.17-5.35-.69,1.74-2.15,3.17-3.91,3.84l-1.26,1.52Z"/>
        <path class="cls-2" d="M188.43,126.65l-2.92-1.81c0-2.14,2.39-3.93,4.47-3.35s3.17,3.34,2.04,5.17c-1.12-.27-2.25-.54-3.37-.81l-.22.79Z"/>
        <path class="cls-2" d="M169.77,179.57c.16-.19.34-.37.53-.52l-.78,1.5c.01-.33.1-.66.24-.96t.01-.02Z"/>
        <path class="cls-2" d="M174.94,180.54c-.43,1.21-.91,2.48-1.87,3.32v-5.75c.45.16.85.44,1.17.79.14.16.26.32.37.5.2.35.32.73.33,1.14Z"/>
        <path class="cls-1" d="M335.99,203.41l.83.22"/>
        <path class="cls-2" d="M165.7,198.49v6.05c-1.31.15-2.79-.67-2.69-1.96.05-.64.46-1.19.86-1.71.61-.79,1.22-1.58,1.83-2.38Z"/>
        <path class="cls-2" d="M217.51,225.11c-1.44-1.3-3.43.91-3.94,2.78s-1.75,4.34-3.57,3.67c.15-2.24.43-4.62,1.84-6.39s4.31-2.54,5.97-1l-.29.93Z"/>
        <path class="cls-2" d="M349.63,91.25c-2.52,2.99-4.56,6.37-6.04,9.98-2.07-.47-4.01-1.47-5.6-2.86,3.32-1.31,6.11-3.91,7.63-7.12,1.82.83,3.63,1.67,5.45,2.5l-1.44-2.51Z"/>
        <path class="cls-2" d="M336.05,212.91c-1.99,3.55-3.57,7.32-4.7,11.22-.36,1.24-.53,2.87.58,3.54.51.31,1.14.3,1.73.21,3.1-.45,5.81-2.91,6.53-5.94.72-3.03-.6-6.43-3.18-8.2l-.96-.85Z"/>
        <path class="cls-2" d="M249.82,86.57c-1.74-1.03-3.59-2.38-3.89-4.38s2.26-4.1,3.76-2.73c.08,2.31.15,4.61.23,6.92l-.09.19Z"/>
        <path class="cls-2" d="M224.73,92.69c.47-1.59.94-3.18,1.42-4.77,1.99-.26,4.06,1.76,3.47,3.67s-3.96,2.1-4.49.17l-.4.92Z"/>
        <path class="cls-2" d="M213.55,111.44c-.24-1.48,1.74-2.71,3.06-1.98s1.47,2.82.37,3.86-3.01.93-4.13-.09c-.87-.79-.74-2.78.43-2.59l.26.79Z"/>
      </g>
    </g>
    <path d="M34.22,213.37h-9.83l-13.77-25.17h-3.15l.1,25.17H0v-56.35h29.21v31.17h-8.65l13.67,25.17ZM21.34,181.11v-17.11H7.47v17.11h13.87Z"/>
    <path d="M55.17,195.27v11.01h23.31v7.08h-31.17v-44.35h30.98v26.26h-23.11ZM55.17,188h15.93v-11.7h-15.93v11.7Z"/>
    <path d="M118.4,164.3h-15.93v41.99h22.52v7.08h-30.39v-56.35h31.17v16.03h-7.38v-8.75Z"/>
    <path d="M173.07,173.31v-4.3h-31.17v44.35h7.07c2.66-2.31,5.34-4.6,7.75-7.08h-6.95v-29.89l4.43-.03c.1-.94.51-1.84,1.23-2.48,1.88-1.65,5.29-.97,6.38,1.27-.41.39-.82.78-1.23,1.17l5.12-.03v16.45c1.41-2.83,2.76-5.65,4.39-8.32-.28-.12-.53-.31-.73-.57-.74-1.33-.54-3.08.4-4.26-.14.3-.23.63-.24.96l.78-1.5c-.19.15-.37.33-.53.52.34-.71.99-1.28,1.75-1.5-.87-.97-1.23-2.29-.48-3.35.47-.69,1.25-1.08,2.03-1.41Z"/>
  </g>
</svg>