<?xml version="1.0" encoding="UTF-8"?>
<svg id="Layer_2" data-name="Layer 2" xmlns="http://www.w3.org/2000/svg" viewBox="0 0 73.24 73.05">
  <defs>
    <style>
      .cls-1 {
        opacity: .76;
      }

      .cls-2 {
        fill: #cec71d;
      }

      .cls-3 {
        fill: #fff901;
      }
    </style>
  </defs>
  <g id="Layer_1-2" data-name="Layer 1">
    <g>
      <g>
        <g class="cls-1">
          <path class="cls-3" d="M35.65,16.91c.38.28.64.72,1.03,1,1,.73,2.35.15,3.52-.23s2.84-.24,3.11,1.01c-1.25.99-2.36,2.16-3.3,3.46,1.83.08,2.9,2.13,3.8,3.81s2.64,3.46,4.3,2.64c1.24.88,1.71,2.52,2.45,3.89s2.22,2.65,3.6,2.05c-.31,2.56-2.91,4.53-5.32,4.03-1.06-.22-2.07-.85-3.14-.68-1.65.26-2.48,2.2-2.94,3.88-1.62,5.84-2.89,12.61-7.83,15.77-1.37-1-1.83-3.14-1.02-4.67-2.06,1.41-4.58,2.86-6.82,1.81-1.62-.76-2.52-2.66-2.73-4.52-.11-.93-.12-1.98-.77-2.62-.34-.34-.8-.49-1.23-.7-2.47-1.19-3.75-4.01-5.2-6.43s-3.76-4.85-6.45-4.4c1.05-2.54-.56-7.03,2.03-6.54s-9.72-10.8-2.73-8.15c-2.76-2.94,9.93,8.55,8.41,4.74-1.81.37-2.19-4.1-3.6-2.86-.86-2.48-3.05-3.62-3.92-6.11,2.5-.86,4.81.7,7.22,1.15,2.28.42,4.3-.54,6.48.2s3.21,2.2,5.59,1.09c1.58-.74,3.33-4.19,5.47-2.63Z"/>
          <path class="cls-3" d="M17.7,49.53c.94-.41,2.15.16,2.48,1.17-.5.14-.18,1-.46,1.46-.19.32-.62.35-.98.35-1.45-.01-2.91-.03-4.36-.04-.75-.42-.59-1.84.23-2.06.45-.12.94.07,1.38-.08.48-.17.76-.68,1.17-.98s1.2-.11,1.12.42"/>
          <path class="cls-3" d="M46.7,16.67c-.02-.76,1.01-1.19,1.61-.75s.67,1.39.35,2.07-.95,1.14-1.59,1.5-1.32.65-1.89,1.13c-.18-.33-.36-.65-.53-.98,1.17-.36,1.99-1.72,1.78-2.99h.29Z"/>
          <path class="cls-3" d="M44.84,43.82c.3-1.1,1.33-1.94,2.42-1.98s2.17.73,2.54,1.81c-1.14.47-2.2,1.19-3.08,2.09-.63-.62-1.13-1.37-1.48-2.2l-.4.28Z"/>
          <path class="cls-3" d="M14.54,42.14c-.44-.64-1.01-1.2-1.66-1.63-.14-.09-.28-.18-.45-.21-.48-.08-.99.38-1.1.88s.05.98.27,1.4.51.81.64,1.28c-.61.11-1.2.47-1.59.98.33.92,1.41,1.25,2.37,1.47.12.03.24.05.36.03.17-.04.3-.17.43-.29.51-.48,1.1-.87,1.73-1.15-.18-.68-.36-1.36-.54-2.03-.08-.31-.25-.68-.58-.66l.12-.06Z"/>
          <path class="cls-3" d="M51.77,28.66c.75-1.29,1.6-2.63,2.92-3.25s3.19-.14,3.6,1.31c-1.4,1.71-3.76,2.47-5.83,1.87l-.68.07Z"/>
          <path class="cls-3" d="M51.67,21.76c.6-.47,1.47-.5,2.11-.09-.48.23-1.06.24-1.55.02l-.56.07Z"/>
          <path class="cls-3" d="M21.7,10.11l-.24-.99c.42-.46,1.26-.36,1.57.2s-.02,1.37-.61,1.54c-.18-.29-.35-.58-.53-.87l-.2.13Z"/>
          <path class="cls-3" d="M7.81,27.93c-.4-.63-1.55-.18-1.46.57s1.32.88,1.55.17c-.09-.33-.17-.65-.26-.98l.17.24Z"/>
          <path class="cls-3" d="M7.19,17.84c.28-.29.78-.29,1.06,0s.3.81.04,1.12c-.34.18-.7.36-1.08.33s-.76-.37-.71-.76c.13-.51.64-.89,1.14-.84l-.45.16Z"/>
          <path class="cls-3" d="M36.52,57.09l.13.22"/>
          <path class="cls-3" d="M4.62,20.63l-2.6.42c-.18.03-.37.06-.51.19-.34.32-.05.98.39,1.1s.9-.11,1.29-.35.81-.52,1.26-.49l.16-.87Z"/>
          <path class="cls-3" d="M8.14,37.34c-.03-.58-.88-.51-1.35-.21s-1.21.58-1.45.06c.47-.45,1-.91,1.64-1s1.38.34,1.41,1.01l-.24.14Z"/>
          <path class="cls-3" d="M61.47,35.71c-1.1.13-2.19.43-3.2.91-.33-.53-.53-1.14-.57-1.77.93.4,2.01.42,2.96.04.2.55.41,1.11.61,1.66l.2-.84Z"/>
          <path class="cls-3" d="M34.66,59.15c-1.11.35-2.17.84-3.17,1.45-.32.19-.68.51-.58.88.04.17.17.3.31.4.72.54,1.76.57,2.5.07s1.15-1.51.97-2.42l-.03-.38Z"/>
          <path class="cls-3" d="M42.1,14.12c-.15-.58-.26-1.26.07-1.75s1.27-.42,1.3.19c-.44.51-.88,1.03-1.32,1.54l-.06.02Z"/>
          <path class="cls-3" d="M35.79,10.27l1.23-.74c.46.36.48,1.22-.02,1.51s-1.22-.36-.95-.89l-.26.12Z"/>
          <path class="cls-3" d="M29.81,12.01c.24-.37.89-.23,1.01.21s-.26.91-.69.91-.8-.42-.82-.87c-.02-.35.4-.75.6-.47l-.1.23Z"/>
        </g>
        <g class="cls-1">
          <path class="cls-3" d="M61.52,38.24c0,.38-.15.74-.14,1.12,0,.99.95,1.62,1.69,2.22s1.39,1.77.76,2.5c-1.14-.39-2.33-.61-3.52-.66.76,1.24,0,2.85-.6,4.18s-.9,3.27.32,4.01c.02,1.21-.75,2.24-1.24,3.33s-.6,2.63.36,3.28c-1.66.92-3.99.07-4.75-1.74-.33-.8-.41-1.74-.98-2.37-.88-.97-2.4-.67-3.61-.23-4.2,1.5-8.79,3.65-12.86,1.78,0-1.34,1.07-2.59,2.34-2.73-1.74-.74-3.73-1.76-4.09-3.71-.26-1.41.48-2.84,1.49-3.79.51-.48,1.13-.95,1.23-1.67.05-.37-.06-.75-.13-1.12-.38-2.16.74-4.24,1.55-6.26s1.24-4.62-.22-6.19c1.97-.43,3.95-3.46,4.79-1.54s2.17-11.17,3.66-5.39c.54-3.12-.73,10.32.87,7.64-1.02-1.03,1.48-3.25.12-3.64,1.1-1.66.82-3.61,1.92-5.27,1.62,1.27,1.7,3.49,2.49,5.27.75,1.69,2.21,2.6,2.73,4.36s.1,3.09,1.81,4.17c1.14.72,3.97.36,3.98,2.45Z"/>
          <path class="cls-3" d="M34.15,40.74c.66.44.85,1.49.4,2.16-.3-.27-.68.32-1.07.34-.28.01-.48-.25-.64-.49-.63-.97-1.26-1.93-1.89-2.9-.08-.68.84-1.2,1.33-.75.27.24.37.65.66.88.31.24.74.2,1.1.35s.59.75.24.92"/>
          <path class="cls-3" d="M66.53,45.43c.45-.35,1.16.15,1.15.73s-.53,1.05-1.08,1.14-1.1-.13-1.6-.39-.97-.59-1.5-.75c.12-.26.23-.52.35-.78.73.62,1.9.55,2.57-.14l.12.19Z"/>
          <path class="cls-3" d="M49.51,56.16c.79-.29,1.74.02,2.25.73s.52,1.75.04,2.47c-.79-.55-1.68-.93-2.6-1.11.09-.69.32-1.35.66-1.94l-.35-.14Z"/>
          <path class="cls-3" d="M37.16,35.41c.19-.57.27-1.19.24-1.81,0-.13-.02-.26-.08-.39-.16-.35-.66-.48-1.01-.34s-.57.47-.72.8-.26.69-.48.98c-.33-.35-.81-.58-1.28-.62-.41.62-.12,1.48.17,2.21.03.09.07.18.14.25.1.09.24.12.37.16.51.12,1.01.34,1.45.64.33-.42.65-.84.98-1.25.15-.19.3-.46.14-.67l.09.05Z"/>
          <path class="cls-3" d="M61.6,54.05c1.1-.07,2.27-.1,3.22.5s1.49,2.04.8,2.95c-1.64-.17-3.13-1.4-3.68-3.03l-.34-.42Z"/>
          <path class="cls-3" d="M65.68,50.95c.54.19.95.75.98,1.35-.35-.22-.61-.6-.7-1.02l-.28-.34Z"/>
          <path class="cls-3" d="M59.43,26.03l.49-.59c.46.08.77.68.57,1.12s-.83.59-1.18.28c.1-.24.19-.49.29-.73l-.16-.08Z"/>
          <path class="cls-3" d="M42.68,24.71c.2-.54-.58-1.1-.99-.72s.06,1.26.58,1.1c.16-.2.31-.4.47-.6l-.07.22Z"/>
          <path class="cls-3" d="M48.44,19.86c.29.06.51.39.47.7s-.35.56-.65.52c-.26-.15-.52-.3-.67-.57s-.11-.66.14-.8c.36-.14.81.03,1,.38l-.3-.23Z"/>
          <path class="cls-3" d="M37.93,56.5l-.08.18"/>
          <path class="cls-3" d="M45.63,19.39l-1.39-1.53c-.1-.11-.2-.22-.34-.25-.34-.09-.61.4-.48.74s.46.54.78.7.67.3.85.62l.59-.27Z"/>
          <path class="cls-3" d="M37.21,29.07c.33-.28-.08-.81-.47-.98s-.88-.55-.67-.93c.48.11.98.26,1.32.64s.4,1.06.02,1.38l-.19-.1Z"/>
          <path class="cls-3" d="M61.67,63.56c-.56-.67-1.22-1.25-1.95-1.71.17-.45.45-.85.8-1.16.17.79.64,1.51,1.28,1.97-.24.38-.48.76-.72,1.14l.59-.24Z"/>
          <path class="cls-3" d="M35.87,56.18c-.7-.57-1.46-1.06-2.26-1.46-.26-.12-.6-.22-.78,0-.08.1-.1.25-.1.38,0,.71.43,1.41,1.06,1.68s1.41.09,1.87-.42l.22-.19Z"/>
          <path class="cls-3" d="M66.02,41.27c.28-.36.63-.72,1.07-.72s.81.66.46.94c-.5-.06-1-.13-1.5-.19l-.04-.03Z"/>
          <path class="cls-3" d="M65.54,35.41l.98.49c-.01.46-.52.85-.91.65s-.32-.97.11-1.02l-.19-.12Z"/>
          <path class="cls-3" d="M61.87,32.22c.33,0,.53.49.32.76s-.66.23-.85-.05-.1-.71.16-.93c.2-.17.62-.07.54.19l-.18.03Z"/>
        </g>
        <g class="cls-1">
          <path class="cls-3" d="M36.27,23.64c.24.18.4.45.65.63.63.46,1.48.09,2.21-.15s1.78-.15,1.95.64c-.78.62-1.48,1.35-2.07,2.18,1.15.05,1.82,1.34,2.38,2.39s1.66,2.17,2.7,1.66c.78.55,1.08,1.58,1.54,2.44s1.39,1.66,2.26,1.29c-.19,1.61-1.83,2.85-3.34,2.53-.66-.14-1.3-.53-1.97-.43-1.04.16-1.56,1.38-1.85,2.44-1.02,3.67-1.81,7.92-4.92,9.91-.86-.63-1.15-1.97-.64-2.93-1.29.88-2.88,1.8-4.29,1.14-1.02-.48-1.58-1.67-1.72-2.84-.07-.58-.08-1.25-.48-1.65-.21-.21-.5-.31-.77-.44-1.55-.75-2.36-2.52-3.26-4.04s-2.36-3.05-4.05-2.76c.66-1.59-.35-4.42,1.27-4.11s-6.1-6.79-1.72-5.12c-1.73-1.85,6.24,5.37,5.28,2.98-1.14.23-1.38-2.58-2.26-1.79-.54-1.56-1.92-2.28-2.46-3.84,1.57-.54,3.02.44,4.53.72,1.43.26,2.7-.34,4.07.12s2.02,1.38,3.51.68c.99-.47,2.09-2.63,3.44-1.65Z"/>
          <path class="cls-3" d="M24.99,44.13c.59-.26,1.35.1,1.56.74-.32.09-.12.63-.29.92-.12.2-.39.22-.61.22-.91,0-1.83-.02-2.74-.03-.47-.26-.37-1.16.15-1.3.28-.08.59.05.87-.05.3-.1.47-.43.74-.61s.76-.07.7.26"/>
          <path class="cls-3" d="M43.21,23.49c-.01-.48.64-.75,1.01-.47s.42.87.22,1.3-.6.72-1,.94-.83.41-1.19.71c-.11-.21-.22-.41-.34-.62.74-.22,1.25-1.08,1.12-1.88h.18Z"/>
          <path class="cls-3" d="M42.04,40.55c.19-.69.83-1.22,1.52-1.24s1.36.46,1.6,1.14c-.72.3-1.38.75-1.94,1.31-.39-.39-.71-.86-.93-1.38l-.25.18Z"/>
          <path class="cls-3" d="M23,39.49c-.28-.4-.63-.75-1.04-1.02-.09-.06-.18-.11-.28-.13-.3-.05-.62.24-.69.55s.03.62.17.88.32.51.4.8c-.38.07-.75.3-1,.61.2.58.88.78,1.49.92.07.02.15.03.22.02.11-.02.19-.11.27-.19.32-.3.69-.55,1.09-.72-.11-.43-.23-.85-.34-1.28-.05-.2-.15-.43-.36-.42l.08-.04Z"/>
          <path class="cls-3" d="M46.39,31.02c.47-.81,1.01-1.65,1.83-2.04s2-.09,2.26.82c-.88,1.07-2.36,1.55-3.66,1.17l-.43.05Z"/>
          <path class="cls-3" d="M46.33,26.69c.38-.29.93-.32,1.32-.06-.3.15-.67.15-.98.01l-.35.04Z"/>
          <path class="cls-3" d="M27.5,19.37l-.15-.62c.27-.29.79-.22.99.12s-.01.86-.38.96c-.11-.18-.22-.36-.33-.55l-.13.08Z"/>
          <path class="cls-3" d="M18.78,30.56c-.25-.4-.98-.11-.92.36s.83.55.98.1c-.05-.2-.11-.41-.16-.61l.11.15Z"/>
          <path class="cls-3" d="M18.39,24.22c.18-.18.49-.18.67,0s.19.51.03.7c-.21.11-.44.23-.68.21s-.48-.23-.45-.48c.08-.32.4-.56.71-.53l-.29.1Z"/>
          <path class="cls-3" d="M36.82,48.88l.08.14"/>
          <path class="cls-3" d="M16.78,25.98l-1.63.26c-.11.02-.23.04-.32.12-.21.2-.03.61.25.69s.56-.07.81-.22.51-.33.79-.31l.1-.54Z"/>
          <path class="cls-3" d="M18.99,36.47c-.02-.36-.55-.32-.85-.13s-.76.36-.91.03c.3-.28.63-.57,1.03-.63s.87.21.89.64l-.15.09Z"/>
          <path class="cls-3" d="M52.49,35.45c-.69.08-1.37.27-2.01.57-.2-.33-.33-.72-.36-1.11.59.25,1.27.26,1.86.02.13.35.26.7.38,1.04l.13-.53Z"/>
          <path class="cls-3" d="M35.64,50.17c-.69.22-1.37.53-1.99.91-.2.12-.42.32-.37.56.03.11.11.19.19.25.45.34,1.1.36,1.57.04s.72-.95.61-1.52l-.02-.24Z"/>
          <path class="cls-3" d="M40.32,21.89c-.09-.37-.16-.79.05-1.1s.8-.26.82.12c-.28.32-.55.64-.83.97h-.04Z"/>
          <path class="cls-3" d="M36.36,19.47l.77-.46c.29.22.3.77-.01.95s-.77-.23-.59-.56l-.17.07Z"/>
          <path class="cls-3" d="M32.6,20.56c.15-.23.56-.14.64.13s-.16.57-.43.57-.5-.26-.52-.55c-.01-.22.25-.47.38-.29l-.07.14Z"/>
        </g>
        <g class="cls-1">
          <path class="cls-3" d="M34.37,11.76c.37-.05.75.06,1.12,0,.97-.14,1.47-1.25,1.97-2.15s1.56-1.76,2.36-1.17c-.23,1.29-.29,2.62-.17,3.93,1.13-1,2.81-.39,4.21.09s3.35.54,3.91-.89c1.19-.18,2.31.52,3.45.91s2.68.3,3.19-.84c1.14,1.69.61,4.35-1.08,5.42-.74.47-1.67.68-2.21,1.39-.84,1.09-.33,2.71.26,3.98,2.05,4.38,4.78,9.11,3.49,13.8-1.32.19-2.7-.81-3.01-2.18-.49,2.01-1.24,4.31-3.11,4.96-1.35.47-2.86-.14-3.95-1.12-.54-.49-1.09-1.11-1.81-1.12-.38,0-.73.17-1.09.29-2.08.71-4.29-.24-6.39-.85s-4.73-.73-6.08,1.07c-.69-2.1-3.95-3.84-2.17-5.03s-11.32-.86-5.81-3.27c-3.15-.17,10.29-.59,7.42-1.98-.88,1.25-3.41-1.18-3.61.36-1.79-.98-3.67-.41-5.47-1.39,1.04-1.94,3.21-2.33,4.86-3.43,1.56-1.05,2.27-2.77,3.94-3.57s3.04-.52,3.87-2.54c.56-1.34-.18-4.38,1.89-4.68Z"/>
          <path class="cls-3" d="M40.54,41.32c.35-.78,1.36-1.13,2.08-.72-.23.37.41.7.48,1.13.05.3-.18.56-.4.76-.87.82-1.74,1.64-2.6,2.46-.66.18-1.3-.76-.92-1.36.2-.33.6-.49.78-.84.2-.37.1-.84.19-1.25s.66-.75.88-.39"/>
          <path class="cls-3" d="M40.8,5.33c-.41-.44-.01-1.28.57-1.36s1.11.44,1.27,1.03.02,1.22-.17,1.8-.45,1.14-.54,1.74c-.27-.09-.55-.18-.82-.28.51-.88.29-2.15-.48-2.78l.18-.15Z"/>
          <path class="cls-3" d="M53.68,22.47c-.39-.83-.21-1.91.41-2.55s1.66-.8,2.44-.38c-.43.93-.69,1.96-.75,2.99-.69,0-1.38-.17-2.01-.46l-.09.4Z"/>
          <path class="cls-3" d="M34.86,38.75c-.59-.13-1.21-.14-1.82-.02-.13.02-.26.06-.37.13-.33.23-.39.79-.2,1.15s.54.55.88.68.72.19,1.04.39c-.3.41-.47.96-.44,1.48.67.36,1.48-.06,2.16-.48.08-.05.17-.1.22-.19.08-.12.09-.27.1-.42.05-.57.2-1.14.43-1.67-.46-.3-.91-.6-1.37-.9-.21-.14-.5-.26-.68-.06l.04-.1Z"/>
          <path class="cls-3" d="M49.97,9.54c-.22-1.19-.4-2.47.05-3.59s1.82-1.9,2.81-1.27c.05,1.81-.96,3.61-2.49,4.43l-.37.43Z"/>
          <path class="cls-3" d="M46.36,5.51c.12-.62.61-1.14,1.2-1.25-.17.41-.51.75-.91.9l-.29.36Z"/>
          <path class="cls-3" d="M22.6,15.69l-.65-.45c.01-.51.56-.93,1.03-.78s.7.82.43,1.26c-.25-.07-.51-.14-.76-.22l-.05.19Z"/>
          <path class="cls-3" d="M23.55,34.17c-.56-.15-1.01.78-.57,1.17s1.24-.23,1.01-.79c-.22-.14-.44-.29-.66-.43l.22.04Z"/>
          <path class="cls-3" d="M17.99,28.53c.02-.33.31-.61.63-.61s.6.31.6.64c-.11.3-.23.61-.47.81s-.64.21-.81-.05c-.19-.38-.08-.89.24-1.15l-.18.36Z"/>
          <path class="cls-3" d="M55.58,35.07l.19.06"/>
          <path class="cls-3" d="M17.91,31.66l-1.32,1.73c-.09.12-.19.25-.2.41-.04.38.47.61.8.43s.48-.57.58-.94.21-.77.49-1.01l-.35-.6Z"/>
          <path class="cls-3" d="M28.6,39.55c-.32-.32-.78.2-.91.64s-.42,1.03-.83.86c.05-.54.13-1.11.46-1.52s.99-.58,1.36-.2l-.07.22Z"/>
          <path class="cls-3" d="M59.35,8.19c-.59.7-1.07,1.5-1.43,2.36-.47-.13-.9-.38-1.25-.72.76-.3,1.41-.9,1.77-1.66.41.21.81.42,1.22.64l-.31-.61Z"/>
          <path class="cls-3" d="M55.54,37.36c-.47.84-.85,1.74-1.13,2.67-.09.3-.14.69.11.86.11.08.26.08.39.06.71-.09,1.33-.66,1.51-1.39s-.1-1.55-.67-1.99l-.21-.21Z"/>
          <path class="cls-3" d="M36.76,6.44c-.39-.26-.8-.6-.86-1.08s.54-.97.87-.63c0,.56,0,1.11.01,1.67l-.02.04Z"/>
          <path class="cls-3" d="M31.03,7.75l.35-1.14c.45-.05.91.45.76.9s-.91.48-1.02.01l-.1.22Z"/>
          <path class="cls-3" d="M28.39,12.19c-.05-.36.41-.64.71-.46s.32.69.06.93-.69.2-.94-.05c-.19-.2-.15-.67.11-.62l.05.19Z"/>
        </g>
        <g class="cls-1">
          <path class="cls-2" d="M51.43,39.67c.08.48-.03.99.05,1.47.21,1.27,1.56,1.86,2.64,2.46s2.17,1.95,1.51,3.03c-1.54-.23-3.12-.24-4.66-.02,1.24,1.42.61,3.66.11,5.52s-.46,4.41,1.26,5.07c.28,1.54-.49,3.05-.89,4.57s-.22,3.52,1.16,4.13c-1.94,1.58-5.11,1.03-6.47-1.12-.6-.94-.89-2.14-1.76-2.82-1.34-1.04-3.23-.29-4.69.55-5.08,2.91-10.53,6.75-16.15,5.29-.29-1.72.82-3.58,2.42-4.05-2.4-.54-5.16-1.39-6.04-3.8-.63-1.74.02-3.76,1.12-5.22.55-.74,1.25-1.49,1.22-2.43-.01-.49-.24-.94-.4-1.41-.94-2.68.05-5.62.67-8.41s.61-6.23-1.59-7.91c2.45-1.01,4.34-5.38,5.83-3.1s.42-14.87,3.56-7.78c.03-4.13,1.25,13.43,2.74,9.61-1.53-1.08,1.22-4.53-.62-4.7,1.06-2.4.29-4.83,1.35-7.23,2.35,1.26,2.92,4.08,4.32,6.19,1.32,1.99,3.4,2.82,4.44,4.97s.78,3.95,3.21,4.93c1.62.66,5.18-.47,5.63,2.22Z"/>
          <path class="cls-2" d="M16.78,49.3c.94.41,1.41,1.72.96,2.68-.45-.28-.8.57-1.31.69-.35.08-.67-.21-.92-.48-1.02-1.09-2.03-2.19-3.05-3.28-.24-.85.83-1.74,1.56-1.28.4.25.62.75,1.03.97.45.24.99.08,1.49.19s.92.82.51,1.13"/>
          <path class="cls-2" d="M59.39,47.74c.5-.55,1.52-.08,1.64.67s-.46,1.48-1.15,1.72-1.44.1-2.14-.13-1.37-.53-2.09-.61c.09-.36.19-.73.28-1.09,1.07.62,2.56.27,3.27-.78l.19.22Z"/>
          <path class="cls-2" d="M39.78,65.51c.96-.55,2.25-.38,3.04.41s1.04,2.13.57,3.17c-1.13-.52-2.35-.8-3.58-.82-.02-.9.13-1.81.44-2.65l-.47-.1Z"/>
          <path class="cls-2" d="M19.53,41.74c.12-.78.1-1.59-.07-2.38-.04-.17-.08-.34-.18-.48-.29-.42-.95-.46-1.37-.2s-.63.73-.75,1.19-.19.95-.41,1.38c-.5-.38-1.16-.56-1.78-.5-.39.89.15,1.93.68,2.8.06.1.13.21.23.28.14.1.33.1.5.11.68.04,1.36.2,2,.48.33-.61.66-1.23.99-1.84.15-.28.29-.66.04-.9l.13.05Z"/>
          <path class="cls-2" d="M54.88,59.97c1.4-.35,2.9-.66,4.25-.12s2.35,2.28,1.66,3.61c-2.14.16-4.32-1.07-5.37-3.03l-.53-.46Z"/>
          <path class="cls-2" d="M59.46,55.03c.74.12,1.38.74,1.55,1.51-.5-.2-.91-.62-1.11-1.14l-.44-.37Z"/>
          <path class="cls-2" d="M46.16,24.47l.5-.88c.61,0,1.13.69.97,1.31s-.94.96-1.46.63c.07-.34.14-.67.21-1.01l-.23-.06Z"/>
          <path class="cls-2" d="M24.35,26.7c.15-.74-.98-1.28-1.42-.69s.34,1.61.98,1.28c.16-.29.32-.59.47-.88l-.04.29Z"/>
          <path class="cls-2" d="M30.72,19.12c.39,0,.74.38.75.79s-.33.8-.72.82c-.36-.13-.74-.27-.98-.57s-.29-.83.01-1.07c.44-.26,1.05-.15,1.37.25l-.43-.22Z"/>
          <path class="cls-2" d="M24.98,68.67l-.06.25"/>
          <path class="cls-2" d="M27.02,19.17l-2.11-1.64c-.15-.11-.31-.23-.49-.25-.46-.03-.69.65-.46,1.07s.71.59,1.15.71.92.24,1.22.59l.7-.49Z"/>
          <path class="cls-2" d="M18.25,33.59c.37-.43-.28-1.02-.81-1.16s-1.25-.5-1.06-1.04c.64.03,1.32.11,1.83.51s.74,1.27.31,1.77l-.27-.08Z"/>
          <path class="cls-2" d="M56.98,72.17c-.86-.73-1.84-1.32-2.87-1.75.13-.62.4-1.2.79-1.68.39.98,1.14,1.79,2.06,2.23-.23.54-.46,1.09-.69,1.63l.71-.44Z"/>
          <path class="cls-2" d="M22.27,68.73c-1.02-.57-2.1-1.03-3.22-1.34-.36-.1-.82-.14-1.01.19-.08.15-.08.34-.05.52.14.92.86,1.71,1.72,1.91s1.83-.21,2.32-.98l.24-.29Z"/>
          <path class="cls-2" d="M57.85,42.51c.29-.52.66-1.08,1.23-1.18s1.18.65.8,1.1c-.66.03-1.31.07-1.97.1l-.05-.03Z"/>
          <path class="cls-2" d="M56,35.09l1.36.4c.08.59-.48,1.21-1.03,1.05s-.62-1.17-.07-1.33l-.26-.11Z"/>
          <path class="cls-2" d="M50.61,31.86c.42-.08.78.5.58.9s-.8.45-1.1.13-.28-.89,0-1.23c.22-.26.79-.23.74.12l-.22.08Z"/>
        </g>
        <g class="cls-1">
          <path class="cls-2" d="M42.43,22.33c.21.26.31.6.52.86.55.68,1.55.54,2.39.5s1.94.37,1.9,1.26c-1,.43-1.94,1-2.79,1.7,1.21.39,1.57,1.96,1.89,3.25s1.18,2.8,2.43,2.57c.68.82.72,2,.98,3.05s1.04,2.18,2.06,2.04c-.63,1.65-2.71,2.48-4.23,1.7-.67-.35-1.24-.95-1.98-1.04-1.14-.13-2.02,1.01-2.62,2.04-2.07,3.6-4.05,7.88-7.88,9.07-.74-.92-.7-2.44.1-3.3-1.61.56-3.54,1.06-4.86-.06-.95-.81-1.23-2.25-1.06-3.52.09-.64.25-1.35-.07-1.9-.17-.29-.45-.48-.7-.69-1.45-1.25-1.83-3.37-2.38-5.26s-1.69-3.94-3.56-4.14c1.13-1.5.81-4.8,2.45-3.98s-4.66-9.02-.45-5.95c-1.35-2.48,5.19,7.56,4.81,4.73-1.27-.09-.77-3.15-1.92-2.58-.16-1.82-1.43-2.99-1.59-4.81,1.82-.11,3.09,1.37,4.62,2.11,1.45.7,2.96.44,4.29,1.34s1.77,2.07,3.55,1.77c1.18-.2,2.93-2.18,4.1-.74Z"/>
          <path class="cls-2" d="M24.95,40.76c.7-.1,1.41.51,1.46,1.24-.36,0-.29.63-.55.89-.18.18-.47.12-.71.05-.97-.28-1.93-.56-2.9-.84-.43-.42-.08-1.34.5-1.33.32,0,.62.22.94.2.35-.02.62-.32.95-.43s.82.15.68.49"/>
          <path class="cls-2" d="M49.85,24.23c.11-.51.88-.61,1.2-.2s.21,1.05-.12,1.45-.83.59-1.32.71-.99.19-1.45.4c-.06-.25-.13-.5-.19-.75.84-.02,1.62-.78,1.69-1.66l.19.06Z"/>
          <path class="cls-2" d="M44.03,42.01c.39-.68,1.21-1.05,1.95-.87s1.32.89,1.39,1.68c-.84.1-1.67.38-2.41.82-.31-.53-.52-1.13-.62-1.74l-.31.11Z"/>
          <path class="cls-2" d="M24.09,35.24c-.19-.51-.47-.99-.83-1.4-.08-.09-.16-.17-.27-.22-.31-.14-.72.07-.89.38s-.13.67-.05.99.2.64.21.97c-.43-.04-.88.09-1.23.35.06.67.73,1.09,1.33,1.42.07.04.15.08.23.08.12,0,.23-.06.34-.12.42-.23.88-.38,1.35-.45,0-.49-.01-.97-.02-1.46,0-.22-.05-.5-.27-.55l.09-.02Z"/>
          <path class="cls-2" d="M51.21,33.18c.72-.72,1.51-1.45,2.49-1.62s2.15.5,2.18,1.54c-1.22.88-2.93.94-4.21.16l-.47-.08Z"/>
          <path class="cls-2" d="M52.31,28.56c.48-.2,1.07-.06,1.42.33-.36.07-.75-.04-1.04-.27l-.38-.06Z"/>
          <path class="cls-2" d="M34.26,15.19v-.71c.37-.23.91,0,1.02.43s-.24.91-.66.91c-.07-.23-.14-.45-.2-.68l-.16.05Z"/>
          <path class="cls-2" d="M21.99,24.5c-.16-.49-1.01-.41-1.07.11s.73.83,1.01.4c0-.23,0-.47,0-.7l.07.19Z"/>
          <path class="cls-2" d="M23.28,17.65c.24-.14.57-.05.71.2s.07.6-.16.75c-.26.05-.53.11-.77.02s-.44-.39-.34-.64c.17-.32.57-.47.9-.35l-.33.03Z"/>
          <path class="cls-2" d="M36.25,49.31l.05.17"/>
          <path class="cls-2" d="M21.1,19.04l-1.8-.2c-.13-.01-.26-.03-.37.03-.28.15-.2.64.08.81s.62.1.92,0,.63-.2.93-.09l.25-.55Z"/>
          <path class="cls-2" d="M20.63,30.84c.07-.39-.5-.51-.87-.39s-.91.16-.98-.23c.39-.21.82-.42,1.26-.36s.86.48.77.94l-.19.05Z"/>
          <path class="cls-2" d="M56.5,39.69c-.76-.12-1.53-.12-2.29,0-.13-.41-.16-.86-.08-1.29.56.44,1.27.65,1.97.58.04.41.09.82.13,1.22l.28-.52Z"/>
          <path class="cls-2" d="M34.65,50.34c-.8.03-1.59.16-2.36.38-.25.07-.54.21-.54.48,0,.12.07.23.14.33.39.5,1.08.71,1.66.51s1.02-.79,1.06-1.44l.05-.26Z"/>
          <path class="cls-2" d="M47.2,21.67c0-.42.04-.89.34-1.15s.92-.04.84.37c-.38.26-.76.52-1.14.78h-.04Z"/>
          <path class="cls-2" d="M43.64,17.93l.94-.26c.24.32.11.9-.27,1s-.75-.47-.48-.77l-.2.03Z"/>
          <path class="cls-2" d="M39.36,17.97c.23-.2.63.02.64.33s-.33.56-.61.48-.46-.43-.4-.73c.05-.24.39-.43.48-.2l-.11.13Z"/>
        </g>
      </g>
      <g>
        <g class="cls-1">
          <path class="cls-3" d="M20.26,24.18c.46-.1.94,0,1.4-.11,1.2-.27,1.71-1.71,2.24-2.87s1.77-2.35,2.82-1.7c-.16,1.63-.11,3.29.16,4.9,1.3-1.36,3.45-.78,5.24-.32s4.21.32,4.77-1.51c1.46-.35,2.92.4,4.37.76s3.36.1,3.88-1.37c1.57,1.98,1.17,5.33-.83,6.84-.88.66-2,1.02-2.61,1.95-.94,1.45-.16,3.4.69,4.91,2.96,5.23,6.8,10.82,5.63,16.78-1.63.37-3.43-.73-3.94-2.4-.42,2.54-1.13,5.48-3.39,6.49-1.63.73-3.57.12-5-.98-.72-.55-1.46-1.26-2.35-1.2-.47.03-.89.28-1.32.47-2.51,1.09-5.35.15-8.02-.39s-5.94-.41-7.45,1.96c-1.05-2.53-5.27-4.36-3.16-6.02s-14.14.11-7.53-3.46c-3.93.12,12.72-1.81,9.03-3.23-.97,1.65-4.35-1.11-4.44.82-2.32-1.03-4.6-.12-6.92-1.15,1.11-2.51,3.77-3.22,5.72-4.77,1.84-1.47,2.56-3.68,4.55-4.85s3.72-.97,4.57-3.56c.56-1.72-.64-5.42,1.9-6.01Z"/>
          <path class="cls-3" d="M30.7,60.24c.36-1,1.58-1.54,2.51-1.11-.25.48.57.82.7,1.35.09.37-.18.71-.42.99-1,1.11-2,2.22-3,3.32-.8.29-1.68-.8-1.28-1.59.22-.43.69-.68.89-1.12.21-.48.04-1.05.12-1.57s.75-1,1.05-.58"/>
          <path class="cls-3" d="M27.63,15.51c-.54-.5-.14-1.59.57-1.75s1.42.43,1.68,1.14.14,1.51-.04,2.25-.45,1.46-.5,2.22c-.35-.09-.7-.17-1.05-.26.55-1.15.16-2.7-.86-3.41l.2-.21Z"/>
          <path class="cls-3" d="M45.24,35.46c-.56-.99-.44-2.35.27-3.21s1.98-1.17,2.99-.72c-.45,1.2-.67,2.5-.65,3.79-.86.06-1.73-.06-2.54-.36l-.08.5Z"/>
          <path class="cls-3" d="M23.41,57.63c-.75-.1-1.52-.04-2.26.17-.16.04-.32.1-.45.21-.39.32-.4,1.02-.14,1.45s.72.63,1.16.75.91.17,1.32.38c-.34.54-.49,1.24-.41,1.89.86.38,1.83-.23,2.64-.82.1-.07.2-.14.26-.26.09-.16.09-.35.09-.53.01-.72.14-1.44.38-2.12-.59-.32-1.19-.65-1.78-.97-.27-.15-.64-.28-.85,0l.04-.13Z"/>
          <path class="cls-3" d="M39.42,19.79c-.38-1.46-.73-3.03-.27-4.46s2.08-2.55,3.36-1.88c.23,2.24-.85,4.58-2.68,5.76l-.42.58Z"/>
          <path class="cls-3" d="M34.56,15.16c.09-.78.66-1.48,1.38-1.68-.17.53-.56.98-1.04,1.21l-.33.47Z"/>
          <path class="cls-3" d="M6.01,30.28l-.85-.49c-.03-.64.61-1.21,1.21-1.07s.94.95.65,1.51c-.32-.06-.64-.13-.96-.19l-.05.24Z"/>
          <path class="cls-3" d="M8.94,53.12c-.71-.13-1.18,1.08-.6,1.52s1.51-.42,1.18-1.08c-.28-.16-.57-.31-.85-.47l.28.03Z"/>
          <path class="cls-3" d="M1.5,46.71c0-.41.33-.8.72-.82s.77.32.8.73c-.11.38-.23.78-.51,1.05s-.77.33-1.02.02c-.27-.45-.18-1.09.19-1.45l-.2.46Z"/>
          <path class="cls-3" d="M48.79,50.91l.24.05"/>
          <path class="cls-3" d="M1.69,50.59l-1.48,2.28c-.1.16-.21.33-.22.52-.01.48.65.71,1.03.45s.54-.76.63-1.23.19-.98.52-1.31l-.49-.71Z"/>
          <path class="cls-3" d="M15.71,59.28c-.43-.37-.95.33-1.07.89s-.43,1.33-.95,1.16c0-.67.05-1.39.42-1.94s1.18-.83,1.67-.39l-.07.28Z"/>
          <path class="cls-3" d="M50.94,17.13c-.66.93-1.19,1.98-1.55,3.08-.59-.11-1.15-.38-1.62-.77.92-.45,1.66-1.27,2.04-2.25.52.22,1.05.44,1.57.66l-.44-.73Z"/>
          <path class="cls-3" d="M48.95,53.75c-.51,1.09-.9,2.25-1.16,3.43-.08.38-.11.87.22,1.05.15.08.33.07.49.04.87-.18,1.59-.96,1.75-1.88s-.27-1.91-1.02-2.4l-.28-.24Z"/>
          <path class="cls-3" d="M22.72,17.32c-.51-.28-1.05-.66-1.16-1.25s.58-1.26,1.02-.88c.06.69.11,1.38.17,2.07l-.02.06Z"/>
          <path class="cls-3" d="M15.74,19.55l.33-1.45c.56-.11,1.17.46,1.03,1.04s-1.09.69-1.26.12l-.1.28Z"/>
          <path class="cls-3" d="M12.87,25.33c-.09-.44.45-.84.83-.64s.46.82.16,1.15-.84.33-1.17.04c-.26-.22-.25-.82.08-.78l.09.23Z"/>
        </g>
        <g class="cls-1">
          <path class="cls-3" d="M52.73,18.82c.26.26.42.62.68.87.69.67,1.77.37,2.7.21s2.18.13,2.26,1.12c-1.05.61-2.01,1.37-2.86,2.26,1.38.26,1.98,1.94,2.5,3.31s1.66,2.92,3,2.49c.85.81,1.05,2.1,1.47,3.22s1.42,2.26,2.53,1.96c-.49,1.91-2.67,3.12-4.44,2.47-.78-.29-1.49-.88-2.32-.87-1.28.01-2.1,1.39-2.63,2.62-1.82,4.25-3.46,9.25-7.53,11.1-.94-.91-1.08-2.59-.31-3.66-1.7.84-3.77,1.66-5.36.62-1.15-.76-1.64-2.3-1.62-3.74.01-.72.11-1.52-.32-2.08-.23-.29-.56-.46-.86-.67-1.76-1.18-2.44-3.46-3.3-5.46s-2.37-4.1-4.45-4.06c1.05-1.81.28-5.4,2.2-4.74s-6.29-9.29-1.25-6.49c-1.8-2.54,6.68,7.6,5.91,4.54-1.41.08-1.25-3.36-2.45-2.57-.41-1.98-1.95-3.09-2.36-5.07,1.99-.38,3.58,1.07,5.36,1.67,1.69.57,3.32.07,4.9.87s2.21,2.03,4.14,1.45c1.28-.39,2.95-2.81,4.42-1.39Z"/>
          <path class="cls-3" d="M35.81,41.59c.75-.2,1.61.36,1.77,1.17-.39.05-.24.74-.5,1.06-.18.22-.5.2-.78.15-1.1-.17-2.2-.35-3.31-.52-.53-.4-.26-1.46.39-1.54.35-.04.71.16,1.06.09.38-.07.64-.44.99-.61s.93.05.81.44"/>
          <path class="cls-3" d="M61.15,19.87c.06-.58.89-.79,1.29-.39s.37,1.13.05,1.61-.84.76-1.36.96-1.07.35-1.55.65c-.1-.27-.2-.54-.31-.8.93-.14,1.68-1.08,1.65-2.07l.22.04Z"/>
          <path class="cls-3" d="M57,40.28c.34-.8,1.2-1.33,2.04-1.23s1.57.79,1.75,1.66c-.92.23-1.79.66-2.55,1.24-.41-.54-.72-1.17-.9-1.84l-.33.17Z"/>
          <path class="cls-3" d="M34.15,35.63c-.27-.54-.64-1.02-1.09-1.42-.1-.08-.2-.17-.32-.21-.36-.12-.79.18-.93.54s-.06.75.07,1.1.3.67.36,1.04c-.47.02-.96.22-1.31.56.15.73.94,1.1,1.65,1.38.08.03.17.07.27.06.13-.01.25-.1.36-.18.43-.31.92-.54,1.43-.68-.07-.54-.14-1.07-.21-1.61-.03-.25-.12-.55-.37-.57l.1-.03Z"/>
          <path class="cls-3" d="M63.79,29.54c.7-.89,1.48-1.82,2.54-2.14s2.44.25,2.6,1.4c-1.23,1.14-3.11,1.45-4.62.77l-.53-.02Z"/>
          <path class="cls-3" d="M64.41,24.29c.5-.29,1.17-.22,1.61.17-.39.12-.83.06-1.18-.16h-.43Z"/>
          <path class="cls-3" d="M42.82,12.1l-.08-.78c.37-.3.99-.13,1.17.33s-.15,1.04-.62,1.1c-.1-.24-.21-.48-.31-.72l-.17.07Z"/>
          <path class="cls-3" d="M30.48,24.09c-.24-.52-1.16-.31-1.17.27s.91.82,1.16.3c-.03-.26-.07-.51-.1-.77l.1.2Z"/>
          <path class="cls-3" d="M31.03,16.35c.24-.19.62-.13.81.12s.15.65-.08.85c-.28.1-.57.19-.85.13s-.54-.36-.46-.66c.15-.37.57-.6.95-.51l-.36.07Z"/>
          <path class="cls-3" d="M49.35,49.43l.07.18"/>
          <path class="cls-3" d="M28.79,18.19l-2.01.03c-.14,0-.29,0-.41.09-.29.2-.14.74.19.88s.69.02,1.01-.12.67-.3,1.01-.23l.21-.64Z"/>
          <path class="cls-3" d="M29.79,31.27c.03-.44-.62-.49-1-.31s-.98.3-1.11-.12c.41-.29.85-.58,1.34-.58s1.01.41.97.93l-.2.08Z"/>
          <path class="cls-3" d="M70.44,35.97c-.85-.03-1.7.09-2.52.33-.19-.44-.28-.93-.26-1.41.67.41,1.49.54,2.24.36.1.44.2.89.3,1.33l.24-.61Z"/>
          <path class="cls-3" d="M47.72,50.79c-.88.15-1.74.4-2.56.75-.26.11-.56.31-.53.61.02.13.1.25.19.34.49.49,1.28.63,1.89.33s1.02-1.02.98-1.73l.02-.29Z"/>
          <path class="cls-3" d="M57.91,17.42c-.06-.46-.07-.98.23-1.32s1.01-.17.97.29c-.39.34-.77.68-1.16,1.02h-.04Z"/>
          <path class="cls-3" d="M53.51,13.79l1.01-.42c.31.32.24.98-.17,1.14s-.89-.41-.63-.78l-.21.06Z"/>
          <path class="cls-3" d="M48.79,14.45c.22-.25.7-.07.75.27s-.29.66-.61.61-.56-.41-.54-.75c.02-.27.38-.53.5-.29l-.1.16Z"/>
        </g>
        <g class="cls-1">
          <path class="cls-3" d="M25.36,28.29c.29-.07.59,0,.88-.07.75-.17,1.07-1.07,1.41-1.8s1.11-1.48,1.77-1.07c-.1,1.02-.07,2.06.1,3.08.82-.85,2.17-.49,3.29-.2s2.64.2,3-.95c.92-.22,1.83.25,2.75.48s2.11.06,2.44-.86c.99,1.24.73,3.35-.52,4.3-.55.42-1.26.64-1.64,1.23-.59.91-.1,2.14.44,3.09,1.86,3.29,4.27,6.8,3.54,10.54-1.02.23-2.16-.46-2.48-1.51-.27,1.6-.71,3.44-2.13,4.08-1.03.46-2.24.08-3.14-.62-.45-.35-.92-.79-1.48-.75-.29.02-.56.18-.83.3-1.58.69-3.36.1-5.04-.24s-3.73-.26-4.68,1.23c-.66-1.59-3.31-2.74-1.99-3.78s-8.88.07-4.73-2.17c-2.47.07,7.99-1.14,5.67-2.03-.61,1.03-2.73-.7-2.79.52-1.45-.65-2.89-.08-4.34-.72.7-1.58,2.37-2.03,3.59-3,1.16-.92,1.61-2.31,2.86-3.05s2.34-.61,2.87-2.24c.35-1.08-.4-3.41,1.19-3.77Z"/>
          <path class="cls-3" d="M31.92,50.94c.22-.63.99-.97,1.58-.7-.16.3.36.52.44.85.06.23-.11.45-.27.62-.63.7-1.26,1.39-1.89,2.09-.5.18-1.06-.51-.8-1,.14-.27.44-.43.56-.7.13-.3.02-.66.08-.99s.47-.63.66-.36"/>
          <path class="cls-3" d="M29.99,22.85c-.34-.32-.09-1,.36-1.1s.89.27,1.05.72.09.95-.03,1.41-.28.92-.32,1.4c-.22-.05-.44-.11-.66-.16.35-.72.1-1.7-.54-2.14l.13-.13Z"/>
          <path class="cls-3" d="M41.06,35.38c-.35-.62-.28-1.47.17-2.02s1.25-.74,1.88-.45c-.28.76-.42,1.57-.41,2.38-.54.04-1.08-.04-1.59-.23l-.05.31Z"/>
          <path class="cls-3" d="M27.34,49.31c-.47-.06-.95-.03-1.42.1-.1.03-.2.06-.28.13-.24.2-.25.64-.09.91s.45.4.73.47.57.1.83.24c-.21.34-.31.78-.25,1.19.54.24,1.15-.15,1.66-.52.06-.04.12-.09.16-.16.06-.1.05-.22.06-.33,0-.45.09-.91.24-1.33-.37-.2-.75-.41-1.12-.61-.17-.09-.4-.17-.54,0l.03-.08Z"/>
          <path class="cls-3" d="M37.4,25.54c-.24-.92-.46-1.9-.17-2.8s1.3-1.6,2.11-1.18c.15,1.41-.54,2.88-1.68,3.62l-.26.36Z"/>
          <path class="cls-3" d="M34.34,22.63c.05-.49.41-.93.86-1.06-.11.33-.35.62-.66.76l-.21.3Z"/>
          <path class="cls-3" d="M16.41,32.13l-.53-.31c-.02-.4.39-.76.76-.67s.59.6.41.95c-.2-.04-.4-.08-.6-.12l-.03.15Z"/>
          <path class="cls-3" d="M18.25,46.48c-.44-.08-.74.68-.38.95s.95-.26.74-.68c-.18-.1-.36-.2-.54-.29l.18.02Z"/>
          <path class="cls-3" d="M13.58,42.45c0-.26.21-.5.45-.51s.48.2.51.46c-.07.24-.14.49-.32.66s-.49.21-.64.02c-.17-.28-.11-.69.12-.91l-.12.29Z"/>
          <path class="cls-3" d="M43.29,45.08l.15.03"/>
          <path class="cls-3" d="M13.7,44.89l-.93,1.43c-.06.1-.13.21-.14.33,0,.3.41.44.65.28s.34-.48.4-.77.12-.61.33-.82l-.31-.45Z"/>
          <path class="cls-3" d="M22.5,50.34c-.27-.23-.6.21-.67.56s-.27.83-.6.73c0-.42.03-.87.26-1.22s.74-.52,1.05-.25l-.04.18Z"/>
          <path class="cls-3" d="M44.63,23.87c-.42.59-.75,1.24-.97,1.94-.37-.07-.72-.24-1.02-.48.58-.28,1.04-.8,1.28-1.41.33.14.66.28.99.42l-.28-.46Z"/>
          <path class="cls-3" d="M43.39,46.87c-.32.69-.56,1.41-.73,2.16-.05.24-.07.55.14.66.09.05.21.04.31.02.55-.12,1-.6,1.1-1.18s-.17-1.2-.64-1.51l-.18-.15Z"/>
          <path class="cls-3" d="M26.91,23.98c-.32-.18-.66-.41-.73-.78s.36-.79.64-.55c.04.43.07.87.11,1.3l-.02.04Z"/>
          <path class="cls-3" d="M22.52,25.38l.21-.91c.35-.07.74.29.65.66s-.68.43-.79.08l-.06.18Z"/>
          <path class="cls-3" d="M20.72,29.02c-.06-.28.28-.53.52-.4s.29.52.1.72-.52.2-.73.02c-.16-.14-.16-.52.05-.49l.05.15Z"/>
        </g>
        <g class="cls-1">
          <path class="cls-3" d="M15.81,21.65c.22-.32.55-.54.77-.86.57-.84.13-1.99-.15-2.97s-.16-2.4.8-2.61c.74,1.06,1.63,2.01,2.62,2.81.07-1.55,1.65-2.43,2.93-3.18s2.66-2.2,2.05-3.61c.68-1.04,1.94-1.43,2.98-2.04s2.04-1.85,1.59-3.02c1.95.28,3.44,2.5,3.03,4.52-.18.89-.66,1.75-.54,2.65.19,1.39,1.66,2.11,2.94,2.51,4.45,1.41,9.6,2.53,11.98,6.73-.77,1.15-2.41,1.53-3.57.83,1.06,1.75,2.15,3.89,1.33,5.78-.59,1.36-2.05,2.11-3.47,2.27-.71.08-1.52.09-2.01.63-.26.29-.38.67-.54,1.03-.93,2.08-3.09,3.14-4.95,4.34s-3.73,3.14-3.4,5.41c-1.93-.9-5.37.42-4.97-1.76s-8.32,8.12-6.24,2.24c-2.27,2.31,6.6-8.32,3.68-7.06.27,1.53-3.15,1.82-2.21,3.02-1.9.71-2.79,2.55-4.69,3.26-.64-2.12.57-4.06.93-6.08.34-1.92-.38-3.64.2-5.47s1.71-2.69.87-4.71c-.55-1.34-3.17-2.85-1.97-4.64Z"/>
          <path class="cls-3" d="M40.57,37.07c-.3-.8.14-1.81.91-2.09.1.42.76.16,1.11.4.24.17.26.52.26.83-.02,1.23-.04,2.45-.07,3.68-.33.63-1.41.48-1.57-.21-.09-.38.06-.8-.05-1.17-.12-.4-.52-.64-.74-1s-.07-1.02.33-.94"/>
          <path class="cls-3" d="M15.71,12.32c-.58.01-.9-.87-.56-1.36s1.06-.56,1.58-.28.87.81,1.14,1.36.49,1.12.85,1.6c-.25.15-.5.3-.75.44-.26-.99-1.3-1.69-2.27-1.53v-.24Z"/>
          <path class="cls-3" d="M36.42,14.1c-.84-.27-1.47-1.14-1.49-2.06s.57-1.82,1.4-2.13c.35.97.89,1.87,1.57,2.62-.48.52-1.06.95-1.69,1.23l.21.34Z"/>
          <path class="cls-3" d="M34.91,39.68c-.49.37-.92.84-1.25,1.39-.07.12-.14.24-.16.38-.07.41.29.83.66.94s.75-.03,1.07-.22.62-.42.98-.53c.08.52.35,1.01.73,1.35.7-.27.96-1.18,1.14-1.99.02-.1.04-.2.02-.3-.03-.14-.13-.26-.22-.37-.36-.43-.66-.93-.87-1.47-.52.15-1.04.29-1.56.44-.24.07-.52.2-.51.48l-.04-.1Z"/>
          <path class="cls-3" d="M24.9,8.14c-.98-.65-1.99-1.38-2.46-2.49s-.08-2.69,1.03-3.03c1.29,1.19,1.85,3.2,1.38,4.94l.05.58Z"/>
          <path class="cls-3" d="M19.64,8.17c-.35-.51-.37-1.25-.05-1.78.17.41.18.9,0,1.31l.05.47Z"/>
          <path class="cls-3" d="M10.51,33.39l-.76.19c-.35-.36-.26-1.07.16-1.32s1.05.02,1.17.52c-.22.15-.44.29-.67.44l.09.17Z"/>
          <path class="cls-3" d="M24.01,45.26c-.48.33-.15,1.31.42,1.24s.68-1.11.14-1.31c-.25.07-.5.14-.75.21l.18-.14Z"/>
          <path class="cls-3" d="M16.3,45.7c-.22-.24-.21-.66,0-.9s.62-.25.85-.03c.13.29.27.59.24.91s-.29.64-.59.59c-.39-.11-.67-.54-.63-.97l.12.38Z"/>
          <path class="cls-3" d="M46.48,21.23l.17-.1"/>
          <path class="cls-3" d="M18.42,47.89l.3,2.19c.02.15.05.32.14.43.24.29.75.05.84-.32s-.08-.76-.26-1.09-.39-.69-.37-1.07l-.66-.14Z"/>
          <path class="cls-3" d="M31.19,45.04c-.44.02-.4.74-.17,1.14s.43,1.03.03,1.23c-.34-.4-.68-.85-.75-1.39s.27-1.16.79-1.18l.11.21Z"/>
          <path class="cls-3" d="M30.36,0c.09.93.31,1.85.67,2.71-.41.27-.88.43-1.36.47.31-.79.33-1.7.05-2.5.42-.17.85-.34,1.27-.5l-.64-.18Z"/>
          <path class="cls-3" d="M48.04,22.82c.26.94.63,1.84,1.08,2.69.15.27.38.57.67.5.13-.03.23-.14.31-.26.42-.6.45-1.48.07-2.11s-1.14-.98-1.84-.84l-.29.02Z"/>
          <path class="cls-3" d="M13.73,16.19c-.45.12-.96.21-1.33-.08s-.31-1.08.15-1.1c.39.38.78.75,1.17,1.13l.02.05Z"/>
          <path class="cls-3" d="M10.74,21.49l-.55-1.04c.27-.38.93-.39,1.15.03s-.29,1.03-.68.79l.09.22Z"/>
          <path class="cls-3" d="M12.03,26.55c-.28-.21-.17-.75.16-.85s.69.23.69.59-.33.67-.67.69c-.27.01-.57-.34-.35-.51l.17.09Z"/>
        </g>
        <g class="cls-1">
          <path class="cls-2" d="M46.85,27.56c.39.27.67.7,1.06.96,1.03.7,2.36.07,3.51-.36s2.83-.34,3.14.91c-1.21,1.03-2.29,2.24-3.19,3.58,1.83.01,2.96,2.02,3.91,3.67s2.75,3.36,4.39,2.49c1.26.84,1.79,2.46,2.57,3.8s2.3,2.57,3.66,1.92c-.22,2.57-2.77,4.63-5.19,4.21-1.06-.19-2.1-.78-3.16-.57-1.64.32-2.41,2.28-2.82,3.98-1.44,5.89-2.49,12.7-7.33,16.03-1.4-.95-1.93-3.07-1.17-4.63-2.01,1.48-4.49,3.02-6.76,2.05-1.64-.7-2.6-2.58-2.87-4.42-.14-.93-.18-1.98-.85-2.6-.35-.32-.82-.46-1.25-.65-2.51-1.1-3.87-3.88-5.39-6.25s-3.91-4.72-6.58-4.17c.97-2.57-.78-7.01,1.82-6.6s-10.05-10.46-2.98-8.05c-2.85-2.84,10.19,8.2,8.55,4.45-1.8.44-2.32-4.03-3.69-2.73-.94-2.45-3.16-3.51-4.11-5.97,2.47-.95,4.83.54,7.25.89,2.29.34,4.28-.69,6.48-.03s3.28,2.09,5.62.89c1.56-.8,3.2-4.3,5.39-2.82Z"/>
          <path class="cls-2" d="M29.92,60.78c.93-.44,2.15.09,2.52,1.08-.5.15-.15,1-.42,1.47-.18.33-.61.37-.97.38-1.45.04-2.9.07-4.36.11-.76-.39-.64-1.82.17-2.07.45-.14.95.04,1.38-.13.47-.18.73-.71,1.14-1.02s1.2-.15,1.13.38"/>
          <path class="cls-2" d="M57.88,26.94c-.04-.76.98-1.23,1.58-.8s.72,1.36.41,2.06-.92,1.18-1.55,1.56-1.3.7-1.85,1.19c-.19-.32-.38-.64-.57-.96,1.16-.4,1.93-1.79,1.69-3.05h.29Z"/>
          <path class="cls-2" d="M56.88,54.14c.27-1.11,1.27-1.99,2.36-2.06s2.19.65,2.59,1.72c-1.13.51-2.16,1.26-3.01,2.19-.65-.6-1.17-1.33-1.55-2.15l-.39.3Z"/>
          <path class="cls-2" d="M26.53,53.51c-.46-.63-1.04-1.16-1.71-1.57-.14-.09-.29-.17-.46-.19-.49-.06-.97.42-1.08.92s.08.98.32,1.39.53.8.68,1.26c-.61.13-1.18.51-1.56,1.03.35.91,1.45,1.2,2.41,1.39.12.02.24.05.36.01.17-.04.3-.18.42-.31.49-.5,1.07-.91,1.69-1.21-.2-.67-.4-1.34-.61-2.01-.09-.31-.27-.67-.6-.64l.12-.06Z"/>
          <path class="cls-2" d="M63.32,38.75c.71-1.31,1.52-2.68,2.81-3.35s3.18-.25,3.64,1.18c-1.34,1.76-3.68,2.59-5.77,2.07l-.68.1Z"/>
          <path class="cls-2" d="M63.01,31.86c.59-.49,1.46-.55,2.1-.16-.48.25-1.05.28-1.55.08l-.55.09Z"/>
          <path class="cls-2" d="M32.68,21.25l-.27-.98c.41-.48,1.25-.4,1.58.14s.03,1.37-.56,1.56c-.18-.28-.37-.57-.55-.85l-.2.13Z"/>
          <path class="cls-2" d="M19.36,39.55c-.41-.62-1.56-.12-1.45.62s1.35.83,1.56.11c-.1-.32-.19-.64-.29-.97l.18.23Z"/>
          <path class="cls-2" d="M18.43,29.48c.27-.3.77-.31,1.06-.04s.33.8.08,1.11c-.33.19-.69.38-1.07.36s-.77-.34-.73-.74c.11-.52.61-.91,1.11-.88l-.45.18Z"/>
          <path class="cls-2" d="M48.98,67.69l.13.21"/>
          <path class="cls-2" d="M15.95,32.36l-2.58.51c-.18.04-.37.08-.51.21-.33.33-.02.98.43,1.09s.89-.14,1.28-.4.79-.55,1.25-.54l.13-.87Z"/>
          <path class="cls-2" d="M19.99,48.94c-.05-.58-.89-.48-1.36-.17s-1.2.62-1.45.11c.46-.47.97-.94,1.6-1.05s1.39.29,1.44.96l-.24.15Z"/>
          <path class="cls-2" d="M73.24,45.45c-1.1.16-2.17.51-3.17,1.02-.34-.52-.56-1.12-.63-1.75.95.37,2.03.35,2.96-.06.22.55.44,1.09.66,1.64l.18-.84Z"/>
          <path class="cls-2" d="M47.18,69.81c-1.09.39-2.15.92-3.13,1.56-.31.2-.66.53-.55.9.05.17.18.29.32.39.74.52,1.77.51,2.5-.02s1.1-1.55.9-2.46l-.04-.38Z"/>
          <path class="cls-2" d="M53.2,24.55c-.17-.58-.3-1.25.02-1.75s1.26-.46,1.31.14c-.42.53-.85,1.06-1.27,1.58l-.06.02Z"/>
          <path class="cls-2" d="M46.77,20.92l1.21-.78c.47.34.51,1.2.03,1.51s-1.23-.32-.97-.85l-.26.13Z"/>
          <path class="cls-2" d="M40.85,22.87c.23-.38.88-.26,1.02.17s-.23.92-.66.93-.81-.39-.85-.84c-.03-.35.38-.77.58-.49l-.1.23Z"/>
        </g>
        <g class="cls-1">
          <path class="cls-2" d="M28.66,22.66c.32.02.63.17.95.19.84.04,1.43-.82,1.98-1.5s1.58-1.24,2.17-.61c-.38,1.06-.63,2.17-.72,3.3,1.1-.66,2.44.12,3.55.76s2.75,1,3.44-.12c1.03.04,1.88.81,2.79,1.33s2.22.69,2.82-.19c.72,1.61-.12,3.78-1.7,4.41-.7.28-1.51.31-2.07.82-.87.79-.68,2.24-.36,3.41,1.09,4.04,2.72,8.49.93,12.25-1.15-.06-2.17-1.13-2.23-2.33-.71,1.62-1.68,3.45-3.36,3.7-1.21.18-2.4-.58-3.18-1.59-.39-.5-.76-1.11-1.37-1.24-.32-.06-.64.02-.96.07-1.86.26-3.59-.89-5.28-1.75s-3.89-1.38-5.3-.08c-.27-1.89-2.78-3.89-1.1-4.6s-9.45-2.56-4.44-3.71c-2.64-.65,8.79,1.16,6.57-.48-.93.92-2.71-1.55-3.1-.28-1.37-1.12-3.05-.94-4.42-2.06,1.16-1.47,3.06-1.45,4.62-2.12,1.48-.63,2.33-1.98,3.86-2.39s2.65.05,3.65-1.52c.67-1.04.49-3.74,2.28-3.65Z"/>
          <path class="cls-2" d="M29.55,48.67c.41-.6,1.31-.73,1.86-.28-.25.27.24.66.24,1.03,0,.26-.24.44-.45.58-.85.55-1.71,1.11-2.56,1.66-.58.04-.99-.85-.58-1.3.22-.25.58-.32.78-.58.22-.28.2-.69.35-1.02s.67-.53.8-.19"/>
          <path class="cls-2" d="M35.03,18.25c-.28-.44.18-1.09.68-1.06s.88.55.93,1.08-.16,1.04-.41,1.5-.55.89-.71,1.39c-.22-.12-.44-.24-.65-.37.56-.66.56-1.77,0-2.43l.17-.1Z"/>
          <path class="cls-2" d="M43.43,34.84c-.21-.76.1-1.65.72-2.09s1.52-.41,2.12.08c-.5.72-.87,1.54-1.07,2.41-.58-.12-1.14-.36-1.63-.72l-.14.32Z"/>
          <path class="cls-2" d="M25.12,45.57c-.48-.21-1.01-.31-1.54-.31-.11,0-.23,0-.33.05-.31.14-.44.61-.34.94s.37.56.65.72.58.28.82.5c-.32.3-.54.74-.59,1.18.51.41,1.26.18,1.9-.06.08-.03.16-.06.22-.12.08-.09.12-.22.15-.34.13-.48.34-.94.61-1.34-.34-.33-.68-.65-1.03-.98-.16-.15-.38-.3-.57-.16l.05-.08Z"/>
          <path class="cls-2" d="M42.18,23.3c0-1.04.02-2.16.57-3.03s1.82-1.32,2.56-.62c-.22,1.54-1.34,2.9-2.76,3.34l-.37.31Z"/>
          <path class="cls-2" d="M39.72,19.31c.19-.51.69-.86,1.2-.87-.2.32-.54.55-.9.61l-.3.25Z"/>
          <path class="cls-2" d="M18.12,24.08l-.48-.49c.09-.43.61-.7.99-.49s.47.81.18,1.13c-.2-.1-.41-.2-.61-.3l-.07.15Z"/>
          <path class="cls-2" d="M16.23,39.87c-.45-.22-.97.5-.66.9s1.08,0,.97-.5c-.16-.16-.33-.31-.49-.47l.18.07Z"/>
          <path class="cls-2" d="M12.34,34.2c.06-.28.36-.47.62-.41s.46.36.41.64c-.14.23-.28.48-.52.61s-.57.08-.68-.17c-.1-.35.06-.76.37-.93l-.21.27Z"/>
          <path class="cls-2" d="M43.2,45.82l.15.08"/>
          <path class="cls-2" d="M11.81,36.83l-1.37,1.25c-.1.09-.2.18-.23.31-.09.32.31.59.61.49s.49-.41.63-.7.29-.62.57-.78l-.21-.57Z"/>
          <path class="cls-2" d="M19.71,45.24c-.22-.32-.69.04-.86.4s-.51.81-.83.59c.12-.45.27-.92.61-1.22s.93-.33,1.18.05l-.09.18Z"/>
          <path class="cls-2" d="M50.32,23.67c-.6.5-1.13,1.1-1.55,1.77-.38-.18-.71-.47-.95-.81.69-.13,1.32-.54,1.74-1.12.31.25.63.49.94.74l-.17-.57Z"/>
          <path class="cls-2" d="M42.83,47.74c-.52.63-.98,1.33-1.35,2.08-.12.24-.22.56-.03.74.08.08.21.11.32.12.61.04,1.23-.35,1.48-.93s.14-1.33-.28-1.79l-.15-.21Z"/>
          <path class="cls-2" d="M31.45,18.54c-.29-.28-.59-.63-.57-1.05s.6-.73.83-.4c-.08.47-.16.94-.23,1.41l-.03.03Z"/>
          <path class="cls-2" d="M26.42,18.72l.46-.91c.39.03.7.53.51.89s-.84.26-.86-.15l-.11.17Z"/>
          <path class="cls-2" d="M23.53,22.05c.01-.31.44-.48.66-.27s.17.63-.08.8-.61.06-.78-.19c-.13-.2-.03-.59.19-.51l.02.17Z"/>
        </g>
      </g>
    </g>
  </g>
</svg>